<svg width="232" height="50" viewBox="0 0 232 50" fill="none" xmlns="http://www.w3.org/2000/svg">
<path d="M0 0H232V40C232 45.5228 227.523 50 222 50H0V0Z" fill="#FCD297"/>
<path d="M104.04 26.496H113.288V28.192H106.04V30.608H113.56V32.304H104.04V26.496ZM113.272 20.656H115.224V22.416H113.272V25.824H111.256V17.424H113.272V20.656ZM102.072 18.272H109.032V19.984H104.072V23.216C104.627 23.216 105.155 23.216 105.656 23.216C106.157 23.2053 106.643 23.1947 107.112 23.184C107.592 23.1627 108.072 23.136 108.552 23.104C109.032 23.0613 109.528 23.0133 110.04 22.96L110.216 24.64C109.736 24.704 109.229 24.7573 108.696 24.8C108.173 24.832 107.592 24.8587 106.952 24.88C106.312 24.9013 105.592 24.9173 104.792 24.928C104.003 24.928 103.096 24.928 102.072 24.928V18.272ZM128.555 32.304H126.523V17.424H128.555V32.304ZM116.683 27.648C117.483 27.168 118.165 26.7413 118.731 26.368C119.296 25.9947 119.765 25.6533 120.139 25.344C120.523 25.024 120.821 24.7253 121.035 24.448C121.259 24.16 121.424 23.872 121.531 23.584C121.648 23.296 121.723 22.992 121.755 22.672C121.787 22.352 121.803 21.9947 121.803 21.6V20.496H116.955V18.752H123.835V21.696C123.835 22.2293 123.808 22.7147 123.755 23.152C123.701 23.5893 123.595 24 123.435 24.384C123.285 24.7573 123.067 25.12 122.779 25.472C122.501 25.824 122.139 26.192 121.691 26.576C121.243 26.9493 120.693 27.3547 120.043 27.792C119.403 28.2187 118.64 28.704 117.755 29.248L116.683 27.648Z" fill="#232644"/>
</svg>
