<svg width="80" height="80" viewBox="0 0 80 80" fill="none" xmlns="http://www.w3.org/2000/svg">
<g filter="url(#filter0_d_531_192)">
<rect x="8" y="8" width="64" height="64" rx="24" fill="white"/>
</g>
<path d="M33 41C33.5304 41 34.0391 40.7893 34.4142 40.4142C34.7893 40.0391 35 39.5304 35 39V33C35 32.4696 34.7893 31.9609 34.4142 31.5858C34.0391 31.2107 33.5304 31 33 31V30C33 28.1435 33.7375 26.363 35.0502 25.0503C36.363 23.7375 38.1435 23 40 23C41.8565 23 43.637 23.7375 44.9497 25.0503C46.2625 26.363 47 28.1435 47 30V31C46.4696 31 45.9609 31.2107 45.5858 31.5858C45.2107 31.9609 45 32.4696 45 33V39H42C41.7348 39 41.4804 39.1054 41.2929 39.2929C41.1054 39.4804 41 39.7348 41 40C41 40.2652 41.1054 40.5196 41.2929 40.7071C41.4804 40.8946 41.7348 41 42 41H47C48.146 40.9966 49.2561 40.5996 50.1443 39.8755C51.0326 39.1513 51.6451 38.1441 51.8794 37.0222C52.1137 35.9004 51.9556 34.7322 51.4314 33.7131C50.9072 32.694 50.0488 31.8858 49 31.424V30C49 27.6131 48.0518 25.3239 46.364 23.636C44.6761 21.9482 42.3869 21 40 21C37.613 21 35.3239 21.9482 33.636 23.636C31.9482 25.3239 31 27.6131 31 30V31.424C29.9512 31.8858 29.0928 32.694 28.5686 33.7131C28.0444 34.7322 27.8863 35.9004 28.1206 37.0222C28.3549 38.1441 28.9674 39.1513 29.8557 39.8755C30.7439 40.5996 31.854 40.9966 33 41Z" fill="#232644"/>
<path d="M19.788 48.952H27.132V53.2H19.788V48.952ZM21.288 50.212V51.94H25.632V50.212H21.288ZM18.348 54.076H28.572V55.348H24.384V57.292H22.872V55.348H18.348V54.076ZM21.3 56.356V58.324H27.36V59.608H19.788V56.356H21.3ZM38.7019 48.568V59.728H37.2019V48.568H38.7019ZM32.9419 54.772C31.1419 54.772 29.9179 53.596 29.9179 52.252V51.772C29.9179 50.428 31.1419 49.252 32.9419 49.252C34.7419 49.252 35.9659 50.428 35.9659 51.772V52.252C35.9659 53.596 34.7419 54.772 32.9419 54.772ZM32.9419 50.548C31.9699 50.548 31.3579 51.196 31.3579 51.856V52.168C31.3579 52.828 31.9699 53.476 32.9419 53.476C33.9139 53.476 34.5259 52.828 34.5259 52.168V51.856C34.5259 51.196 33.9139 50.548 32.9419 50.548ZM29.4979 57.46V56.152C33.1699 56.152 35.1979 56.092 36.6259 55.948L36.7339 57.244C35.3539 57.412 33.1819 57.46 29.4979 57.46ZM49.0478 48.568V52.888H50.5838V54.208H49.0478V59.728H47.5238V48.568H49.0478ZM43.5038 57.292C41.7278 57.292 40.7438 56.128 40.7438 54.94V54.232C40.7438 53.044 41.7278 51.88 43.5038 51.88C45.2798 51.88 46.2638 53.044 46.2638 54.232V54.94C46.2638 56.128 45.2798 57.292 43.5038 57.292ZM43.5038 56.02C44.3558 56.02 44.8598 55.432 44.8598 54.82V54.352C44.8598 53.74 44.3558 53.152 43.5038 53.152C42.6518 53.152 42.1478 53.74 42.1478 54.352V54.82C42.1478 55.432 42.6518 56.02 43.5038 56.02ZM42.7358 48.652H44.2718V50.092H46.6718V51.376H40.2278V50.092H42.7358V48.652ZM60.5096 48.568V59.728H58.9856V48.568H60.5096ZM52.4096 57.436L51.6056 56.236C55.2176 54.088 55.4456 53.476 55.4456 51.7V50.872H51.8096V49.564H56.9696V51.772C56.9696 54.196 56.3936 55 52.4096 57.436Z" fill="#232644"/>
<defs>
<filter id="filter0_d_531_192" x="0" y="0" width="80" height="80" filterUnits="userSpaceOnUse" color-interpolation-filters="sRGB">
<feFlood flood-opacity="0" result="BackgroundImageFix"/>
<feColorMatrix in="SourceAlpha" type="matrix" values="0 0 0 0 0 0 0 0 0 0 0 0 0 0 0 0 0 0 127 0" result="hardAlpha"/>
<feOffset/>
<feGaussianBlur stdDeviation="4"/>
<feComposite in2="hardAlpha" operator="out"/>
<feColorMatrix type="matrix" values="0 0 0 0 0 0 0 0 0 0 0 0 0 0 0 0 0 0 0.15 0"/>
<feBlend mode="normal" in2="BackgroundImageFix" result="effect1_dropShadow_531_192"/>
<feBlend mode="normal" in="SourceGraphic" in2="effect1_dropShadow_531_192" result="shape"/>
</filter>
</defs>
</svg>
