<svg width="232" height="50" viewBox="0 0 232 50" fill="none" xmlns="http://www.w3.org/2000/svg">
<path d="M0 0H232V50H10C4.47715 50 0 45.5228 0 40V0Z" fill="#FFDDAE"/>
<path d="M58.272 28.72V26.352C57.6747 26.2773 57.1253 26.1333 56.624 25.92C56.1227 25.7067 55.6907 25.44 55.328 25.12C54.9653 24.8 54.6827 24.432 54.48 24.016C54.2773 23.6 54.176 23.1413 54.176 22.64V21.904C54.176 21.3387 54.304 20.8267 54.56 20.368C54.816 19.8987 55.1733 19.4987 55.632 19.168C56.0907 18.8373 56.6293 18.5813 57.248 18.4C57.8773 18.2187 58.5547 18.128 59.28 18.128C60.0053 18.128 60.6773 18.2187 61.296 18.4C61.9253 18.5813 62.464 18.8373 62.912 19.168C63.3707 19.4987 63.728 19.8987 63.984 20.368C64.2507 20.8267 64.384 21.3387 64.384 21.904V22.64C64.384 23.1413 64.2827 23.6 64.08 24.016C63.8773 24.432 63.5947 24.8 63.232 25.12C62.8693 25.44 62.4373 25.7067 61.936 25.92C61.4347 26.1333 60.8853 26.2773 60.288 26.352V28.72H66.096V30.432H52.464V28.72H58.272ZM59.28 19.872C58.8533 19.872 58.448 19.9253 58.064 20.032C57.6907 20.128 57.36 20.272 57.072 20.464C56.7947 20.6453 56.5707 20.8693 56.4 21.136C56.24 21.4027 56.16 21.696 56.16 22.016V22.528C56.16 22.848 56.24 23.1413 56.4 23.408C56.5707 23.6747 56.7947 23.904 57.072 24.096C57.36 24.2773 57.6907 24.4213 58.064 24.528C58.448 24.624 58.8533 24.672 59.28 24.672C59.7067 24.672 60.1067 24.624 60.48 24.528C60.864 24.4213 61.1947 24.2773 61.472 24.096C61.76 23.904 61.984 23.6747 62.144 23.408C62.3147 23.1413 62.4 22.848 62.4 22.528V22.016C62.4 21.696 62.3147 21.4027 62.144 21.136C61.984 20.8693 61.76 20.6453 61.472 20.464C61.1947 20.272 60.864 20.128 60.48 20.032C60.1067 19.9253 59.7067 19.872 59.28 19.872ZM78.7545 26.032V29.952H70.8505V30.912H79.1865V32.432H68.8985V28.496H76.8025V27.552H68.8185V26.032H78.7545ZM80.6585 23.472V25.04H67.0265V23.472H80.6585ZM70.9625 17.696V20.848H78.7065V22.416H68.9465V17.696H70.9625ZM97.397 23.184H99.445V24.944H97.397V32.304H95.365V17.424H97.397V23.184ZM90.005 29.056C89.4077 29.056 88.8797 28.9707 88.421 28.8C87.973 28.6187 87.589 28.384 87.269 28.096C86.9597 27.7973 86.725 27.4613 86.565 27.088C86.405 26.704 86.325 26.3147 86.325 25.92V24.976C86.325 24.5813 86.405 24.1973 86.565 23.824C86.725 23.44 86.9597 23.104 87.269 22.816C87.589 22.5173 87.973 22.2827 88.421 22.112C88.8797 21.9307 89.4077 21.84 90.005 21.84C90.5917 21.84 91.1143 21.9307 91.573 22.112C92.0317 22.2827 92.4157 22.5173 92.725 22.816C93.045 23.104 93.285 23.44 93.445 23.824C93.605 24.1973 93.685 24.5813 93.685 24.976V25.92C93.685 26.3147 93.605 26.704 93.445 27.088C93.285 27.4613 93.045 27.7973 92.725 28.096C92.4157 28.384 92.0317 28.6187 91.573 28.8C91.1143 28.9707 90.5917 29.056 90.005 29.056ZM90.005 27.36C90.293 27.36 90.549 27.3173 90.773 27.232C90.997 27.136 91.1837 27.0133 91.333 26.864C91.493 26.7147 91.6103 26.544 91.685 26.352C91.7703 26.16 91.813 25.9627 91.813 25.76V25.136C91.813 24.9333 91.7703 24.736 91.685 24.544C91.6103 24.352 91.493 24.1813 91.333 24.032C91.1837 23.8827 90.997 23.7653 90.773 23.68C90.549 23.584 90.293 23.536 90.005 23.536C89.717 23.536 89.461 23.584 89.237 23.68C89.013 23.7653 88.821 23.8827 88.661 24.032C88.5117 24.1813 88.3943 24.352 88.309 24.544C88.2343 24.736 88.197 24.9333 88.197 25.136V25.76C88.197 25.9627 88.2343 26.16 88.309 26.352C88.3943 26.544 88.5117 26.7147 88.661 26.864C88.821 27.0133 89.013 27.136 89.237 27.232C89.461 27.3173 89.717 27.36 90.005 27.36ZM91.029 17.536V19.456H94.229V21.168H85.637V19.456H88.981V17.536H91.029ZM113.784 26.24V27.936H107.992V32.32H105.96V27.936H100.152V26.24H113.784ZM101.976 25.136V20.816H109.88V19.776H101.928V18.096H111.88V22.432H103.976V23.472H112.216V25.136H101.976ZM126.538 26.288V28.72H132.346V30.432H118.714V28.72H124.522V26.288H120.554V18.448H122.57V20.832H128.49V18.448H130.506V26.288H126.538ZM128.49 24.592V22.544H122.57V24.592H128.49ZM133.997 18.704H141.933V20.432H139.053V22.128C139.053 22.4373 139.069 22.72 139.101 22.976C139.133 23.2213 139.186 23.456 139.261 23.68C139.346 23.904 139.463 24.128 139.613 24.352C139.762 24.576 139.959 24.816 140.205 25.072C140.546 25.4453 140.914 25.8293 141.309 26.224C141.714 26.6187 142.119 26.9973 142.525 27.36L141.229 28.704C140.887 28.384 140.546 28.0587 140.205 27.728C139.863 27.3867 139.543 27.0613 139.245 26.752C138.935 26.4427 138.674 26.1653 138.461 25.92C138.247 25.664 138.114 25.472 138.061 25.344H138.029C137.954 25.4933 137.799 25.7067 137.565 25.984C137.33 26.2613 137.079 26.5387 136.812 26.816C136.514 27.1253 136.205 27.4453 135.885 27.776C135.565 28.096 135.181 28.4587 134.733 28.864L133.405 27.504C134.279 26.7253 135.069 25.952 135.773 25.184C136.007 24.9173 136.205 24.672 136.365 24.448C136.525 24.224 136.653 23.9947 136.749 23.76C136.845 23.5253 136.909 23.28 136.941 23.024C136.983 22.7573 137.005 22.4587 137.005 22.128V20.432H133.997V18.704ZM145.805 32.304H143.773V17.424H145.805V32.304ZM155.967 24.912C155.252 24.912 154.65 24.7947 154.159 24.56C153.679 24.3253 153.29 24.0427 152.991 23.712C152.703 23.3707 152.495 23.0133 152.367 22.64C152.25 22.2667 152.191 21.9413 152.191 21.664V21.088C152.191 20.8107 152.25 20.4853 152.367 20.112C152.495 19.7387 152.703 19.3867 152.991 19.056C153.29 18.7147 153.679 18.4267 154.159 18.192C154.65 17.9573 155.252 17.84 155.967 17.84C156.682 17.84 157.279 17.9573 157.759 18.192C158.25 18.4267 158.639 18.7147 158.927 19.056C159.226 19.3867 159.434 19.7387 159.551 20.112C159.679 20.4853 159.743 20.8107 159.743 21.088V21.664C159.743 21.9413 159.679 22.2667 159.551 22.64C159.434 23.0133 159.226 23.3707 158.927 23.712C158.639 24.0427 158.25 24.3253 157.759 24.56C157.279 24.7947 156.682 24.912 155.967 24.912ZM155.967 19.552C155.626 19.552 155.338 19.6053 155.103 19.712C154.868 19.8187 154.676 19.952 154.527 20.112C154.388 20.272 154.282 20.4427 154.207 20.624C154.143 20.8053 154.111 20.976 154.111 21.136V21.616C154.111 21.776 154.143 21.9467 154.207 22.128C154.282 22.3093 154.388 22.48 154.527 22.64C154.676 22.8 154.868 22.9333 155.103 23.04C155.338 23.1467 155.626 23.2 155.967 23.2C156.298 23.2 156.58 23.1467 156.815 23.04C157.06 22.9333 157.252 22.8 157.391 22.64C157.54 22.48 157.647 22.3093 157.711 22.128C157.786 21.9467 157.823 21.776 157.823 21.616V21.136C157.823 20.976 157.786 20.8053 157.711 20.624C157.647 20.4427 157.54 20.272 157.391 20.112C157.252 19.952 157.06 19.8187 156.815 19.712C156.58 19.6053 156.298 19.552 155.967 19.552ZM163.647 20.336H165.599V22.096H163.647V24.56H161.631V17.424H163.647V20.336ZM155.615 30.416C155.967 30.416 156.33 30.4053 156.703 30.384C157.076 30.3733 157.466 30.3413 157.871 30.288L158.063 31.936C157.871 31.968 157.658 31.9947 157.423 32.016C157.188 32.048 156.943 32.0693 156.687 32.08C156.442 32.1013 156.191 32.112 155.935 32.112C155.69 32.1227 155.46 32.128 155.247 32.128H153.631V26.144H155.615V30.416ZM162.319 26.32H164.799V27.92H157.855V26.32H160.303V25.232H162.319V26.32ZM161.327 32.56C160.911 32.56 160.527 32.512 160.175 32.416C159.823 32.3307 159.519 32.208 159.263 32.048C159.007 31.888 158.804 31.6907 158.655 31.456C158.516 31.2213 158.447 30.96 158.447 30.672V30.192C158.447 29.904 158.516 29.6427 158.655 29.408C158.804 29.1733 159.007 28.976 159.263 28.816C159.519 28.656 159.823 28.5333 160.175 28.448C160.527 28.352 160.911 28.304 161.327 28.304C161.743 28.304 162.127 28.352 162.479 28.448C162.831 28.5333 163.135 28.656 163.391 28.816C163.647 28.976 163.844 29.1733 163.983 29.408C164.132 29.6427 164.207 29.904 164.207 30.192V30.672C164.207 30.96 164.132 31.2213 163.983 31.456C163.844 31.6907 163.647 31.888 163.391 32.048C163.135 32.208 162.831 32.3307 162.479 32.416C162.127 32.512 161.743 32.56 161.327 32.56ZM161.327 29.728C160.954 29.728 160.682 29.792 160.511 29.92C160.34 30.048 160.255 30.1813 160.255 30.32V30.544C160.255 30.6827 160.34 30.816 160.511 30.944C160.682 31.072 160.954 31.136 161.327 31.136C161.7 31.136 161.972 31.072 162.143 30.944C162.314 30.816 162.399 30.6827 162.399 30.544V30.32C162.399 30.1813 162.314 30.048 162.143 29.92C161.972 29.792 161.7 29.728 161.327 29.728ZM178.93 32.304H176.898V17.424H178.93V32.304ZM167.058 27.648C167.858 27.168 168.54 26.7413 169.106 26.368C169.671 25.9947 170.14 25.6533 170.514 25.344C170.898 25.024 171.196 24.7253 171.41 24.448C171.634 24.16 171.799 23.872 171.906 23.584C172.023 23.296 172.098 22.992 172.13 22.672C172.162 22.352 172.178 21.9947 172.178 21.6V20.496H167.33V18.752H174.21V21.696C174.21 22.2293 174.183 22.7147 174.13 23.152C174.076 23.5893 173.97 24 173.81 24.384C173.66 24.7573 173.442 25.12 173.154 25.472C172.876 25.824 172.514 26.192 172.066 26.576C171.618 26.9493 171.068 27.3547 170.418 27.792C169.778 28.2187 169.015 28.704 168.13 29.248L167.058 27.648Z" fill="white"/>
</svg>
