<svg width="40" height="40" viewBox="0 0 40 40" fill="none" xmlns="http://www.w3.org/2000/svg">
<g clip-path="url(#clip0_81_381)">
<path d="M20 40C31.0457 40 40 31.0457 40 20C40 8.9543 31.0457 0 20 0C8.9543 0 0 8.9543 0 20C0 31.0457 8.9543 40 20 40Z" fill="#232644"/>
<path d="M27.922 10H12.07C9.827 10 8 11.875 8 14.16V24.23C8 26.522 9.835 28.39 12.07 28.39H17.668L18.631 30.091L19.58 31.769C19.75 32.077 20.181 32.077 20.359 31.769L21.307 30.091L22.27 28.39H27.93C30.173 28.39 32 26.514 32 24.23V14.167C32 11.875 30.165 10 27.922 10Z" fill="white"/>
<path d="M21.127 17.3721C19.879 17.3721 18.867 18.3691 18.867 19.6021C18.867 20.8341 19.879 21.8301 21.127 21.8301C22.374 21.8301 23.387 20.8341 23.387 19.6011C23.387 18.3691 22.382 17.3721 21.127 17.3721ZM21.127 20.6691C20.8419 20.6707 20.5678 20.5592 20.3647 20.359C20.1617 20.1587 20.0464 19.8862 20.044 19.6011C20.044 19.0121 20.53 18.5341 21.127 18.5341C21.723 18.5341 22.209 19.0121 22.209 19.6011C22.209 20.1901 21.731 20.6691 21.127 20.6691ZM13.978 17.3721C13.491 17.3721 13.036 17.5601 12.683 17.8821V16.0371H11.428V21.7281H12.683V21.3281C13.036 21.6421 13.483 21.8381 13.978 21.8381C15.1 21.8381 16.01 20.8411 16.01 19.6081C16.01 18.3761 15.107 17.3721 13.978 17.3721ZM13.726 20.7151C13.4286 20.7167 13.1427 20.6003 12.9309 20.3915C12.7191 20.1827 12.5986 19.8985 12.596 19.6011C12.596 19.4441 12.628 19.2951 12.691 19.1611C12.863 18.7611 13.264 18.4861 13.726 18.4861C14.354 18.4861 14.856 18.9811 14.856 19.6011C14.856 20.2211 14.354 20.7151 13.726 20.7151ZM27.3 17.4661V17.8191C26.9398 17.5358 26.4953 17.3809 26.037 17.3791C24.884 17.3791 23.95 18.3451 23.95 19.5301C23.95 20.7151 24.884 21.6811 26.037 21.6811C26.516 21.6811 26.955 21.5161 27.3 21.2411V21.8381C27.3 21.8381 27.175 22.4271 26.296 22.4271V23.5341C26.296 23.5341 27.246 23.6441 28.093 22.7961C28.093 22.7961 28.485 22.3801 28.571 21.8301V17.4661H27.301H27.3ZM26.273 20.6211C25.637 20.6211 25.127 20.1271 25.127 19.5221C25.127 18.9181 25.645 18.4241 26.273 18.4241C26.72 18.4241 27.112 18.6741 27.3 19.0361C27.379 19.1851 27.418 19.3501 27.418 19.5221C27.418 19.6951 27.371 19.8681 27.3 20.0091C27.112 20.3781 26.72 20.6211 26.273 20.6211ZM16.15 15.9271V17.0661C16.15 17.0661 16.731 17.1441 16.84 17.7091V21.7291H18.135V17.6771C18.057 17.1121 17.719 16.6871 17.719 16.6871C16.982 15.8171 16.15 15.9271 16.15 15.9271Z" fill="#232644"/>
</g>
<defs>
<clipPath id="clip0_81_381">
<rect width="40" height="40" fill="white"/>
</clipPath>
</defs>
</svg>
