<svg width="40" height="40" viewBox="0 0 40 40" fill="none" xmlns="http://www.w3.org/2000/svg">
<g clip-path="url(#clip0_81_385)">
<path d="M20 40C31.0457 40 40 31.0457 40 20C40 8.9543 31.0457 0 20 0C8.9543 0 0 8.9543 0 20C0 31.0457 8.9543 40 20 40Z" fill="#232644"/>
<path d="M20.006 10.981C22.947 10.981 23.296 10.994 24.452 11.046C25.527 11.093 26.107 11.274 26.494 11.424C27.006 11.622 27.376 11.862 27.758 12.244C28.145 12.632 28.382 12.997 28.579 13.508C28.729 13.895 28.91 14.48 28.958 15.55C29.009 16.71 29.022 17.058 29.022 19.994C29.022 22.934 29.009 23.281 28.958 24.437C28.911 25.512 28.73 26.092 28.579 26.479C28.4034 26.956 28.1232 27.3875 27.759 27.742C27.4044 28.1073 26.972 28.3879 26.494 28.563C26.107 28.713 25.523 28.894 24.452 28.941C23.292 28.993 22.942 29.006 20.006 29.006C17.066 29.006 16.717 28.993 15.561 28.941C14.486 28.894 13.906 28.714 13.519 28.563C13.0417 28.3875 12.6098 28.1073 12.255 27.743C11.8894 27.3888 11.6085 26.9568 11.433 26.479C11.283 26.092 11.103 25.508 11.055 24.437C11.004 23.277 10.991 22.929 10.991 19.994C10.991 17.054 11.004 16.706 11.055 15.55C11.102 14.475 11.283 13.895 11.434 13.508C11.631 12.997 11.872 12.628 12.254 12.245C12.6086 11.8797 13.041 11.5991 13.519 11.424C13.906 11.274 14.49 11.093 15.561 11.046C16.717 10.994 17.066 10.981 20.006 10.981ZM20.006 9C17.018 9 16.644 9.013 15.471 9.064C14.301 9.116 13.497 9.305 12.801 9.576C12.0651 9.85213 11.3988 10.2863 10.849 10.848C10.288 11.3966 9.85359 12.0611 9.576 12.795C9.306 13.495 9.116 14.295 9.064 15.464C9.013 16.64 9 17.015 9 20.002C9 22.989 9.013 23.363 9.064 24.536C9.116 25.706 9.305 26.509 9.576 27.206C9.85259 27.9413 10.2871 28.6069 10.849 29.156C11.3979 29.7154 12.0624 30.1482 12.796 30.424C13.497 30.694 14.296 30.884 15.466 30.936C16.64 30.987 17.014 31 20.002 31C22.99 31 23.364 30.987 24.538 30.936C25.708 30.884 26.511 30.695 27.208 30.424C27.942 30.1483 28.6068 29.7156 29.156 29.156C29.766 28.546 30.144 27.931 30.424 27.209C30.694 26.509 30.884 25.709 30.936 24.541C30.987 23.367 31 22.993 31 20.006C31 17.02 30.987 16.646 30.936 15.472C30.884 14.303 30.695 13.5 30.424 12.804C30.1586 12.0645 29.7276 11.3954 29.164 10.848C28.6148 10.2884 27.95 9.85568 27.216 9.58C26.516 9.31 25.716 9.12 24.546 9.069C23.37 9.013 22.994 9 20.006 9Z" fill="white"/>
<path d="M20.007 14.3499C18.5078 14.3499 17.07 14.9453 16.0097 16.0052C14.9495 17.0651 14.3535 18.5027 14.353 20.0019C14.353 21.5014 14.9487 22.9395 16.009 23.9999C17.0693 25.0602 18.5075 25.6559 20.007 25.6559C21.5065 25.6559 22.9447 25.0602 24.005 23.9999C25.0653 22.9395 25.661 21.5014 25.661 20.0019C25.6602 18.5029 25.0642 17.0655 24.0039 16.0058C22.9437 14.9462 21.506 14.3499 20.007 14.3499ZM20.007 23.6679C19.0346 23.6679 18.1021 23.2817 17.4144 22.5942C16.7267 21.9067 16.3403 20.9743 16.34 20.0019C16.34 19.0293 16.7263 18.0966 17.414 17.4089C18.1017 16.7212 19.0345 16.3349 20.007 16.3349C20.9795 16.3349 21.9123 16.7212 22.6 17.4089C23.2877 18.0966 23.674 19.0293 23.674 20.0019C23.6737 20.9743 23.2873 21.9067 22.5996 22.5942C21.9119 23.2817 20.9794 23.6679 20.007 23.6679ZM27.205 14.1269C27.205 14.477 27.0659 14.8127 26.8184 15.0603C26.5708 15.3078 26.2351 15.4469 25.885 15.4469C25.5349 15.4469 25.1992 15.3078 24.9516 15.0603C24.7041 14.8127 24.565 14.477 24.565 14.1269C24.565 13.7768 24.7041 13.4411 24.9516 13.1935C25.1992 12.946 25.5349 12.8069 25.885 12.8069C26.2351 12.8069 26.5708 12.946 26.8184 13.1935C27.0659 13.4411 27.205 13.7768 27.205 14.1269Z" fill="white"/>
</g>
<defs>
<clipPath id="clip0_81_385">
<rect width="40" height="40" fill="white"/>
</clipPath>
</defs>
</svg>
