<svg width="164" height="32" viewBox="0 0 164 32" fill="none" xmlns="http://www.w3.org/2000/svg">
<g clip-path="url(#clip0_33_458)">
<path d="M6.47002 7.70764C4.69002 6.9547 4.27002 6.2513 4.27002 4.95347C4.27002 3.3287 5.12002 2.76399 6.38002 2.76399C7.12002 2.76399 7.89002 2.93241 8.57002 3.1999C8.99002 3.36833 9.40002 3.59619 9.87002 3.8835L10.34 2.85316C9.57002 2.53613 8.18002 2.04077 6.42002 2.04077C3.89002 2.04077 0.85002 3.08102 0.85002 6.10269C0.85002 8.66864 2.62002 9.61972 4.44002 10.4717C6.38002 11.3634 7.42002 11.7894 7.42002 13.6123C7.42002 14.9993 6.74002 15.8711 5.19002 15.9702C5.12002 15.1479 4.86002 13.7609 3.90002 12.8891C2.47002 11.5813 1.97957e-05 11.9182 1.97957e-05 11.9182C1.97957e-05 11.9182 -0.0999802 13.7906 0.83002 15.138C0.96002 15.3361 1.12002 15.5343 1.31002 15.7027C1.66002 16.0197 2.07002 16.2377 2.49002 16.3962C2.50002 16.3962 2.52002 16.4061 2.53002 16.4061C3.33002 16.6934 4.16002 16.7231 4.68002 16.7033C4.77002 16.7033 4.86002 16.7033 4.95002 16.7033C8.53002 16.7033 10.85 14.8804 10.85 12.364C10.85 9.84758 8.73002 8.64882 6.47002 7.69774V7.70764Z" fill="#232644"/>
<path d="M19.3 5.16162C17.8 5.16162 16.68 5.87493 15.89 7.09351H15.77L15.95 5.2706L12.5 5.44893L12.6 6.59815V20.3096L12.5 21.4985L16.18 21.2904L16.08 20.27V16.5449C16.61 16.6836 17.06 16.7232 17.58 16.7232C21.53 16.7232 23.7 14.405 23.7 10.5313C23.7 6.96472 22 5.17153 19.3 5.17153V5.16162ZM17.5 16C16.97 16 16.53 15.9208 16.07 15.7821V7.53933C16.58 6.98453 17.33 6.47927 18.1 6.47927C19.37 6.47927 20.04 7.38082 20.04 10.8186C20.04 15.1084 18.84 16 17.5 16Z" fill="#232644"/>
<path d="M43.39 5.79561C43.99 5.79561 44.38 5.89468 44.83 6.14236C45.16 6.3306 45.54 6.59809 45.94 6.91512L46.5 5.93431C45.66 5.42905 44.68 5.13184 43.14 5.13184C39.16 5.13184 37.07 8.05444 37.07 11.2049C37.07 14.3554 39.18 16.7133 42.32 16.7133C44.55 16.7133 45.81 15.6829 46.47 15.1281L46.24 14.6625C45.7 14.9894 44.88 15.2569 44.13 15.2569C41.93 15.2569 41.12 13.325 41.12 10.5411C41.12 7.3114 42.15 5.79561 43.4 5.79561H43.39Z" fill="#232644"/>
<path d="M52.94 5.13184C49.48 5.13184 47.33 7.5789 47.33 11.0761C47.33 13.9888 48.8 16.7034 52.78 16.7034C55.03 16.7034 56.48 15.8414 57.39 15.0984L57.16 14.6526C56.42 15.0489 55.6 15.3064 54.6 15.3064C51.93 15.3064 51.13 13.6619 51.07 10.7492H57.78L57.85 10.6996C57.9 10.5213 57.97 10.3133 57.97 9.76837C57.97 7.23215 56.51 5.13184 52.94 5.13184ZM54.72 10.125L51.08 10.2538C51.21 7.38075 51.77 5.75598 53.17 5.75598C54.27 5.75598 54.72 6.51883 54.72 8.06434C54.72 8.24267 54.72 9.50088 54.72 10.1151V10.125Z" fill="#232644"/>
<path d="M79.47 3.41788L79.51 2.27856H75.93L72.17 12.3937H72.01L68.28 2.27856H64.46L64.5 3.41788L63.84 15.1875L63.66 16.4557H64.94L64.9 15.1875L65.4 4.79497H65.57L69.77 16.0396H71.84L76.06 4.88414H76.21L76.19 6.51881L76.66 15.1875L76.63 16.4557H80.31L80.12 15.1776L79.47 3.41788Z" fill="#232644"/>
<path d="M88.01 5.13184C83.77 5.13184 81.87 8.06434 81.87 11.1455C81.87 14.4643 84.13 16.7133 87.69 16.7133C91.69 16.7133 93.83 13.9591 93.83 10.769C93.83 7.57889 91.57 5.13184 88.01 5.13184ZM87.88 16.0099C86.34 16.0099 85.61 14.2563 85.61 10.8284C85.61 7.14298 86.48 5.7758 87.76 5.7758C89.23 5.7758 90.07 7.5789 90.07 10.9869C90.07 14.2167 89.33 15.9999 87.88 15.9999V16.0099Z" fill="#232644"/>
<path d="M105.28 10.125C105.28 7.53927 105.28 5.13184 100.77 5.13184C98.33 5.13184 96.79 5.83524 95.86 6.3306L96.14 6.91512C96.66 6.67735 97.02 6.53865 97.44 6.43958C97.95 6.32069 98.44 6.27115 98.96 6.27115C100.95 6.27115 101.65 7.07363 101.65 8.89654V9.87735C99.23 9.87735 95.11 10.2934 95.11 13.6024C95.11 14.9399 95.77 16.7232 98 16.7232C100.03 16.7232 101.14 15.7523 101.9 14.7021H102.03L101.87 16.5944L105.39 16.3962L105.28 15.1975V10.1349V10.125ZM101.65 13.0575C101.55 13.3845 101.4 13.7114 101.17 13.9888C100.71 14.5535 100.02 14.8606 99.37 15.029C98.47 15.2668 97.65 15.2272 97.65 15.2272C97.65 15.2272 97.01 12.9089 98.12 11.5517C98.7 10.8383 99.64 10.5312 100.4 10.4123C100.42 10.4123 100.43 10.4024 100.44 10.4024C100.59 10.3727 100.74 10.3529 100.91 10.343C100.96 10.343 101 10.343 101.05 10.3331C101.23 10.3232 101.37 10.3133 101.47 10.3133C101.52 10.3133 101.58 10.3133 101.64 10.3133C101.64 10.3133 101.99 11.9182 101.64 13.0575H101.65Z" fill="#232644"/>
<path d="M35.15 10.125C35.15 7.53927 35.15 5.13184 30.64 5.13184C28.2 5.13184 26.66 5.83524 25.73 6.3306L26.01 6.91512C26.53 6.67735 26.89 6.53865 27.31 6.43958C27.82 6.32069 28.31 6.27115 28.83 6.27115C30.82 6.27115 31.52 7.07363 31.52 8.89654V9.87735C29.1 9.87735 24.98 10.2934 24.98 13.6024C24.98 14.9399 25.64 16.7232 27.87 16.7232C29.9 16.7232 31.01 15.7523 31.77 14.7021H31.9L31.74 16.5944L35.26 16.3962L35.15 15.1975V10.1349V10.125ZM31.52 13.0575C31.42 13.3845 31.27 13.7114 31.04 13.9888C30.58 14.5535 29.89 14.8606 29.24 15.029C28.34 15.2668 27.52 15.2272 27.52 15.2272C27.52 15.2272 26.88 12.9089 27.99 11.5517C28.57 10.8383 29.51 10.5312 30.27 10.4123C30.29 10.4123 30.3 10.4024 30.31 10.4024C30.46 10.3727 30.61 10.3529 30.78 10.343C30.83 10.343 30.87 10.343 30.92 10.3331C31.1 10.3232 31.24 10.3133 31.34 10.3133C31.39 10.3133 31.45 10.3133 31.51 10.3133C31.51 10.3133 31.86 11.9182 31.51 13.0575H31.52Z" fill="#232644"/>
<path d="M117.74 10.125C117.74 7.53927 117.74 5.13184 113.23 5.13184C110.79 5.13184 109.25 5.83524 108.32 6.3306L108.6 6.91512C109.12 6.67735 109.48 6.53865 109.9 6.43958C110.41 6.32069 110.9 6.27115 111.42 6.27115C113.41 6.27115 114.11 7.07363 114.11 8.89654V9.87735C111.69 9.87735 107.57 10.2934 107.57 13.6024C107.57 14.9399 108.23 16.7232 110.46 16.7232C112.49 16.7232 113.6 15.7523 114.36 14.7021H114.49L114.33 16.5944L117.85 16.3962L117.74 15.1975V10.1349V10.125ZM114.11 13.0575C114.01 13.3845 113.86 13.7114 113.63 13.9888C113.17 14.5535 112.48 14.8606 111.83 15.029C110.93 15.2668 110.11 15.2272 110.11 15.2272C110.11 15.2272 109.47 12.9089 110.58 11.5517C111.16 10.8383 112.1 10.5312 112.86 10.4123C112.88 10.4123 112.89 10.4024 112.9 10.4024C113.05 10.3727 113.2 10.3529 113.37 10.343C113.42 10.343 113.46 10.343 113.51 10.3331C113.69 10.3232 113.83 10.3133 113.93 10.3133C113.98 10.3133 114.04 10.3133 114.1 10.3133C114.1 10.3133 114.45 11.9182 114.1 13.0575H114.11Z" fill="#232644"/>
<path d="M126.84 5.16161C125.4 5.16161 124.33 5.79567 123.44 7.08359H123.31L123.6 5.37957V0L120.04 0.188235L120.14 1.26811V15.1777L120.04 16.1486C121.2 16.4161 122.68 16.7133 125.12 16.7133C129.14 16.7133 131.25 14.3752 131.25 10.5313C131.25 6.92508 129.54 5.17152 126.84 5.17152V5.16161ZM125.04 16C124.6 16 124.17 15.9505 123.61 15.8118V7.53932C124.12 6.99443 124.86 6.47926 125.65 6.47926C126.91 6.47926 127.59 7.34118 127.59 10.7889C127.59 15.0985 126.41 16 125.04 16Z" fill="#232644"/>
<path d="M138.74 5.13184C134.5 5.13184 132.6 8.06434 132.6 11.1455C132.6 14.4643 134.86 16.7133 138.42 16.7133C142.42 16.7133 144.56 13.9591 144.56 10.769C144.56 7.57889 142.3 5.13184 138.74 5.13184ZM138.61 16.0099C137.07 16.0099 136.34 14.2563 136.34 10.8284C136.34 7.14298 137.21 5.7758 138.49 5.7758C139.96 5.7758 140.8 7.5789 140.8 10.9869C140.8 14.2167 140.06 15.9999 138.6 15.9999L138.61 16.0099Z" fill="#232644"/>
<path d="M160.24 16.4557H164L163.9 15.1876V8.53989C163.9 6.3405 163.2 5.13184 160.79 5.13184C158.62 5.13184 157.54 6.3405 156.84 7.20242H156.7C156.38 5.86496 155.48 5.13184 153.86 5.13184C151.72 5.13184 150.66 6.37023 150 7.20242H149.88L150.06 5.28044L146.58 5.45877L146.69 6.52874V15.1975L146.57 16.4656H150.33L150.23 15.1975V7.54917C150.76 7.13307 151.26 6.82595 152.15 6.82595C153.41 6.82595 153.5 7.77704 153.5 8.84701V15.1975L153.4 16.4656H157.15L157.05 15.1975V7.54917C157.64 7.12317 158.12 6.82595 159.01 6.82595C160.27 6.82595 160.36 7.84639 160.36 9.00552V15.1975L160.26 16.4656L160.24 16.4557Z" fill="#232644"/>
<path d="M44.5 28.7605C45.9 28.1165 46.93 27.3735 47.55 26.5611L50.83 28.7605L50.88 28.7902L51.44 27.9283L48.05 25.6793C48.2 25.293 48.28 24.8769 48.28 24.4509V23.7375H47.24V24.4509C47.24 25.7487 46.22 26.8385 44.03 27.8688L43.98 27.8886L44.46 28.7803L44.51 28.7605H44.5Z" fill="#232644"/>
<path d="M51.84 30.395H43.57V31.3461H51.84V30.395Z" fill="#232644"/>
<path d="M61.99 23.2817H60.97V31.9901H61.99V23.2817Z" fill="#232644"/>
<path d="M58.64 29.4241C58.35 29.4638 58.07 29.4935 57.78 29.5232V24.8768H58.46V23.9158H54.25V24.8768H54.94V29.6421H54.18L54.23 30.6031H55.33C56.45 30.6031 57.72 30.5139 58.73 30.3554H58.78L58.68 29.4142H58.63L58.64 29.4241ZM56.84 24.8768V29.6025H56.8C56.48 29.6223 56.18 29.6322 55.89 29.6322V24.8768H56.84Z" fill="#232644"/>
<path d="M59.16 26.6006H58.12V27.5517H59.16V31.8216H60.15V23.4204H59.16V26.6006Z" fill="#232644"/>
<path d="M72.59 23.2817H71.55V31.9901H72.59V23.2817Z" fill="#232644"/>
<path d="M67.74 23.6978C66.24 23.6978 65.37 24.7677 65.37 26.6303V27.938C65.37 29.8005 66.23 30.8705 67.74 30.8705C69.25 30.8705 70.09 29.8005 70.09 27.938V26.6303C70.09 24.7677 69.24 23.6978 67.74 23.6978ZM69.05 26.6402V27.9281C69.05 29.2358 68.6 29.9194 67.74 29.9194C66.88 29.9194 66.42 29.216 66.42 27.9281V26.6402C66.42 25.3324 66.88 24.6488 67.74 24.6488C68.6 24.6488 69.05 25.3423 69.05 26.6402Z" fill="#232644"/>
<path d="M84.06 30.395H75.79V31.3461H84.06V30.395Z" fill="#232644"/>
<path d="M76.71 28.7605C78.11 28.1165 79.14 27.3735 79.76 26.5611L83.04 28.7605L83.09 28.7902L83.65 27.9283L80.25 25.6793C80.4 25.293 80.48 24.8769 80.48 24.4509V23.7375H79.44V24.4509C79.44 25.7487 78.42 26.8385 76.23 27.8688L76.18 27.8886L76.66 28.7803L76.71 28.7605Z" fill="#232644"/>
<path d="M95.34 28.4928H97.96V23.8662H91.69V28.4928H94.31V30.395H90.69V31.356H98.96V30.395H95.35V28.4928H95.34ZM96.92 24.8173V27.5517H92.73V24.8173H96.92Z" fill="#232644"/>
<path d="M108.48 23.2817H107.44V32H108.48V27.4725H109.83V26.5214H108.48V23.2817Z" fill="#232644"/>
<path d="M103.81 23.6978C102.34 23.6978 101.49 24.7677 101.49 26.6303V27.938C101.49 29.8005 102.34 30.8705 103.81 30.8705C105.28 30.8705 106.11 29.8005 106.11 27.938V26.6303C106.11 24.7677 105.27 23.6978 103.81 23.6978ZM103.81 24.6488C104.64 24.6488 105.08 25.3423 105.08 26.6402V27.9281C105.08 29.216 104.63 29.9194 103.81 29.9194C102.99 29.9194 102.54 29.2259 102.54 27.9281V26.6402C102.54 25.3324 102.98 24.6488 103.81 24.6488Z" fill="#232644"/>
<path d="M113.16 32.0001H119.43V29.0874H113.16V32.0001ZM118.39 29.9493V31.1184H114.2V29.9493H118.39Z" fill="#232644"/>
<path d="M116.82 27.5021V26.7987H119.35V23.4204H118.31V24.3418H114.3V23.4204H113.26V26.7987H115.8V27.5021H112.18V28.4037H120.45V27.5021H116.84H116.82ZM114.29 25.9467V25.2136H118.3V25.9467H114.29Z" fill="#232644"/>
</g>
<defs>
<clipPath id="clip0_33_458">
<rect width="164" height="32" fill="white"/>
</clipPath>
</defs>
</svg>
