<svg width="164" height="32" viewBox="0 0 164 32" fill="none" xmlns="http://www.w3.org/2000/svg">
<g clip-path="url(#clip0_5_37)">
<path d="M48.66 12.56C47.35 11.99 47.05 11.44 47.05 10.45C47.05 9.20996 47.67 8.76996 48.59 8.76996C49.13 8.76996 49.7 8.89996 50.19 9.09996C50.5 9.22996 50.8 9.39996 51.14 9.61996L51.49 8.82996C50.93 8.57996 49.91 8.20996 48.62 8.20996C46.77 8.20996 44.55 9.00996 44.55 11.32C44.55 13.29 45.85 14.01 47.18 14.66C48.6 15.34 49.36 15.67 49.36 17.06C49.36 18.12 48.86 18.79 47.73 18.87C47.68 18.24 47.48 17.18 46.79 16.51C45.74 15.51 43.93 15.77 43.93 15.77C43.93 15.77 43.86 17.2 44.54 18.24C44.64 18.39 44.75 18.54 44.89 18.67C45.15 18.91 45.44 19.08 45.75 19.2C45.75 19.2 45.77 19.2 45.78 19.2C46.37 19.42 46.97 19.44 47.36 19.43C47.42 19.43 47.49 19.43 47.56 19.43C50.18 19.43 51.88 18.03 51.88 16.11C51.88 14.19 50.33 13.27 48.68 12.54L48.66 12.56Z" fill="#232644"/>
<path d="M58.06 10.6199C56.96 10.6199 56.14 11.1699 55.56 12.0999H55.48L55.61 10.6999L53.08 10.8299L53.16 11.7099V22.1999L53.08 23.1099L55.78 22.9499L55.7 22.1699V19.3199C56.09 19.4199 56.42 19.4599 56.8 19.4599C59.69 19.4599 61.28 17.6799 61.28 14.7199C61.28 11.9899 60.04 10.6099 58.06 10.6099V10.6199ZM56.75 18.9199C56.36 18.9199 56.04 18.8599 55.7 18.7499V12.4399C56.07 12.0199 56.62 11.6299 57.18 11.6299C58.11 11.6299 58.6 12.3199 58.6 14.9499C58.6 18.2399 57.72 18.9099 56.74 18.9099L56.75 18.9199Z" fill="#232644"/>
<path d="M75.69 11.0998C76.13 11.0998 76.41 11.1798 76.74 11.3598C76.99 11.5098 77.26 11.7098 77.55 11.9498L77.96 11.1998C77.34 10.8198 76.63 10.5898 75.5 10.5898C72.59 10.5898 71.06 12.8298 71.06 15.2398C71.06 17.6498 72.6 19.4498 74.9 19.4498C76.54 19.4498 77.46 18.6598 77.94 18.2398L77.77 17.8798C77.37 18.1298 76.78 18.3298 76.23 18.3298C74.62 18.3298 74.02 16.8498 74.02 14.7198C74.02 12.2498 74.77 11.0898 75.69 11.0898V11.0998Z" fill="#232644"/>
<path d="M82.69 10.5898C80.15 10.5898 78.59 12.4598 78.59 15.1398C78.59 17.3698 79.67 19.4498 82.58 19.4498C84.22 19.4498 85.29 18.7898 85.95 18.2198L85.78 17.8798C85.24 18.1798 84.63 18.3798 83.9 18.3798C81.94 18.3798 81.36 17.1198 81.32 14.8898H86.23L86.28 14.8498C86.32 14.7098 86.36 14.5498 86.36 14.1298C86.36 12.1898 85.29 10.5798 82.68 10.5798L82.69 10.5898ZM83.99 14.4098L81.33 14.5098C81.42 12.3098 81.84 11.0698 82.86 11.0698C83.67 11.0698 84 11.6498 84 12.8398C84 12.9698 84 13.9398 84 14.4098H83.99Z" fill="#232644"/>
<path d="M102.11 9.27991L102.14 8.40991H99.52L96.77 16.1499H96.65L93.92 8.40991H91.12L91.15 9.27991L90.66 18.2899L90.54 19.2599H91.47L91.44 18.2899L91.81 10.3399H91.93L95.01 18.9399H96.52L99.61 10.3999H99.73L99.71 11.6599L100.06 18.2899L100.03 19.2599H102.73L102.58 18.2799L102.11 9.27991Z" fill="#232644"/>
<path d="M108.37 10.5898C105.26 10.5898 103.87 12.8298 103.87 15.1898C103.87 17.7298 105.52 19.4498 108.13 19.4498C111.06 19.4498 112.63 17.3398 112.63 14.8998C112.63 12.4598 110.98 10.5898 108.37 10.5898ZM108.28 18.9198C107.15 18.9198 106.62 17.5698 106.62 14.9598C106.62 12.1398 107.26 11.0998 108.2 11.0998C109.27 11.0998 109.89 12.4798 109.89 15.0898C109.89 17.5598 109.35 18.9298 108.29 18.9298L108.28 18.9198Z" fill="#232644"/>
<path d="M121.01 14.4098C121.01 12.4298 121.01 10.5898 117.71 10.5898C115.92 10.5898 114.8 11.1298 114.12 11.5098L114.33 11.9598C114.71 11.7798 114.98 11.6698 115.28 11.5898C115.65 11.4998 116.01 11.4598 116.39 11.4598C117.85 11.4598 118.36 12.0698 118.36 13.4698V14.2198C116.59 14.2198 113.57 14.5398 113.57 17.0698C113.57 18.0898 114.05 19.4598 115.69 19.4598C117.17 19.4598 117.99 18.7198 118.54 17.9198H118.63L118.51 19.3698L121.09 19.2198L121.01 18.2998V14.4198V14.4098ZM118.35 16.6498C118.28 16.8998 118.17 17.1498 118 17.3698C117.66 17.7998 117.16 18.0398 116.68 18.1698C116.02 18.3498 115.42 18.3198 115.42 18.3198C115.42 18.3198 114.95 16.5498 115.76 15.5098C116.18 14.9598 116.87 14.7298 117.43 14.6398C117.44 14.6398 117.45 14.6398 117.46 14.6398C117.57 14.6198 117.68 14.5998 117.8 14.5898C117.84 14.5898 117.87 14.5898 117.9 14.5898C118.03 14.5898 118.13 14.5798 118.21 14.5798C118.25 14.5798 118.29 14.5798 118.33 14.5798C118.33 14.5798 118.59 15.8098 118.33 16.6798L118.35 16.6498Z" fill="#232644"/>
<path d="M69.66 14.4098C69.66 12.4298 69.66 10.5898 66.36 10.5898C64.57 10.5898 63.45 11.1298 62.77 11.5098L62.98 11.9598C63.36 11.7798 63.63 11.6698 63.93 11.5898C64.3 11.4998 64.66 11.4598 65.04 11.4598C66.5 11.4598 67.01 12.0698 67.01 13.4698V14.2198C65.24 14.2198 62.22 14.5398 62.22 17.0698C62.22 18.0898 62.7 19.4598 64.34 19.4598C65.82 19.4598 66.64 18.7198 67.19 17.9198H67.28L67.16 19.3698L69.74 19.2198L69.66 18.2998V14.4198V14.4098ZM67 16.6498C66.93 16.8998 66.82 17.1498 66.65 17.3698C66.31 17.7998 65.81 18.0398 65.33 18.1698C64.67 18.3498 64.07 18.3198 64.07 18.3198C64.07 18.3198 63.6 16.5498 64.41 15.5098C64.83 14.9598 65.52 14.7298 66.08 14.6398C66.09 14.6398 66.1 14.6398 66.11 14.6398C66.22 14.6198 66.33 14.5998 66.45 14.5898C66.49 14.5898 66.52 14.5898 66.55 14.5898C66.68 14.5898 66.78 14.5798 66.86 14.5798C66.9 14.5798 66.94 14.5798 66.98 14.5798C66.98 14.5798 67.24 15.8098 66.98 16.6798L67 16.6498Z" fill="#232644"/>
<path d="M130.13 14.4098C130.13 12.4298 130.13 10.5898 126.83 10.5898C125.04 10.5898 123.92 11.1298 123.24 11.5098L123.45 11.9598C123.83 11.7798 124.1 11.6698 124.4 11.5898C124.77 11.4998 125.13 11.4598 125.51 11.4598C126.97 11.4598 127.48 12.0698 127.48 13.4698V14.2198C125.71 14.2198 122.69 14.5398 122.69 17.0698C122.69 18.0898 123.17 19.4598 124.81 19.4598C126.29 19.4598 127.11 18.7198 127.66 17.9198H127.75L127.63 19.3698L130.21 19.2198L130.13 18.2998V14.4198V14.4098ZM127.47 16.6498C127.4 16.8998 127.29 17.1498 127.12 17.3698C126.78 17.7998 126.28 18.0398 125.8 18.1698C125.14 18.3498 124.54 18.3198 124.54 18.3198C124.54 18.3198 124.07 16.5498 124.88 15.5098C125.3 14.9598 125.99 14.7298 126.55 14.6398C126.56 14.6398 126.57 14.6398 126.58 14.6398C126.69 14.6198 126.8 14.5998 126.92 14.5898C126.96 14.5898 126.99 14.5898 127.02 14.5898C127.15 14.5898 127.25 14.5798 127.33 14.5798C127.37 14.5798 127.41 14.5798 127.45 14.5798C127.45 14.5798 127.71 15.8098 127.45 16.6798L127.47 16.6498Z" fill="#232644"/>
<path d="M136.79 10.6199C135.74 10.6199 134.95 11.0999 134.3 12.0899H134.21L134.42 10.7899V6.66992L131.81 6.81992L131.89 7.64992V18.2899L131.81 19.0299C132.66 19.2299 133.74 19.4599 135.53 19.4599C138.47 19.4599 140.02 17.6699 140.02 14.7299C140.02 11.9699 138.77 10.6199 136.79 10.6199ZM135.48 18.9199C135.16 18.9199 134.84 18.8799 134.43 18.7699V12.4399C134.8 12.0199 135.35 11.6299 135.92 11.6299C136.84 11.6299 137.34 12.2899 137.34 14.9299C137.34 18.2299 136.48 18.9199 135.47 18.9199H135.48Z" fill="#232644"/>
<path d="M145.5 10.5898C142.4 10.5898 141.01 12.8298 141.01 15.1898C141.01 17.7298 142.66 19.4498 145.27 19.4498C148.2 19.4498 149.77 17.3398 149.77 14.8998C149.77 12.4598 148.11 10.5898 145.51 10.5898H145.5ZM145.41 18.9198C144.28 18.9198 143.75 17.5698 143.75 14.9598C143.75 12.1398 144.39 11.0998 145.33 11.0998C146.41 11.0998 147.02 12.4798 147.02 15.0898C147.02 17.5598 146.48 18.9298 145.41 18.9298V18.9198Z" fill="#232644"/>
<path d="M161.25 19.2598H164L163.92 18.2898V13.1998C163.92 11.5098 163.41 10.5898 161.64 10.5898C160.05 10.5898 159.26 11.5098 158.75 12.1698H158.65C158.42 11.1498 157.76 10.5898 156.57 10.5898C155 10.5898 154.23 11.5398 153.74 12.1698H153.66L153.79 10.6998L151.25 10.8298L151.33 11.6498V18.2798L151.24 19.2498H153.99L153.91 18.2798V12.4198C154.3 12.0998 154.66 11.8698 155.32 11.8698C156.24 11.8698 156.31 12.5898 156.31 13.4198V18.2798L156.23 19.2498H158.98L158.9 18.2798V12.4198C159.33 12.0998 159.68 11.8698 160.34 11.8698C161.26 11.8698 161.32 12.6498 161.32 13.5398V18.2798L161.24 19.2498L161.25 19.2598Z" fill="#232644"/>
<path d="M76.51 28.6801C77.54 28.1901 78.29 27.6201 78.74 27.0001L81.14 28.6801L81.17 28.7001L81.58 28.0401L79.09 26.3201C79.2 26.0201 79.26 25.7101 79.26 25.3801V24.8401H78.5V25.3801C78.5 26.3701 77.75 27.2001 76.15 28.0001L76.11 28.0201L76.46 28.7001L76.49 28.6801H76.51Z" fill="#232644"/>
<path d="M81.88 29.9299H75.83V30.6599H81.88V29.9299Z" fill="#232644"/>
<path d="M89.31 24.49H88.57V31.16H89.31V24.49Z" fill="#232644"/>
<path d="M86.86 29.19C86.65 29.22 86.44 29.24 86.23 29.26V25.71H86.73V24.98H83.65V25.71H84.16V29.36H83.6L83.64 30.09H84.45C85.27 30.09 86.2 30.02 86.94 29.9H86.98L86.91 29.18H86.87L86.86 29.19ZM85.54 25.71V29.33H85.51C85.28 29.34 85.05 29.35 84.84 29.36V25.72H85.53L85.54 25.71Z" fill="#232644"/>
<path d="M87.24 27.0301H86.48V27.7601H87.24V31.0201H87.97V24.5901H87.24V27.0301Z" fill="#232644"/>
<path d="M97.07 24.49H96.31V31.16H97.07V24.49Z" fill="#232644"/>
<path d="M93.52 24.8C92.42 24.8 91.79 25.62 91.79 27.05V28.05C91.79 29.48 92.42 30.3 93.52 30.3C94.62 30.3 95.24 29.48 95.24 28.05V27.05C95.24 25.62 94.61 24.8 93.52 24.8ZM94.48 27.05V28.0401C94.48 29.0401 94.15 29.57 93.52 29.57C92.89 29.57 92.55 29.0301 92.55 28.0401V27.05C92.55 26.05 92.88 25.5201 93.52 25.5201C94.16 25.5201 94.48 26.05 94.48 27.05Z" fill="#232644"/>
<path d="M105.46 29.9299H99.41V30.6599H105.46V29.9299Z" fill="#232644"/>
<path d="M100.09 28.6801C101.12 28.1901 101.87 27.6201 102.32 27.0001L104.72 28.6801L104.75 28.7001L105.16 28.0401L102.67 26.3201C102.78 26.0201 102.84 25.7101 102.84 25.3801V24.8401H102.08V25.3801C102.08 26.3701 101.33 27.2001 99.73 28.0001L99.69 28.0201L100.04 28.7001L100.07 28.6801H100.09Z" fill="#232644"/>
<path d="M113.73 28.4699H115.65V24.9299H111.06V28.4699H112.98V29.9299H110.33V30.6599H116.38V29.9299H113.74V28.4699H113.73ZM114.88 25.6499V27.7499H111.82V25.6499H114.88Z" fill="#232644"/>
<path d="M123.35 24.49H122.59V31.16H123.35V27.69H124.34V26.97H123.35V24.49Z" fill="#232644"/>
<path d="M119.93 24.8C118.85 24.8 118.23 25.62 118.23 27.05V28.05C118.23 29.48 118.85 30.3 119.93 30.3C121.01 30.3 121.61 29.48 121.61 28.05V27.05C121.61 25.62 121 24.8 119.93 24.8ZM119.93 25.5301C120.54 25.5301 120.86 26.06 120.86 27.06V28.05C120.86 29.03 120.53 29.58 119.93 29.58C119.33 29.58 119 29.05 119 28.05V27.06C119 26.06 119.32 25.5301 119.93 25.5301Z" fill="#232644"/>
<path d="M126.78 31.1599H131.37V28.9299H126.78V31.1599ZM130.61 29.5899V30.4899H127.55V29.5899H130.61Z" fill="#232644"/>
<path d="M129.45 27.7201V27.1901H131.3V24.6001H130.54V25.3001H127.61V24.6001H126.85V27.1901H128.71V27.7201H126.06V28.4101H132.11V27.7201H129.47H129.45ZM127.6 26.5301V25.9701H130.53V26.5301H127.6Z" fill="#232644"/>
<path d="M34.76 26.82L32.06 4.15C31.78 1.78 29.84 0 27.54 0C26.19 0 24.9 0.62 24.04 1.7C22.32 3.85 19.86 4.92 17.4 4.92C14.94 4.92 12.49 3.85 10.76 1.7C10.33 1.16 9.78998 0.74 9.18998 0.45C8.58998 0.16 7.92998 0 7.25998 0C6.10998 0 5.04998 0.44 4.23998 1.19C3.42998 1.93 2.86998 2.97 2.72998 4.15L0.0299814 26.82C-0.300019 29.57 1.77998 32 4.44998 32H17.08V24.92C16.71 24.95 14.19 25.12 12.7 23.63C11.09 22.02 11.3 19.09 11.3 19.09C11.3 19.09 14.12 18.77 15.73 20.38C16.65 21.3 16.97 22.65 17.08 23.64V20.11C17.08 20.11 16.88 17.31 18.42 15.77C19.96 14.23 22.66 14.54 22.66 14.54C22.66 14.54 22.86 17.34 21.32 18.88C20.24 19.96 18.59 20.13 17.7 20.14V26.44C17.89 26 18.14 25.59 18.5 25.24C20.04 23.7 22.74 24.01 22.74 24.01C22.74 24.01 22.94 26.81 21.4 28.35C20.28 29.46 18.57 29.61 17.7 29.61V32.01H30.33C33.01 32.01 35.08 29.58 34.75 26.83L34.76 26.82ZM16.84 17.48C16.84 17.48 14.14 17.78 12.6 16.24C11.06 14.7 11.26 11.9 11.26 11.9C11.26 11.9 13.96 11.59 15.5 13.13C17.04 14.67 16.84 17.48 16.84 17.48Z" fill="#FCD297"/>
</g>
<defs>
<clipPath id="clip0_5_37">
<rect width="164" height="32" fill="white"/>
</clipPath>
</defs>
</svg>
