<svg width="120" height="27" viewBox="0 0 120 27" fill="none" xmlns="http://www.w3.org/2000/svg">
<g clip-path="url(#clip0_554_483)">
<path d="M0 0.603516H120V21.2932C120 24.1498 117.684 26.4656 114.828 26.4656H0V0.603516Z" fill="#FCD297"/>
<path d="M53.8138 14.3084H58.5973V15.1856H54.8483V16.4353H58.738V17.3125H53.8138V14.3084ZM58.589 11.2877H59.5987V12.198H58.589V13.9608H57.5462V9.61597H58.589V11.2877ZM52.7959 10.0546H56.3959V10.9401H53.8304V12.6118C54.1175 12.6118 54.3906 12.6118 54.6497 12.6118C54.9088 12.6063 55.1602 12.6008 55.4028 12.5953C55.6511 12.5843 55.8993 12.5704 56.1476 12.5539C56.3959 12.5318 56.6525 12.507 56.9173 12.4794L57.0083 13.3484C56.76 13.3815 56.4978 13.4091 56.2221 13.4311C55.9516 13.4477 55.6511 13.4615 55.32 13.4725C54.989 13.4835 54.6166 13.4918 54.2028 13.4973C53.7947 13.4973 53.3256 13.4973 52.7959 13.4973V10.0546ZM66.494 17.3125H65.443V9.61597H66.494V17.3125ZM60.3533 14.9042C60.7671 14.656 61.1199 14.4353 61.4126 14.2422C61.7049 14.0491 61.9475 13.8725 62.1409 13.7125C62.3395 13.547 62.4937 13.3925 62.6043 13.2491C62.7202 13.1001 62.8056 12.9511 62.8609 12.8022C62.9214 12.6532 62.9602 12.496 62.9768 12.3305C62.9933 12.1649 63.0016 11.9801 63.0016 11.776V11.2049H60.494V10.3029H64.0526V11.8256C64.0526 12.1015 64.0387 12.3525 64.0112 12.5787C63.9833 12.8049 63.9285 13.0173 63.8457 13.216C63.7681 13.4091 63.6554 13.5967 63.5064 13.7787C63.3626 13.9608 63.1754 14.1511 62.9437 14.3498C62.7119 14.5428 62.4275 14.7525 62.0912 14.9787C61.7602 15.1994 61.3656 15.4504 60.9078 15.7318L60.3533 14.9042Z" fill="#232644"/>
</g>
<defs>
<clipPath id="clip0_554_483">
<rect width="120" height="25.8621" fill="white" transform="translate(0 0.603516)"/>
</clipPath>
</defs>
</svg>
