<svg width="120" height="27" viewBox="0 0 120 27" fill="none" xmlns="http://www.w3.org/2000/svg">
<g clip-path="url(#clip0_554_480)">
<path d="M0 0.603516H120V26.4656H5.17241C2.31577 26.4656 0 24.1498 0 21.2932V0.603516Z" fill="#FFDDAE"/>
<path d="M30.1406 15.4587V14.2339C29.8317 14.1953 29.5475 14.1208 29.2882 14.0104C29.0289 13.9001 28.8055 13.7622 28.6179 13.5967C28.4302 13.4311 28.2841 13.2408 28.1792 13.0256C28.0744 12.8104 28.022 12.5732 28.022 12.3139V11.9332C28.022 11.6408 28.0882 11.376 28.2206 11.1387C28.353 10.896 28.5378 10.6891 28.7751 10.518C29.0124 10.347 29.2909 10.2146 29.611 10.1208C29.9365 10.027 30.2868 9.9801 30.662 9.9801C31.0371 9.9801 31.3847 10.027 31.7048 10.1208C32.0303 10.2146 32.3089 10.347 32.5406 10.518C32.7779 10.6891 32.9627 10.896 33.0951 11.1387C33.233 11.376 33.302 11.6408 33.302 11.9332V12.3139C33.302 12.5732 33.2496 12.8104 33.1448 13.0256C33.0399 13.2408 32.8937 13.4311 32.7061 13.5967C32.5185 13.7622 32.2951 13.9001 32.0358 14.0104C31.7765 14.1208 31.4923 14.1953 31.1834 14.2339V15.4587H34.1875V16.3442H27.1365V15.4587H30.1406ZM30.662 10.8822C30.4413 10.8822 30.2316 10.9097 30.033 10.9649C29.8399 11.0146 29.6689 11.0891 29.5199 11.1884C29.3765 11.2822 29.2606 11.398 29.1723 11.536C29.0896 11.6739 29.0482 11.8256 29.0482 11.9911V12.256C29.0482 12.4215 29.0896 12.5732 29.1723 12.7111C29.2606 12.8491 29.3765 12.9677 29.5199 13.067C29.6689 13.1608 29.8399 13.2353 30.033 13.2904C30.2316 13.3401 30.4413 13.3649 30.662 13.3649C30.8827 13.3649 31.0896 13.3401 31.2827 13.2904C31.4813 13.2353 31.6524 13.1608 31.7958 13.067C31.9448 12.9677 32.0606 12.8491 32.1434 12.7111C32.2317 12.5732 32.2758 12.4215 32.2758 12.256V11.9911C32.2758 11.8256 32.2317 11.6739 32.1434 11.536C32.0606 11.398 31.9448 11.2822 31.7958 11.1884C31.6524 11.0891 31.4813 11.0146 31.2827 10.9649C31.0896 10.9097 30.8827 10.8822 30.662 10.8822ZM40.735 14.0684V16.096H36.6467V16.5925H40.9585V17.3787H35.6371V15.3429H39.7254V14.8546H35.5957V14.0684H40.735ZM41.7198 12.7442V13.5553H34.6688V12.7442H41.7198ZM36.7047 9.75666V11.387H40.7102V12.198H35.6619V9.75666H36.7047ZM50.3777 12.5953H51.437V13.5056H50.3777V17.3125H49.3266V9.61597H50.3777V12.5953ZM46.5542 15.6325C46.2453 15.6325 45.9722 15.5884 45.7349 15.5001C45.5032 15.4063 45.3046 15.2849 45.1391 15.136C44.9791 14.9815 44.8577 14.8077 44.7749 14.6146C44.6922 14.416 44.6508 14.2146 44.6508 14.0104V13.5222C44.6508 13.318 44.6922 13.1194 44.7749 12.9263C44.8577 12.7277 44.9791 12.5539 45.1391 12.4049C45.3046 12.2504 45.5032 12.1291 45.7349 12.0408C45.9722 11.947 46.2453 11.9001 46.5542 11.9001C46.8577 11.9001 47.128 11.947 47.3653 12.0408C47.6025 12.1291 47.8011 12.2504 47.9611 12.4049C48.1266 12.5539 48.2508 12.7277 48.3335 12.9263C48.4163 13.1194 48.4577 13.318 48.4577 13.5222V14.0104C48.4577 14.2146 48.4163 14.416 48.3335 14.6146C48.2508 14.8077 48.1266 14.9815 47.9611 15.136C47.8011 15.2849 47.6025 15.4063 47.3653 15.5001C47.128 15.5884 46.8577 15.6325 46.5542 15.6325ZM46.5542 14.7553C46.7032 14.7553 46.8356 14.7332 46.9515 14.6891C47.0673 14.6394 47.1639 14.5759 47.2411 14.4987C47.3239 14.4215 47.3846 14.3332 47.4232 14.2339C47.4673 14.1346 47.4894 14.0325 47.4894 13.9277V13.6049C47.4894 13.5001 47.4673 13.398 47.4232 13.2987C47.3846 13.1994 47.3239 13.1111 47.2411 13.0339C47.1639 12.9567 47.0673 12.8959 46.9515 12.8518C46.8356 12.8022 46.7032 12.7773 46.5542 12.7773C46.4053 12.7773 46.2729 12.8022 46.157 12.8518C46.0411 12.8959 45.9418 12.9567 45.8591 13.0339C45.7818 13.1111 45.7211 13.1994 45.677 13.2987C45.6384 13.398 45.6191 13.5001 45.6191 13.6049V13.9277C45.6191 14.0325 45.6384 14.1346 45.677 14.2339C45.7211 14.3332 45.7818 14.4215 45.8591 14.4987C45.9418 14.5759 46.0411 14.6394 46.157 14.6891C46.2729 14.7332 46.4053 14.7553 46.5542 14.7553ZM47.0839 9.6739V10.667H48.7391V11.5525H44.2949V10.667H46.0246V9.6739H47.0839ZM58.8537 14.176V15.0532H55.8579V17.3208H54.8068V15.0532H51.8027V14.176H58.8537ZM52.7461 13.6049V11.3704H56.8344V10.8325H52.7213V9.96355H57.8689V12.2063H53.7806V12.7442H58.0427V13.6049H52.7461ZM65.4506 14.2008V15.4587H68.4547V16.3442H61.4037V15.4587H64.4079V14.2008H62.3554V10.1456H63.3982V11.3787H66.4603V10.1456H67.503V14.2008H65.4506ZM66.4603 13.3236V12.2642H63.3982V13.3236H66.4603ZM69.3087 10.278H73.4135V11.1718H71.9239V12.0491C71.9239 12.2091 71.9322 12.3553 71.9487 12.4877C71.9653 12.6146 71.9927 12.736 72.0315 12.8518C72.0754 12.9677 72.136 13.0836 72.2135 13.1994C72.2906 13.3153 72.3925 13.4394 72.5198 13.5718C72.6961 13.7649 72.8865 13.9635 73.0908 14.1677C73.3003 14.3718 73.5097 14.5677 73.7197 14.7553L73.0494 15.4504C72.8725 15.2849 72.6961 15.1167 72.5198 14.9456C72.3429 14.7691 72.1773 14.6008 72.0232 14.4408C71.8629 14.2808 71.7279 14.1373 71.6177 14.0104C71.507 13.878 71.4382 13.7787 71.4108 13.7125H71.3942C71.3554 13.7897 71.2753 13.9001 71.1542 14.0436C71.0327 14.187 70.9029 14.3305 70.7647 14.4739C70.6106 14.6339 70.4508 14.7994 70.2853 14.9704C70.1197 15.136 69.9211 15.3236 69.6894 15.5332L69.0025 14.8298C69.4546 14.427 69.8632 14.027 70.2273 13.6298C70.3484 13.4918 70.4508 13.3649 70.5335 13.2491C70.6163 13.1332 70.6825 13.0146 70.7322 12.8932C70.7818 12.7718 70.8149 12.6449 70.8315 12.5125C70.8532 12.3746 70.8646 12.2201 70.8646 12.0491V11.1718H69.3087V10.278ZM75.4163 17.3125H74.3653V9.61597H75.4163V17.3125ZM80.6725 13.4891C80.3027 13.4891 79.9913 13.4284 79.7373 13.307C79.4891 13.1856 79.2879 13.0394 79.1332 12.8684C78.9842 12.6918 78.8767 12.507 78.8104 12.3139C78.7499 12.1208 78.7194 11.9525 78.7194 11.8091V11.5111C78.7194 11.3677 78.7499 11.1994 78.8104 11.0063C78.8767 10.8132 78.9842 10.6312 79.1332 10.4601C79.2879 10.2836 79.4891 10.1346 79.7373 10.0132C79.9913 9.89181 80.3027 9.83114 80.6725 9.83114C81.0423 9.83114 81.3511 9.89181 81.5994 10.0132C81.8534 10.1346 82.0546 10.2836 82.2035 10.4601C82.3582 10.6312 82.4658 10.8132 82.5263 11.0063C82.5925 11.1994 82.6256 11.3677 82.6256 11.5111V11.8091C82.6256 11.9525 82.5925 12.1208 82.5263 12.3139C82.4658 12.507 82.3582 12.6918 82.2035 12.8684C82.0546 13.0394 81.8534 13.1856 81.5994 13.307C81.3511 13.4284 81.0423 13.4891 80.6725 13.4891ZM80.6725 10.7167C80.4961 10.7167 80.3472 10.7442 80.2256 10.7994C80.1041 10.8546 80.0047 10.9236 79.9277 11.0063C79.8558 11.0891 79.801 11.1774 79.7622 11.2711C79.7291 11.3649 79.7125 11.4532 79.7125 11.536V11.7842C79.7125 11.867 79.7291 11.9553 79.7622 12.0491C79.801 12.1428 79.8558 12.2311 79.9277 12.3139C80.0047 12.3967 80.1041 12.4656 80.2256 12.5208C80.3472 12.576 80.4961 12.6036 80.6725 12.6036C80.8437 12.6036 80.9896 12.576 81.1111 12.5208C81.2379 12.4656 81.3372 12.3967 81.4091 12.3139C81.4861 12.2311 81.5415 12.1428 81.5746 12.0491C81.6134 11.9553 81.6325 11.867 81.6325 11.7842V11.536C81.6325 11.4532 81.6134 11.3649 81.5746 11.2711C81.5415 11.1774 81.4861 11.0891 81.4091 11.0063C81.3372 10.9236 81.2379 10.8546 81.1111 10.7994C80.9896 10.7442 80.8437 10.7167 80.6725 10.7167ZM84.6449 11.1222H85.6546V12.0325H84.6449V13.307H83.6022V9.61597H84.6449V11.1222ZM80.4904 16.336C80.6725 16.336 80.8603 16.3304 81.0532 16.3194C81.2461 16.3139 81.4479 16.2973 81.6573 16.2698L81.7567 17.1222C81.6573 17.1387 81.5472 17.1525 81.4256 17.1636C81.3041 17.1801 81.1773 17.1911 81.0449 17.1967C80.9182 17.2077 80.7884 17.2132 80.656 17.2132C80.5292 17.2187 80.4103 17.2215 80.3001 17.2215H79.4642V14.1263H80.4904V16.336ZM83.958 14.2173H85.2408V15.0449H81.6491V14.2173H82.9153V13.6546H83.958V14.2173ZM83.4449 17.4449C83.2298 17.4449 83.0311 17.4201 82.8491 17.3704C82.667 17.3263 82.5098 17.2629 82.3773 17.1801C82.2449 17.0973 82.1399 16.9953 82.0629 16.8739C81.991 16.7525 81.9553 16.6173 81.9553 16.4684V16.2201C81.9553 16.0711 81.991 15.936 82.0629 15.8146C82.1399 15.6932 82.2449 15.5911 82.3773 15.5084C82.5098 15.4256 82.667 15.3622 82.8491 15.318C83.0311 15.2684 83.2298 15.2436 83.4449 15.2436C83.6601 15.2436 83.8587 15.2684 84.0408 15.318C84.2229 15.3622 84.3801 15.4256 84.5125 15.5084C84.6449 15.5911 84.7468 15.6932 84.8187 15.8146C84.8958 15.936 84.9346 16.0711 84.9346 16.2201V16.4684C84.9346 16.6173 84.8958 16.7525 84.8187 16.8739C84.7468 16.9953 84.6449 17.0973 84.5125 17.1801C84.3801 17.2629 84.2229 17.3263 84.0408 17.3704C83.8587 17.4201 83.6601 17.4449 83.4449 17.4449ZM83.4449 15.9801C83.252 15.9801 83.1113 16.0132 83.0229 16.0794C82.9344 16.1456 82.8904 16.2146 82.8904 16.2863V16.4022C82.8904 16.4739 82.9344 16.5429 83.0229 16.6091C83.1113 16.6753 83.252 16.7084 83.4449 16.7084C83.6379 16.7084 83.7785 16.6753 83.867 16.6091C83.9554 16.5429 83.9994 16.4739 83.9994 16.4022V16.2863C83.9994 16.2146 83.9554 16.1456 83.867 16.0794C83.7785 16.0132 83.6379 15.9801 83.4449 15.9801ZM92.5499 17.3125H91.4989V9.61597H92.5499V17.3125ZM86.4092 14.9042C86.823 14.656 87.1758 14.4353 87.4685 14.2422C87.7608 14.0491 88.0034 13.8725 88.1968 13.7125C88.3954 13.547 88.5496 13.3925 88.6603 13.2491C88.7761 13.1001 88.8615 12.9511 88.9168 12.8022C88.9773 12.6532 89.0161 12.496 89.0327 12.3305C89.0492 12.1649 89.0575 11.9801 89.0575 11.776V11.2049H86.5499V10.3029H90.1085V11.8256C90.1085 12.1015 90.0946 12.3525 90.0672 12.5787C90.0392 12.8049 89.9844 13.0173 89.9016 13.216C89.8241 13.4091 89.7113 13.5967 89.5623 13.7787C89.4185 13.9608 89.2313 14.1511 88.9996 14.3498C88.7679 14.5428 88.4834 14.7525 88.1472 14.9787C87.8161 15.1994 87.4215 15.4504 86.9637 15.7318L86.4092 14.9042Z" fill="white"/>
</g>
<defs>
<clipPath id="clip0_554_480">
<rect width="120" height="25.8621" fill="white" transform="translate(0 0.603516)"/>
</clipPath>
</defs>
</svg>
