<svg width="90" height="12" viewBox="0 0 90 12" fill="none" xmlns="http://www.w3.org/2000/svg">
<g clip-path="url(#clip0_544_254)">
<path d="M3.55 4.27C2.57 3.85 2.34 3.46 2.34 2.74C2.34 1.84 2.8 1.53 3.5 1.53C3.9 1.53 4.33 1.62 4.7 1.77C4.93 1.86 5.16 1.99 5.41 2.15L5.67 1.58C5.25 1.4 4.48 1.13 3.52 1.13C2.14 1.13 0.470001 1.71 0.470001 3.38C0.470001 4.8 1.44 5.33 2.44 5.8C3.51 6.29 4.08 6.53 4.08 7.54C4.08 8.31 3.71 8.79001 2.86 8.85001C2.82 8.39001 2.68 7.63 2.15 7.14C1.35 6.41 9.50182e-07 6.6 9.50182e-07 6.6C9.50182e-07 6.6 -0.049999 7.64001 0.460001 8.39001C0.530001 8.50001 0.620001 8.61 0.720001 8.7C0.910001 8.87 1.14 9 1.37 9.08H1.39C1.83 9.24 2.28 9.25 2.57 9.25C2.62 9.25 2.67 9.25 2.72 9.25C4.68 9.25 5.96 8.24 5.96 6.85C5.96 5.46 4.8 4.79 3.56 4.27H3.55Z" fill="#232644"/>
<path d="M10.59 2.85999C9.77 2.85999 9.15 3.25999 8.72 3.92999H8.66L8.76 2.91999L6.86 3.01999L6.92 3.65999V11.25L6.86 11.91L8.88 11.8L8.82 11.24V9.17999C9.11 9.25999 9.36 9.27999 9.65 9.27999C11.82 9.27999 13.01 7.98999 13.01 5.84999C13.01 3.86999 12.08 2.87999 10.6 2.87999L10.59 2.85999ZM9.6 8.85999C9.31 8.85999 9.07 8.81999 8.82 8.73999V4.16999C9.1 3.85999 9.51 3.58999 9.93 3.58999C10.63 3.58999 11 4.08999 11 5.98999C11 8.36999 10.34 8.85999 9.6 8.85999Z" fill="#232644"/>
<path d="M23.81 3.21001C24.14 3.21001 24.35 3.27001 24.6 3.40001C24.78 3.51001 24.99 3.65001 25.21 3.83001L25.52 3.29001C25.06 3.01001 24.52 2.85001 23.68 2.85001C21.5 2.85001 20.35 4.47001 20.35 6.21001C20.35 7.95001 21.51 9.26001 23.23 9.26001C24.46 9.26001 25.15 8.69001 25.51 8.38001L25.38 8.12001C25.08 8.30001 24.64 8.45001 24.22 8.45001C23.01 8.45001 22.57 7.38001 22.57 5.84001C22.57 4.05001 23.13 3.21001 23.82 3.21001H23.81Z" fill="#232644"/>
<path d="M29.05 2.84001C27.15 2.84001 25.97 4.19001 25.97 6.13001C25.97 7.75001 26.78 9.25001 28.96 9.25001C30.19 9.25001 30.99 8.77001 31.49 8.36001L31.36 8.11001C30.96 8.33001 30.5 8.47001 29.95 8.47001C28.48 8.47001 28.05 7.56001 28.02 5.94001H31.7L31.74 5.91001C31.77 5.81001 31.8 5.70001 31.8 5.39001C31.8 3.98001 31 2.82001 29.04 2.82001L29.05 2.84001ZM30.03 5.61001L28.04 5.68001C28.11 4.09001 28.42 3.19001 29.19 3.19001C29.8 3.19001 30.04 3.61001 30.04 4.47001C30.04 4.57001 30.04 5.27001 30.04 5.61001H30.03Z" fill="#232644"/>
<path d="M43.61 1.90001L43.64 1.26001H41.67L39.61 6.87001H39.52L37.47 1.26001H35.37L35.4 1.90001L35.03 8.41001L34.94 9.12001H35.64L35.61 8.41001L35.89 2.66001H35.98L38.29 8.88001H39.42L41.74 2.70001H41.82L41.81 3.61001L42.07 8.41001L42.05 9.12001H44.07L43.97 8.41001L43.61 1.90001Z" fill="#232644"/>
<path d="M48.3 2.84C45.97 2.84 44.93 4.46 44.93 6.17C44.93 8.01 46.17 9.25 48.12 9.25C50.32 9.25 51.49 7.72 51.49 5.96C51.49 4.2 50.25 2.84 48.3 2.84ZM48.23 8.87C47.38 8.87 46.99 7.9 46.99 6C46.99 3.96 47.47 3.2 48.17 3.2C48.97 3.2 49.44 4.2 49.44 6.09C49.44 7.88 49.04 8.87 48.24 8.87H48.23Z" fill="#232644"/>
<path d="M57.78 5.61C57.78 4.18 57.78 2.84 55.3 2.84C53.96 2.84 53.12 3.23 52.61 3.5L52.76 3.82C53.04 3.69 53.25 3.61 53.47 3.55C53.75 3.49 54.02 3.46 54.3 3.46C55.39 3.46 55.78 3.9 55.78 4.91V5.45C54.45 5.45 52.19 5.68 52.19 7.51C52.19 8.25 52.55 9.24 53.78 9.24C54.89 9.24 55.5 8.7 55.92 8.12H55.99L55.9 9.17L57.83 9.06L57.77 8.4V5.59L57.78 5.61ZM55.79 7.23C55.74 7.41 55.65 7.59 55.53 7.75C55.28 8.06 54.9 8.24 54.54 8.33C54.05 8.46 53.6 8.44 53.6 8.44C53.6 8.44 53.25 7.16 53.86 6.41C54.18 6.02 54.69 5.85 55.11 5.78H55.13C55.21 5.76 55.3 5.75 55.39 5.75C55.42 5.75 55.44 5.75 55.47 5.75C55.57 5.75 55.64 5.75 55.7 5.75C55.73 5.75 55.76 5.75 55.79 5.75C55.79 5.75 55.98 6.64 55.79 7.27V7.23Z" fill="#232644"/>
<path d="M19.29 5.61C19.29 4.18 19.29 2.84 16.81 2.84C15.47 2.84 14.63 3.23 14.12 3.5L14.27 3.82C14.55 3.69 14.76 3.61 14.98 3.55C15.26 3.49 15.53 3.46 15.81 3.46C16.9 3.46 17.29 3.9 17.29 4.91V5.45C15.96 5.45 13.7 5.68 13.7 7.51C13.7 8.25 14.06 9.24 15.29 9.24C16.4 9.24 17.01 8.7 17.43 8.12H17.5L17.41 9.17L19.34 9.06L19.28 8.4V5.59L19.29 5.61ZM17.3 7.23C17.25 7.41 17.16 7.59 17.04 7.75C16.79 8.06 16.41 8.24 16.05 8.33C15.56 8.46 15.11 8.44 15.11 8.44C15.11 8.44 14.76 7.16 15.37 6.41C15.69 6.02 16.2 5.85 16.62 5.78H16.64C16.72 5.76 16.81 5.75 16.9 5.75C16.93 5.75 16.95 5.75 16.98 5.75C17.08 5.75 17.15 5.75 17.21 5.75C17.24 5.75 17.27 5.75 17.3 5.75C17.3 5.75 17.49 6.64 17.3 7.27V7.23Z" fill="#232644"/>
<path d="M64.62 5.61C64.62 4.18 64.62 2.84 62.14 2.84C60.8 2.84 59.96 3.23 59.45 3.5L59.6 3.82C59.88 3.69 60.09 3.61 60.31 3.55C60.59 3.49 60.86 3.46 61.14 3.46C62.23 3.46 62.62 3.9 62.62 4.91V5.45C61.29 5.45 59.03 5.68 59.03 7.51C59.03 8.25 59.39 9.24 60.62 9.24C61.73 9.24 62.34 8.7 62.76 8.12H62.83L62.74 9.17L64.67 9.06L64.61 8.4V5.59L64.62 5.61ZM62.63 7.23C62.58 7.41 62.49 7.59 62.37 7.75C62.12 8.06 61.74 8.24 61.38 8.33C60.89 8.46 60.44 8.44 60.44 8.44C60.44 8.44 60.09 7.16 60.7 6.41C61.02 6.02 61.53 5.85 61.95 5.78H61.97C62.05 5.76 62.14 5.75 62.23 5.75C62.26 5.75 62.28 5.75 62.31 5.75C62.41 5.75 62.48 5.75 62.54 5.75C62.57 5.75 62.6 5.75 62.63 5.75C62.63 5.75 62.82 6.64 62.63 7.27V7.23Z" fill="#232644"/>
<path d="M69.61 2.86C68.82 2.86 68.23 3.21 67.74 3.92H67.67L67.83 2.98V0L65.87 0.11L65.93 0.71V8.41L65.87 8.95C66.51 9.1 67.32 9.26 68.66 9.26C70.87 9.26 72.02 7.96 72.02 5.84C72.02 3.84 71.08 2.87 69.6 2.87L69.61 2.86ZM68.62 8.86C68.38 8.86 68.14 8.83 67.84 8.75V4.17C68.12 3.87 68.53 3.59 68.96 3.59C69.65 3.59 70.03 4.07 70.03 5.98C70.03 8.37 69.39 8.87 68.63 8.87L68.62 8.86Z" fill="#232644"/>
<path d="M76.14 2.84C73.81 2.84 72.77 4.46 72.77 6.17C72.77 8.01 74.01 9.25 75.96 9.25C78.16 9.25 79.33 7.72 79.33 5.96C79.33 4.2 78.09 2.84 76.14 2.84ZM76.07 8.87C75.22 8.87 74.83 7.9 74.83 6C74.83 3.96 75.31 3.2 76.01 3.2C76.82 3.2 77.28 4.2 77.28 6.09C77.28 7.88 76.88 8.87 76.07 8.87Z" fill="#232644"/>
<path d="M87.94 9.12001H90L89.94 8.42001V4.74001C89.94 3.52001 89.55 2.85001 88.23 2.85001C87.04 2.85001 86.45 3.52001 86.06 4.00001H85.98C85.81 3.26001 85.31 2.85001 84.42 2.85001C83.24 2.85001 82.66 3.53001 82.3 4.00001H82.24L82.34 2.94001L80.43 3.04001L80.49 3.63001V8.43001L80.42 9.13001H82.48L82.42 8.43001V4.19001C82.71 3.96001 82.98 3.79001 83.47 3.79001C84.16 3.79001 84.21 4.31001 84.21 4.91001V8.43001L84.15 9.13001H86.21L86.15 8.43001V4.19001C86.47 3.95001 86.74 3.79001 87.23 3.79001C87.92 3.79001 87.97 4.35001 87.97 5.00001V8.43001L87.91 9.13001L87.94 9.12001Z" fill="#232644"/>
</g>
<defs>
<clipPath id="clip0_544_254">
<rect width="90" height="11.9" fill="white"/>
</clipPath>
</defs>
</svg>
