<svg width="96" height="96" viewBox="0 0 96 96" fill="none" xmlns="http://www.w3.org/2000/svg">
<g clip-path="url(#clip0_81_216)">
<path fill-rule="evenodd" clip-rule="evenodd" d="M47.4 30.03C37.21 30.03 28.95 38.3 28.95 48.48C28.95 58.66 37.22 66.94 47.4 66.94C57.58 66.94 65.85 58.67 65.85 48.48C65.85 38.29 57.58 30.03 47.4 30.03ZM47.4 32.2C56.39 32.2 63.68 39.5 63.68 48.48C63.68 57.46 56.38 64.76 47.4 64.76C38.42 64.76 31.12 57.46 31.12 48.48C31.12 39.5 38.42 32.2 47.4 32.2Z" fill="black"/>
<path fill-rule="evenodd" clip-rule="evenodd" d="M38.11 30.0599C40.9 28.6499 44.05 27.8599 47.39 27.8599C58.77 27.8599 68.02 37.0999 68.02 48.4899C68.02 51.8299 67.23 54.9799 65.82 57.7699C65.55 58.3099 65.76 58.9599 66.3 59.2299C66.84 59.4999 67.49 59.2899 67.76 58.7499C69.32 55.6599 70.2 52.1799 70.2 48.4899C70.2 35.9099 59.99 25.6899 47.4 25.6899C43.71 25.6899 40.23 26.5699 37.14 28.1299C36.6 28.3999 36.39 29.0499 36.66 29.5899C36.93 30.1299 37.58 30.3399 38.12 30.0699L38.11 30.0599Z" fill="black"/>
<path fill-rule="evenodd" clip-rule="evenodd" d="M56.68 66.9C53.89 68.31 50.74 69.1 47.4 69.1C36.02 69.1 26.77 59.86 26.77 48.47C26.77 45.93 27.23 43.5 28.07 41.25C28.28 40.69 28 40.06 27.43 39.85C26.87 39.64 26.24 39.92 26.03 40.48C25.1 42.96 24.59 45.65 24.59 48.46C24.59 61.04 34.8 71.26 47.39 71.26C51.08 71.26 54.56 70.38 57.65 68.82C58.19 68.55 58.4 67.9 58.13 67.36C57.86 66.82 57.21 66.61 56.67 66.88L56.68 66.9Z" fill="black"/>
<path fill-rule="evenodd" clip-rule="evenodd" d="M65.85 65.59V63.68C65.85 63.08 66.34 62.6 66.94 62.6H71.28C71.88 62.6 72.37 63.09 72.37 63.68V65.59L73.99 64.64C74.24 64.49 74.54 64.45 74.82 64.53C75.1 64.6 75.34 64.79 75.48 65.04L77.65 68.84C77.95 69.36 77.77 70.02 77.25 70.32L75.6 71.28L77.25 72.24C77.76 72.54 77.94 73.2 77.65 73.72L75.48 77.52C75.34 77.77 75.1 77.96 74.82 78.03C74.54 78.11 74.24 78.07 73.99 77.92L72.37 76.97V78.88C72.37 79.48 71.88 79.96 71.28 79.96H66.94C66.34 79.96 65.85 79.47 65.85 78.88V76.97L64.23 77.92C63.98 78.07 63.68 78.11 63.4 78.03C63.12 77.96 62.88 77.77 62.74 77.52L60.57 73.72C60.27 73.2 60.45 72.54 60.97 72.24L62.62 71.28L60.97 70.32C60.46 70.02 60.28 69.36 60.57 68.84L62.74 65.04C62.88 64.79 63.12 64.6 63.4 64.53C63.68 64.45 63.98 64.49 64.23 64.64L65.85 65.59ZM70.19 64.77H68.02V67.48C68.02 67.87 67.81 68.23 67.48 68.42C67.14 68.61 66.73 68.61 66.39 68.42L64.08 67.07L62.99 68.98L65.32 70.34C65.65 70.53 65.86 70.89 65.86 71.28C65.86 71.67 65.65 72.02 65.32 72.22L62.99 73.58L64.08 75.49L66.39 74.14C66.73 73.94 67.14 73.94 67.48 74.14C67.82 74.33 68.02 74.69 68.02 75.08V77.79H70.19V75.08C70.19 74.69 70.4 74.33 70.73 74.14C71.07 73.95 71.48 73.95 71.82 74.14L74.13 75.49L75.22 73.58L72.89 72.22C72.56 72.03 72.35 71.67 72.35 71.28C72.35 70.89 72.56 70.54 72.89 70.34L75.22 68.98L74.13 67.07L71.82 68.42C71.48 68.62 71.07 68.62 70.73 68.42C70.39 68.23 70.19 67.87 70.19 67.48V64.77Z" fill="black"/>
<path fill-rule="evenodd" clip-rule="evenodd" d="M43.99 45.79C44.13 45.23 44.05 44.64 43.77 44.12L42.75 42.27C42.31 41.48 42.08 40.59 42.08 39.69C42.08 36.75 44.46 34.37 47.4 34.37C50.34 34.37 52.72 36.75 52.72 39.69C52.72 40.59 52.49 41.48 52.05 42.27L51.03 44.12C50.75 44.64 50.67 45.23 50.81 45.79C51.07 46.12 51.29 46.5 51.45 46.9C51.86 47.3 52.42 47.53 53 47.54L55.11 47.58C56.01 47.6 56.89 47.84 57.68 48.29C60.22 49.76 61.09 53.02 59.63 55.56C58.16 58.11 54.91 58.98 52.36 57.51C51.58 57.06 50.93 56.42 50.46 55.64L49.37 53.83C49.05 53.3 48.54 52.93 47.96 52.78C47.78 52.8 47.59 52.82 47.4 52.82C47.21 52.82 47.03 52.81 46.84 52.78C46.26 52.93 45.74 53.3 45.43 53.83L44.34 55.64C43.88 56.41 43.22 57.06 42.44 57.51C39.9 58.98 36.64 58.11 35.17 55.56C33.7 53.02 34.58 49.76 37.12 48.29C37.9 47.84 38.78 47.59 39.69 47.58L41.8 47.54C42.39 47.53 42.94 47.29 43.35 46.9C43.51 46.5 43.72 46.12 43.99 45.79ZM51.62 49.49C51.42 50.34 50.97 51.09 50.35 51.67C50.69 51.97 50.99 52.32 51.23 52.73L52.32 54.54C52.59 55 52.98 55.38 53.44 55.65C54.94 56.52 56.87 56 57.74 54.5C58.61 52.99 58.09 51.06 56.59 50.19C56.13 49.92 55.61 49.78 55.07 49.77L52.96 49.73C52.5 49.73 52.05 49.64 51.62 49.5V49.49ZM43.17 49.49C42.74 49.63 42.3 49.71 41.83 49.72L39.72 49.76C39.19 49.76 38.66 49.92 38.2 50.18C36.7 51.05 36.18 52.98 37.05 54.49C37.92 56 39.84 56.51 41.35 55.64C41.81 55.37 42.2 54.99 42.47 54.53L43.56 52.72C43.8 52.32 44.1 51.97 44.44 51.66C43.82 51.09 43.37 50.33 43.17 49.48V49.49ZM47.4 46.31C48.6 46.31 49.57 47.28 49.57 48.48C49.57 49.68 48.6 50.65 47.4 50.65C46.2 50.65 45.23 49.68 45.23 48.48C45.23 47.28 46.2 46.31 47.4 46.31ZM48.66 44.33C48.75 43.9 48.91 43.47 49.13 43.08L50.15 41.23C50.41 40.76 50.54 40.24 50.54 39.7C50.54 37.96 49.13 36.55 47.39 36.55C45.65 36.55 44.24 37.96 44.24 39.7C44.24 40.24 44.38 40.76 44.63 41.23L45.65 43.08C45.87 43.48 46.03 43.9 46.12 44.33C46.52 44.21 46.94 44.14 47.38 44.14C47.82 44.14 48.24 44.21 48.64 44.33H48.66Z" fill="black"/>
<path fill-rule="evenodd" clip-rule="evenodd" d="M52.82 74.54C52.82 75.14 52.33 75.63 51.73 75.63C51.13 75.63 50.64 75.14 50.64 74.54C50.64 73.94 51.13 73.45 51.73 73.45C52.33 73.45 52.82 73.94 52.82 74.54Z" fill="black"/>
<path fill-rule="evenodd" clip-rule="evenodd" d="M41.97 22.43C41.97 23.03 42.46 23.52 43.06 23.52C43.66 23.52 44.15 23.03 44.15 22.43C44.15 21.83 43.66 21.34 43.06 21.34C42.46 21.34 41.97 21.83 41.97 22.43Z" fill="black"/>
<path fill-rule="evenodd" clip-rule="evenodd" d="M43.05 75.6199H47.39C47.99 75.6199 48.48 75.1299 48.48 74.5299C48.48 73.9299 47.99 73.4399 47.39 73.4399H43.05C42.45 73.4399 41.96 73.9299 41.96 74.5299C41.96 75.1299 42.45 75.6199 43.05 75.6199Z" fill="black"/>
<path fill-rule="evenodd" clip-rule="evenodd" d="M51.74 21.34H47.4C46.8 21.34 46.31 21.83 46.31 22.43C46.31 23.03 46.8 23.52 47.4 23.52H51.74C52.34 23.52 52.83 23.03 52.83 22.43C52.83 21.83 52.34 21.34 51.74 21.34Z" fill="black"/>
<path fill-rule="evenodd" clip-rule="evenodd" d="M25.46 17.42C25.25 17.16 24.94 17 24.6 17C24.26 17 23.95 17.15 23.74 17.42C23.74 17.42 20.48 21.6 18.53 25.37C17.61 27.13 17 28.83 17 30.03C17 34.22 20.41 37.63 24.6 37.63C28.79 37.63 32.2 34.22 32.2 30.03C32.2 28.83 31.59 27.13 30.67 25.37C28.71 21.6 25.46 17.42 25.46 17.42ZM24.6 29.58C24.1 30.23 23.46 31.1 22.99 31.93C22.69 32.45 22.43 32.93 22.43 33.28C22.43 34.48 23.4 35.45 24.6 35.45C25.8 35.45 26.77 34.48 26.77 33.28C26.77 32.93 26.51 32.45 26.21 31.93C25.74 31.1 25.1 30.23 24.6 29.58ZM28.94 33.28C29.62 32.37 30.03 31.25 30.03 30.02C30.03 29.07 29.47 27.76 28.75 26.36C27.49 23.94 25.67 21.33 24.61 19.89C23.55 21.34 21.73 23.94 20.47 26.36C19.75 27.75 19.19 29.07 19.19 30.02C19.19 31.24 19.59 32.37 20.28 33.28C20.28 32.66 20.6 31.77 21.13 30.85C22.13 29.1 23.8 27.14 23.8 27.14C24.01 26.9 24.31 26.76 24.62 26.76C24.93 26.76 25.24 26.9 25.44 27.14C25.44 27.14 27.11 29.09 28.11 30.85C28.63 31.77 28.96 32.66 28.96 33.28H28.94Z" fill="black"/>
<path fill-rule="evenodd" clip-rule="evenodd" d="M19.17 19.17C19.17 19.77 18.68 20.26 18.08 20.26C17.48 20.26 16.99 19.77 16.99 19.17C16.99 18.57 17.48 18.08 18.08 18.08C18.68 18.08 19.17 18.57 19.17 19.17Z" fill="black"/>
<path fill-rule="evenodd" clip-rule="evenodd" d="M32.2 19.17C32.2 19.77 31.71 20.26 31.11 20.26C30.51 20.26 30.02 19.77 30.02 19.17C30.02 18.57 30.51 18.08 31.11 18.08C31.71 18.08 32.2 18.57 32.2 19.17Z" fill="black"/>
</g>
<defs>
<clipPath id="clip0_81_216">
<rect width="60.79" height="62.96" fill="white" transform="translate(17 17)"/>
</clipPath>
</defs>
</svg>
