<svg width="96" height="96" viewBox="0 0 96 96" fill="none" xmlns="http://www.w3.org/2000/svg">
<g clip-path="url(#clip0_81_249)">
<path d="M25.51 62.17V62.71C25.51 64.81 27.21 66.51 29.31 66.51H43.42C45.52 66.51 47.22 64.81 47.22 62.71V62.17C47.31 58.32 44.78 54.89 41.08 53.84C43.98 51.24 44.22 46.78 41.62 43.88C39.02 40.98 34.56 40.74 31.66 43.34C28.76 45.94 28.52 50.4 31.12 53.3C31.29 53.49 31.47 53.67 31.66 53.84C27.95 54.89 25.43 58.32 25.52 62.17H25.51ZM36.37 43.72C39.07 43.72 41.26 45.91 41.26 48.61C41.26 51.31 39.07 53.5 36.37 53.5C33.67 53.5 31.48 51.31 31.48 48.61C31.48 45.91 33.67 43.72 36.37 43.72ZM34.2 55.66H38.54C42.06 55.58 44.97 58.37 45.05 61.89C45.05 61.99 45.05 62.08 45.05 62.18V62.72C45.05 63.62 44.32 64.35 43.42 64.35H29.31C28.41 64.35 27.68 63.62 27.68 62.72V62.18C27.6 58.66 30.39 55.75 33.91 55.67C34.01 55.67 34.1 55.67 34.2 55.67V55.66Z" fill="black"/>
<path d="M70.02 54.5701C69.42 54.5701 68.93 55.0601 68.93 55.6601V69.2301C68.93 70.1301 68.2 70.8601 67.3 70.8601H22.8C21.9 70.8601 21.17 70.1301 21.17 69.2301V37.7401C21.17 36.8401 21.9 36.1101 22.8 36.1101H46.68C47.28 36.1101 47.77 35.6201 47.77 35.0201C47.77 34.4201 47.28 33.9301 46.68 33.9301H22.8C20.7 33.9301 19 35.6301 19 37.7301V69.2101C19 71.3101 20.7 73.0101 22.8 73.0101H67.31C69.41 73.0101 71.11 71.3101 71.11 69.2101V55.6401C71.11 55.0401 70.62 54.5501 70.02 54.5501V54.5701Z" fill="black"/>
<path d="M69.07 34.26L62.24 41.09L57.94 36.79C57.52 36.37 56.83 36.37 56.4 36.79C55.97 37.21 55.98 37.9 56.4 38.33L61.46 43.39C61.66 43.6 61.94 43.71 62.23 43.71C62.52 43.71 62.79 43.59 63 43.39L70.6 35.79C71 35.35 70.97 34.66 70.52 34.26C70.11 33.89 69.48 33.89 69.06 34.26H69.07Z" fill="black"/>
<path d="M76.69 28.23C76.63 27.71 76.22 27.31 75.7 27.26C73.63 26.99 71.61 26.43 69.7 25.59C67.73 24.77 65.89 23.65 64.25 22.28C63.84 21.9 63.2 21.9 62.78 22.28C61.14 23.65 59.3 24.76 57.33 25.59C55.43 26.43 53.42 26.99 51.36 27.26C50.84 27.3 50.42 27.71 50.37 28.23C50.32 28.69 49.24 39.53 51.92 44.88C55.13 51.27 62.78 54.86 63.1 55.01C63.39 55.14 63.72 55.14 64.01 55.01C64.33 54.86 71.98 51.27 75.19 44.88C77.84 39.53 76.76 28.69 76.71 28.23H76.69ZM73.2 43.91C70.76 48.78 65.14 51.96 63.51 52.82C61.88 51.97 56.26 48.78 53.82 43.91C51.82 39.92 52.22 31.92 52.42 29.3C54.4 28.96 56.33 28.38 58.17 27.58C60.07 26.78 61.86 25.74 63.51 24.49C65.15 25.74 66.94 26.78 68.85 27.58C70.69 28.37 72.63 28.95 74.6 29.3C74.8 31.92 75.2 39.91 73.2 43.91Z" fill="black"/>
<path d="M52.65 66.51H63.51C64.11 66.51 64.6 66.02 64.6 65.42C64.6 64.82 64.11 64.33 63.51 64.33H52.65C52.05 64.33 51.56 64.82 51.56 65.42C51.56 66.02 52.05 66.51 52.65 66.51Z" fill="black"/>
<path d="M52.65 59.9999H59.16C59.76 59.9999 60.25 59.5099 60.25 58.9099C60.25 58.3099 59.76 57.8199 59.16 57.8199H52.65C52.05 57.8199 51.56 58.3099 51.56 58.9099C51.56 59.5099 52.05 59.9999 52.65 59.9999Z" fill="black"/>
</g>
<defs>
<clipPath id="clip0_81_249">
<rect width="57.95" height="51.02" fill="white" transform="translate(19 22)"/>
</clipPath>
</defs>
</svg>
