<svg width="96" height="96" viewBox="0 0 96 96" fill="none" xmlns="http://www.w3.org/2000/svg">
<g clip-path="url(#clip0_81_193)">
<path d="M49.6 36.8899H65.25C66.62 36.8899 67.74 35.7799 67.74 34.3999V27.4299C67.74 26.0599 66.63 24.9399 65.25 24.9399H49.6C48.23 24.9399 47.11 26.0499 47.11 27.4299V34.3999C47.11 35.7699 48.22 36.8899 49.6 36.8899ZM49.28 27.4399C49.28 27.2699 49.42 27.1199 49.6 27.1199H65.25C65.42 27.1199 65.57 27.2599 65.57 27.4399V34.4099C65.57 34.5799 65.43 34.7299 65.25 34.7299H49.6C49.43 34.7299 49.28 34.5899 49.28 34.4099V27.4399Z" fill="black"/>
<path d="M56.88 32.55H62.31C62.91 32.55 63.4 32.06 63.4 31.46C63.4 30.86 62.91 30.37 62.31 30.37H56.88C56.28 30.37 55.79 30.86 55.79 31.46C55.79 32.06 56.28 32.55 56.88 32.55Z" fill="black"/>
<path d="M52.56 32.55C53.16 32.55 53.65 32.06 53.65 31.46C53.65 30.86 53.16 30.37 52.56 30.37H52.55C51.95 30.37 51.47 30.86 51.47 31.46C51.47 32.06 51.96 32.54 52.56 32.54V32.55Z" fill="black"/>
<path d="M82.39 80.31H81.84C81.84 79.9 81.75 79.49 81.52 79.13L79.59 75.95C79.18 75.29 78.46 74.88 77.68 74.88H74.24V37.02C74.93 35.11 75.33 33.06 75.34 30.92C75.35 21.02 67.32 13 57.43 13C47.54 13 39.51 21.02 39.51 30.92C39.51 33.06 39.91 35.11 40.6 37.01V74.89H37.16C36.38 74.89 35.66 75.3 35.26 75.96L34.03 77.99L33 68.27C32.97 67.95 32.79 67.66 32.52 67.48L32.25 67.3H34.09C34.69 67.3 35.18 66.81 35.18 66.21C35.18 65.68 34.79 65.26 34.28 65.16L33 53.07C32.97 52.75 32.79 52.46 32.52 52.28L29.26 50.11C29.08 49.99 28.87 49.93 28.66 49.93H22.15C21.94 49.93 21.73 49.99 21.55 50.11L18.29 52.28C18.02 52.46 17.85 52.75 17.81 53.07L16.53 65.16C16.02 65.25 15.63 65.68 15.63 66.21C15.63 66.81 16.12 67.3 16.72 67.3H17.49C17.49 67.3 17.5 67.3 17.51 67.3H18.56L18.29 67.48C18.02 67.66 17.85 67.95 17.81 68.27L16.53 80.33H15.09C14.49 80.33 14 80.82 14 81.42C14 82.02 14.49 82.51 15.09 82.51H17.49C17.49 82.51 17.5 82.51 17.51 82.51H82.39C82.99 82.51 83.48 82.02 83.48 81.42C83.48 80.82 82.99 80.33 82.39 80.33V80.31ZM72.08 74.88H68.82V71.62C68.82 71.02 68.33 70.53 67.73 70.53H64.27C64.56 70.18 64.84 69.82 65.1 69.44H67.15C69.27 69.44 70.98 67.72 70.98 65.61V64.59C70.98 62.67 69.55 61.09 67.7 60.81C67.7 60.4 67.7 59.99 67.67 59.59C67.63 59.02 67.16 58.58 66.59 58.58H60.12V53.15H63.38C63.85 53.15 64.26 52.85 64.41 52.41L66.47 46.32C68.68 45.02 70.59 43.26 72.07 41.17V74.86L72.08 74.88ZM50.14 65.56C49.57 64.03 49.28 62.4 49.28 60.76H65.56C65.56 62.4 65.27 64.02 64.7 65.56C63.99 67.47 62.81 69.17 61.29 70.53H53.55C52.03 69.17 50.85 67.47 50.14 65.56ZM52.23 50.99L51.1 47.65C53.07 48.39 55.19 48.82 57.42 48.82C59.65 48.82 61.77 48.39 63.74 47.65L62.61 51H52.23V50.99ZM57.96 53.16V58.59H56.87V53.16H57.96ZM68.82 64.59V65.61C68.82 66.53 68.08 67.27 67.16 67.27H66.31C66.45 66.95 66.61 66.65 66.74 66.32C67.14 65.24 67.42 64.12 67.58 62.99C68.29 63.18 68.82 63.82 68.82 64.59ZM66.65 72.7V74.87H48.2V72.7H66.65ZM57.43 15.17C66.12 15.17 73.17 22.22 73.18 30.91C73.18 39.61 66.13 46.66 57.44 46.66C48.74 46.66 41.69 39.61 41.69 30.92C41.69 22.22 48.74 15.17 57.43 15.17ZM42.77 41.2C44.24 43.3 46.16 45.06 48.38 46.36L50.43 52.44C50.58 52.88 50.99 53.18 51.46 53.18H54.72V58.61H48.25C47.68 58.61 47.21 59.05 47.17 59.62C47 61.9 47.32 64.2 48.12 66.35C48.69 67.89 49.54 69.3 50.58 70.56H47.12C46.52 70.56 46.04 71.05 46.04 71.65V74.91H42.78V41.2H42.77ZM22.47 52.09H28.33L30.89 53.8L32.09 65.12H18.71L19.91 53.8L22.47 52.09ZM28.33 67.29L30.89 69L32.09 80.32H18.71L19.91 69L22.47 67.29H28.33ZM46.33 80.32L35.18 80.27L37.16 77.07L77.74 77.09L79.68 80.28C79.68 80.28 79.68 80.32 79.62 80.32H46.32H46.33Z" fill="black"/>
</g>
<defs>
<clipPath id="clip0_81_193">
<rect width="69.48" height="69.49" fill="white" transform="translate(14 13)"/>
</clipPath>
</defs>
</svg>
