<svg width="96" height="96" viewBox="0 0 96 96" fill="none" xmlns="http://www.w3.org/2000/svg">
<g clip-path="url(#clip0_81_324)">
<path d="M68.66 18H30.74C30.22 18 29.79 18.42 29.79 18.95V21.79H26.95C26.43 21.79 26 22.21 26 22.74V71.09C26 71.34 26.1 71.58 26.28 71.76L32.92 78.4C33.1 78.58 33.34 78.68 33.59 78.68H64.88C65.4 78.68 65.83 78.26 65.83 77.73V74.89H68.67C69.19 74.89 69.62 74.47 69.62 73.94V18.95C69.62 18.43 69.2 18 68.67 18H68.66ZM32.64 75.44L29.24 72.04H32.64V75.44ZM63.93 76.78H34.53V71.09C34.53 70.57 34.11 70.14 33.58 70.14H27.9V23.69H52.55V29.38C52.55 29.68 52.7 29.97 52.94 30.15C53.19 30.33 53.51 30.38 53.79 30.28L56.33 29.43L58.87 30.28C58.97 30.31 59.07 30.33 59.17 30.33C59.37 30.33 59.56 30.27 59.72 30.15C59.97 29.97 60.11 29.69 60.11 29.38V23.69H63.9V76.78H63.93ZM58.24 23.69V28.06L56.64 27.53C56.45 27.47 56.23 27.47 56.04 27.53L54.44 28.06V23.69H58.23H58.24ZM67.72 72.99H65.82V22.74C65.82 22.22 65.4 21.79 64.87 21.79H31.69V19.89H67.72V72.98V72.99Z" fill="black"/>
<path d="M44.96 38.86C44.96 37.29 43.68 36.02 42.12 36.02C40.56 36.02 39.28 37.3 39.28 38.86C39.28 40.42 40.56 41.7 42.12 41.7C43.68 41.7 44.96 40.42 44.96 38.86ZM41.17 38.86C41.17 38.34 41.59 37.91 42.12 37.91C42.65 37.91 43.07 38.34 43.07 38.86C43.07 39.38 42.65 39.81 42.12 39.81C41.59 39.81 41.17 39.38 41.17 38.86Z" fill="black"/>
<path d="M49.7 43.6C48.13 43.6 46.86 44.88 46.86 46.44C46.86 48 48.14 49.28 49.7 49.28C51.26 49.28 52.54 48 52.54 46.44C52.54 44.88 51.26 43.6 49.7 43.6ZM49.7 47.39C49.18 47.39 48.75 46.96 48.75 46.44C48.75 45.92 49.17 45.49 49.7 45.49C50.23 45.49 50.65 45.92 50.65 46.44C50.65 46.96 50.23 47.39 49.7 47.39Z" fill="black"/>
<path d="M57 39.6801C57.29 38.6101 57.15 37.4601 56.58 36.4901C56.02 35.5201 55.09 34.8201 54.02 34.5301C53.74 33.4601 53.04 32.5401 52.07 31.9701C51.11 31.4201 49.95 31.2701 48.88 31.5501C48.1 30.7701 47.03 30.3101 45.91 30.3101C44.79 30.3101 43.72 30.7601 42.94 31.5501C41.87 31.2601 40.71 31.4101 39.75 31.9701C38.78 32.5301 38.08 33.4601 37.79 34.5301C36.72 34.8101 35.8 35.5101 35.23 36.4801C34.67 37.4501 34.53 38.6001 34.81 39.6701C34.03 40.4501 33.57 41.5201 33.57 42.6401C33.57 43.7601 34.02 44.8301 34.81 45.6101C34.52 46.6801 34.66 47.8301 35.23 48.8001C35.79 49.7701 36.72 50.4701 37.79 50.7501C38.08 51.8201 38.77 52.7401 39.75 53.3101C40.71 53.8601 41.88 54.0101 42.94 53.7301C43.72 54.5101 44.79 54.9701 45.91 54.9701C47.03 54.9701 48.1 54.5201 48.88 53.7301C49.24 53.8301 49.61 53.8801 49.98 53.8801C50.71 53.8801 51.44 53.6901 52.07 53.3201C53.04 52.7601 53.74 51.8301 54.02 50.7601C55.09 50.4701 56.01 49.7801 56.58 48.8101C57.14 47.8401 57.28 46.6901 57 45.6201C57.78 44.8401 58.24 43.7701 58.24 42.6501C58.24 41.5301 57.79 40.4601 57 39.6801ZM55.34 44.5401C54.96 44.8001 54.82 45.3101 55.02 45.7301C55.35 46.4201 55.31 47.2201 54.94 47.8701C54.56 48.5201 53.89 48.9501 53.13 49.0101C52.67 49.0501 52.3 49.4101 52.26 49.8801C52.2 50.6401 51.77 51.3101 51.12 51.6901C50.48 52.0601 49.66 52.0901 48.98 51.7701C48.56 51.5701 48.06 51.7101 47.79 52.0901C47.36 52.7101 46.65 53.0901 45.9 53.0901C45.15 53.0901 44.44 52.7201 44.01 52.0901C43.83 51.8301 43.53 51.6801 43.23 51.6801C43.09 51.6801 42.96 51.7101 42.83 51.7701C42.16 52.0901 41.34 52.0601 40.69 51.6901C40.04 51.3101 39.61 50.6401 39.55 49.8801C39.51 49.4201 39.14 49.0501 38.68 49.0101C37.92 48.9501 37.25 48.5201 36.87 47.8701C36.49 47.2201 36.46 46.4201 36.79 45.7301C36.99 45.3101 36.85 44.8101 36.47 44.5401C35.85 44.1101 35.47 43.4001 35.47 42.6501C35.47 41.9001 35.84 41.1901 36.47 40.7601C36.85 40.5001 36.99 39.9901 36.79 39.5701C36.47 38.8801 36.5 38.0901 36.87 37.4301C37.25 36.7801 37.92 36.3501 38.68 36.2901C39.14 36.2501 39.51 35.8901 39.55 35.4201C39.61 34.6601 40.04 33.9901 40.69 33.6101C41.34 33.2401 42.16 33.2101 42.83 33.5301C43.25 33.7301 43.75 33.5901 44.02 33.2101C44.45 32.5901 45.16 32.2101 45.91 32.2101C46.66 32.2101 47.37 32.5801 47.8 33.2101C48.06 33.5901 48.56 33.7201 48.99 33.5301C49.66 33.2101 50.48 33.2401 51.13 33.6101C51.78 33.9901 52.21 34.6601 52.27 35.4201C52.31 35.8801 52.68 36.2501 53.14 36.2901C53.9 36.3501 54.57 36.7801 54.95 37.4301C55.33 38.0801 55.36 38.8801 55.03 39.5701C54.83 39.9901 54.97 40.4901 55.35 40.7601C55.97 41.1901 56.35 41.9001 56.35 42.6501C56.35 43.4001 55.98 44.1101 55.35 44.5401H55.34Z" fill="black"/>
<path d="M50.37 38.19C50 37.82 49.4 37.82 49.03 38.19L41.45 45.77C41.08 46.14 41.08 46.74 41.45 47.11C41.63 47.29 41.88 47.39 42.12 47.39C42.36 47.39 42.61 47.3 42.79 47.11L50.37 39.53C50.74 39.16 50.74 38.56 50.37 38.19Z" fill="black"/>
<path d="M49.7 60.66C50.22 60.66 50.65 60.24 50.65 59.71C50.65 59.18 50.23 58.76 49.7 58.76H41.17C40.65 58.76 40.22 59.18 40.22 59.71C40.22 60.24 40.64 60.66 41.17 60.66H49.7Z" fill="black"/>
<path d="M54.44 62.5601H37.38C36.86 62.5601 36.43 62.9801 36.43 63.5101C36.43 64.0401 36.85 64.4601 37.38 64.4601H54.45C54.97 64.4601 55.4 64.0401 55.4 63.5101C55.4 62.9801 54.98 62.5601 54.45 62.5601H54.44Z" fill="black"/>
<path d="M54.44 66.35H37.38C36.86 66.35 36.43 66.77 36.43 67.3C36.43 67.83 36.85 68.25 37.38 68.25H54.45C54.97 68.25 55.4 67.83 55.4 67.3C55.4 66.77 54.98 66.35 54.45 66.35H54.44Z" fill="black"/>
<path d="M54.44 70.14H37.38C36.86 70.14 36.43 70.56 36.43 71.09C36.43 71.62 36.85 72.04 37.38 72.04H54.45C54.97 72.04 55.4 71.62 55.4 71.09C55.4 70.56 54.98 70.14 54.45 70.14H54.44Z" fill="black"/>
</g>
<defs>
<clipPath id="clip0_81_324">
<rect width="43.61" height="60.68" fill="white" transform="translate(26 18)"/>
</clipPath>
</defs>
</svg>
