<svg width="96" height="96" viewBox="0 0 96 96" fill="none" xmlns="http://www.w3.org/2000/svg">
<g clip-path="url(#clip0_81_352)">
<path d="M71.13 32.53H65.09C65.47 31.87 65.7 31.1 65.7 30.28C65.7 28.66 64.86 27.21 63.46 26.4C62.06 25.59 60.39 25.59 58.98 26.4L56.07 28.08L51.72 30.59L53.25 27.93C54.21 26.27 54.21 24.3 53.25 22.64C52.29 20.98 50.58 19.99 48.67 19.99C46.76 19.99 45.04 20.98 44.09 22.64C43.13 24.3 43.13 26.27 44.09 27.93L45.62 30.59L41.27 28.08L38.36 26.4C36.96 25.59 35.29 25.59 33.88 26.4C32.48 27.21 31.64 28.66 31.64 30.28C31.64 31.1 31.86 31.86 32.25 32.53H26.23C25 32.53 24 33.53 24 34.76V43.1C24 44.26 24.9 45.22 26.04 45.32V74.77C26.04 76 27.04 77 28.27 77H69.1C70.33 77 71.33 76 71.33 74.77V45.32C72.47 45.22 73.37 44.26 73.37 43.1V34.76C73.37 33.53 72.37 32.53 71.14 32.53H71.13ZM60.1 28.34C60.8 27.93 61.64 27.93 62.35 28.34C63.06 28.75 63.47 29.47 63.47 30.28C63.47 31.52 62.46 32.53 61.22 32.53H52.84L60.1 28.34ZM52.32 43.55H44.59V34.31H52.32V43.55ZM46.03 23.76C46.58 22.8 47.57 22.23 48.68 22.23C49.79 22.23 50.78 22.8 51.33 23.76C51.88 24.72 51.88 25.86 51.33 26.82L48.68 31.41L46.03 26.82C45.48 25.86 45.48 24.72 46.03 23.76ZM33.89 30.28C33.89 29.47 34.31 28.74 35.01 28.34C35.36 28.14 35.75 28.04 36.13 28.04C36.51 28.04 36.9 28.14 37.25 28.34L44.51 32.53H36.13C34.89 32.53 33.88 31.52 33.88 30.28H33.89ZM25.78 34.31H42.81V43.55H25.78V34.31ZM27.81 45.33H42.81V75.22H27.81V45.33ZM44.6 75.22V45.33H52.33V75.22H44.6ZM67.47 45.33H69.57V75.22H54.11V45.33H67.47ZM57.31 43.55H54.11V34.31H71.59V43.55H57.3H57.31Z" fill="black"/>
</g>
<defs>
<clipPath id="clip0_81_352">
<rect width="49.37" height="57" fill="white" transform="translate(24 20)"/>
</clipPath>
</defs>
</svg>
