<svg width="96" height="96" viewBox="0 0 96 96" fill="none" xmlns="http://www.w3.org/2000/svg">
<g clip-path="url(#clip0_81_87)">
<path d="M80.27 21H15.14C14.51 21 14 21.51 14 22.14V69.9C14 70.53 14.51 71.04 15.14 71.04L66.81 71.02L70.64 74.85C70.86 75.06 71.14 75.18 71.45 75.18C71.76 75.18 72.04 75.06 72.25 74.85L75.32 71.78C75.53 71.57 75.65 71.28 75.6 71.04H80.27C80.9 71.04 81.41 70.53 81.41 69.9V22.14C81.41 21.51 80.9 21 80.27 21ZM78.75 23.22H79.13L79.18 68.76L73.92 68.78L71.84 66.7H75.93C76.56 66.7 77.07 66.19 77.07 65.56V26.48C77.07 25.85 76.56 25.34 75.93 25.34H19.48C18.85 25.34 18.34 25.85 18.34 26.48V65.56C18.34 66.19 18.85 66.7 19.48 66.7L62.47 66.68L63.76 67.89L64.63 68.76L16.28 68.81L16.23 23.75V23.26L78.76 23.21L78.75 23.22ZM22.74 64.42L20.62 64.47L20.57 27.78V27.61L74.8 27.56L74.85 64.14V64.42L69.59 64.44L63.81 58.66C63.11 57.96 61.12 56.87 59.92 56.87C59.57 56.87 59.31 56.96 59.14 57.13L57.6 58.67C56.73 59.54 58.26 62.47 59.13 63.34L59.83 63.97L60.28 64.42H22.74ZM60.69 60.22C60.89 60.02 61.14 59.92 61.42 59.92C61.7 59.92 61.96 60.03 62.15 60.22L72.88 70.88L72.94 70.94L71.48 72.47L60.69 61.68C60.49 61.48 60.39 61.23 60.39 60.95C60.39 60.67 60.5 60.41 60.69 60.22Z" fill="black"/>
<path d="M55.59 46.45C55 45.99 54.3 45.76 53.5 45.76C52.88 45.76 52.21 45.9 51.5 46.19C50.84 46.46 50.18 46.59 49.54 46.59C48.39 46.59 47.43 46.14 46.84 45.33C45.87 43.99 45.78 41.41 48.45 38.21C49.61 36.81 49.89 35.64 49.26 34.74C48.93 34.26 48.31 33.71 46.46 33.71C44.79 33.71 42.33 34.15 38.93 35.04C34.87 36.11 30.95 37.48 30.91 37.5C30.32 37.71 30.02 38.37 30.23 38.96C30.39 39.41 30.82 39.71 31.3 39.71C31.42 39.71 31.54 39.69 31.66 39.65C31.69 39.64 35.21 38.41 39.05 37.37C43.26 36.23 45.4 35.99 46.46 35.99C46.72 35.99 46.91 36 47.05 36C47.11 36 47.14 36 47.18 35.98C47.19 35.98 47.21 35.98 47.22 35.98C47.07 36.25 46.9 36.51 46.69 36.75C43.18 40.96 43.51 44.63 44.99 46.67C46.02 48.09 47.63 48.88 49.51 48.88C50.44 48.88 51.38 48.69 52.33 48.31C52.77 48.13 53.16 48.04 53.48 48.04C53.77 48.04 54 48.11 54.19 48.25C55.29 49.1 55.3 52.24 55.13 53.62C55.09 53.92 55.17 54.22 55.36 54.46C55.55 54.7 55.82 54.85 56.12 54.89C56.17 54.89 56.26 54.89 56.26 54.89C56.83 54.89 57.32 54.46 57.39 53.89C57.46 53.32 58.01 48.31 55.59 46.44V46.45Z" fill="black"/>
<path d="M28.04 39.46C27.74 39.46 27.45 39.58 27.24 39.79L26.15 40.88C25.71 41.32 25.71 42.05 26.15 42.49C26.37 42.7 26.65 42.82 26.95 42.82C27.25 42.82 27.54 42.7 27.76 42.49L28.84 41.4C29.28 40.96 29.28 40.23 28.84 39.79C28.63 39.58 28.34 39.46 28.04 39.46Z" fill="black"/>
</g>
<defs>
<clipPath id="clip0_81_87">
<rect width="67.41" height="54.19" fill="white" transform="translate(14 21)"/>
</clipPath>
</defs>
</svg>
