<svg width="96" height="96" viewBox="0 0 96 96" fill="none" xmlns="http://www.w3.org/2000/svg">
<g clip-path="url(#clip0_81_294)">
<path d="M75.05 25.7H72.2V24.75C72.2 24.23 71.77 23.8 71.25 23.8H64.6V22.85C64.6 21.28 63.32 20 61.75 20C60.18 20 58.9 21.28 58.9 22.85V23.8H57V22.85C57 21.28 55.72 20 54.15 20C52.58 20 51.3 21.28 51.3 22.85V23.8H39.9V22.85C39.9 21.28 38.62 20 37.05 20C35.48 20 34.2 21.28 34.2 22.85V23.8H32.3V22.85C32.3 21.28 31.02 20 29.45 20C27.88 20 26.6 21.28 26.6 22.85V23.8H19.95C19.43 23.8 19 24.23 19 24.75V72.25C19 72.77 19.43 73.2 19.95 73.2H20.9V76.05C20.9 76.57 21.33 77 21.85 77H75.05C75.57 77 76 76.57 76 76.05V26.65C76 26.13 75.57 25.7 75.05 25.7ZM20.9 71.3V37.1H70.3V71.3H20.9ZM60.8 22.85C60.8 22.33 61.23 21.9 61.75 21.9C62.27 21.9 62.7 22.33 62.7 22.85V23.8H60.8V22.85ZM53.2 22.85C53.2 22.33 53.63 21.9 54.15 21.9C54.67 21.9 55.1 22.33 55.1 22.85V23.8H53.2V22.85ZM36.1 22.85C36.1 22.33 36.53 21.9 37.05 21.9C37.57 21.9 38 22.33 38 22.85V23.8H36.1V22.85ZM28.5 22.85C28.5 22.33 28.93 21.9 29.45 21.9C29.97 21.9 30.4 22.33 30.4 22.85V23.8H28.5V22.85ZM26.6 25.7V26.65C26.6 28.22 27.88 29.5 29.45 29.5C29.97 29.5 30.4 29.07 30.4 28.55C30.4 28.03 29.97 27.6 29.45 27.6C28.93 27.6 28.5 27.17 28.5 26.65V25.7H34.2V26.65C34.2 28.22 35.48 29.5 37.05 29.5C37.57 29.5 38 29.07 38 28.55C38 28.03 37.57 27.6 37.05 27.6C36.53 27.6 36.1 27.17 36.1 26.65V25.7H51.3V26.65C51.3 28.22 52.58 29.5 54.15 29.5C54.67 29.5 55.1 29.07 55.1 28.55C55.1 28.03 54.67 27.6 54.15 27.6C53.63 27.6 53.2 27.17 53.2 26.65V25.7H58.9V26.65C58.9 28.22 60.18 29.5 61.75 29.5C62.27 29.5 62.7 29.07 62.7 28.55C62.7 28.03 62.27 27.6 61.75 27.6C61.23 27.6 60.8 27.17 60.8 26.65V25.7H70.3V35.2H20.9V25.7H26.6ZM74.1 75.1H22.8V73.2H71.25C71.77 73.2 72.2 72.77 72.2 72.25V27.6H74.1V75.1Z" fill="black"/>
<path d="M44.65 58.9501C44.65 57.0401 43.69 55.2601 42.1 54.2001C44.72 52.4601 45.44 48.9201 43.7 46.3001C41.96 43.6801 38.42 42.9601 35.8 44.7001C34.21 45.7601 33.25 47.5401 33.25 49.4501C33.25 49.9701 33.68 50.4001 34.2 50.4001C34.72 50.4001 35.15 49.9701 35.15 49.4501C35.15 47.3501 36.85 45.6501 38.95 45.6501C41.05 45.6501 42.75 47.3501 42.75 49.4501C42.75 51.5501 41.05 53.2501 38.95 53.2501C38.43 53.2501 38 53.6801 38 54.2001C38 54.7201 38.43 55.1501 38.95 55.1501C41.05 55.1501 42.75 56.8501 42.75 58.9501C42.75 61.0501 41.05 62.7501 38.95 62.7501C36.85 62.7501 35.15 61.0501 35.15 58.9501C35.15 58.4301 34.72 58.0001 34.2 58.0001C33.68 58.0001 33.25 58.4301 33.25 58.9501C33.25 62.1001 35.8 64.6501 38.95 64.6501C42.1 64.6501 44.65 62.1001 44.65 58.9501Z" fill="black"/>
<path d="M52.25 64.65C55.4 64.65 57.95 62.1 57.95 58.95V49.45C57.95 46.3 55.4 43.75 52.25 43.75C49.1 43.75 46.55 46.3 46.55 49.45V58.95C46.55 62.1 49.1 64.65 52.25 64.65ZM48.45 49.45C48.45 47.35 50.15 45.65 52.25 45.65C54.35 45.65 56.05 47.35 56.05 49.45V58.95C56.05 61.05 54.35 62.75 52.25 62.75C50.15 62.75 48.45 61.05 48.45 58.95V49.45Z" fill="black"/>
</g>
<defs>
<clipPath id="clip0_81_294">
<rect width="57" height="57" fill="white" transform="translate(19 20)"/>
</clipPath>
</defs>
</svg>
