<svg width="96" height="96" viewBox="0 0 96 96" fill="none" xmlns="http://www.w3.org/2000/svg">
<g clip-path="url(#clip0_263_175)">
<path d="M81.15 72.97H80V68.57C80 67.41 79.06 66.47 77.9 66.47H77.83V59.9C77.83 58.74 76.89 57.8 75.73 57.8H59.42V51.65L62.37 48.7C62.77 48.3 62.77 47.66 62.37 47.27C61.97 46.88 61.33 46.87 60.94 47.27L59.42 48.79V44.74C59.42 44.18 58.97 43.73 58.41 43.73C57.85 43.73 57.4 44.18 57.4 44.74V53.42C51.86 52.91 47.52 48.24 47.52 42.57C47.52 36.56 52.41 31.67 58.42 31.67C64.43 31.67 69.32 36.56 69.32 42.57C69.32 44.81 68.65 46.96 67.38 48.78C66.14 50.57 64.41 51.93 62.39 52.72C61.87 52.92 61.61 53.51 61.81 54.03C62.01 54.55 62.6 54.81 63.12 54.61C65.52 53.67 67.56 52.06 69.04 49.94C70.55 47.77 71.35 45.22 71.35 42.57C71.35 35.44 65.55 29.65 58.43 29.65C51.31 29.65 45.51 35.45 45.51 42.57C45.51 49.69 50.77 54.94 57.42 55.45V57.79H45.44C44.28 57.79 43.34 58.73 43.34 59.89V66.46H43.27C42.11 66.46 41.17 67.4 41.17 68.56V72.96H38.78C38.29 69.9 35.63 67.55 32.43 67.55C32.03 67.55 31.63 67.59 31.24 67.67C30.96 67.72 30.63 67.62 30.35 67.38C29.96 67.06 29.55 66.77 29.12 66.52V59.79C36.37 59.27 42.11 53.2 42.11 45.82C42.11 43.41 41.48 41.03 40.29 38.93C39.64 37.79 39.44 36.47 39.71 35.12C39.9 34.17 39.97 33.2 39.92 32.23C39.77 29.26 38.48 26.45 36.29 24.33C34.09 22.24 31.25 21.05 28.27 21C25.07 20.95 22.05 22.16 19.78 24.4C17.5 26.64 16.25 29.64 16.25 32.84C16.25 33.7 16.35 34.57 16.54 35.41C16.8 36.57 16.63 37.73 16.07 38.66C14.65 41.03 13.97 43.75 14.1 46.52C14.37 52.08 18.11 57.11 23.41 59.02C23.94 59.21 24.52 58.94 24.71 58.41C24.9 57.88 24.63 57.3 24.1 57.11C19.56 55.47 16.35 51.17 16.12 46.41C16.01 44.04 16.59 41.72 17.8 39.69C18.63 38.3 18.88 36.62 18.51 34.95C18.35 34.25 18.27 33.54 18.27 32.83C18.27 30.18 19.31 27.7 21.2 25.84C23.09 23.98 25.59 22.98 28.24 23.02C33.31 23.1 37.64 27.28 37.89 32.35C37.93 33.15 37.87 33.96 37.71 34.74C37.35 36.55 37.63 38.4 38.51 39.95C39.53 41.74 40.06 43.77 40.06 45.83C40.06 52.09 35.23 57.25 29.09 57.77V48C29.09 47.44 28.64 46.99 28.08 46.99C27.52 46.99 27.07 47.44 27.07 48V65.69C26.35 65.49 25.59 65.39 24.83 65.39C20.43 65.39 16.8 68.71 16.3 72.97H14.01C13.45 72.97 13 73.42 13 73.98C13 74.54 13.45 74.99 14.01 74.99H81.14C81.7 74.99 82.15 74.54 82.15 73.98C82.15 73.42 81.7 72.97 81.14 72.97H81.15ZM77.97 68.57V72.97H59.42V68.5H77.9C77.9 68.5 77.97 68.53 77.97 68.57ZM59.42 66.47V64.17H75.8V66.47H59.42ZM45.41 59.83H75.73C75.73 59.83 75.8 59.86 75.8 59.9V62.14H45.34V59.9C45.34 59.9 45.37 59.83 45.41 59.83ZM45.34 64.16H57.39V66.46H45.34V64.16ZM43.17 68.56C43.17 68.56 43.2 68.49 43.24 68.49H57.39V72.96H43.17V68.56ZM31.61 69.65C31.88 69.6 32.15 69.57 32.41 69.57C34.49 69.57 36.23 71.02 36.69 72.96H29.09V68.98C29.84 69.57 30.75 69.82 31.61 69.65ZM24.83 67.4C25.6 67.4 26.35 67.54 27.07 67.8V72.96H18.35C18.84 69.82 21.56 67.41 24.84 67.41L24.83 67.4Z" fill="black"/>
</g>
<defs>
<clipPath id="clip0_263_175">
<rect width="69.16" height="54" fill="white" transform="translate(13 21)"/>
</clipPath>
</defs>
</svg>
