<svg width="96" height="96" viewBox="0 0 96 96" fill="none" xmlns="http://www.w3.org/2000/svg">
<g clip-path="url(#clip0_81_266)">
<path d="M55.34 28.08H62.88V29.04C62.88 31.17 64.62 32.91 66.75 32.91C68.88 32.91 70.62 31.17 70.62 29.04V28.08H78.16C78.51 28.08 78.84 27.9 79.02 27.6C79.21 27.3 79.23 26.93 79.08 26.62L76.95 22.19C75.77 19.73 73.24 18.15 70.52 18.15H67.78V14.02C67.78 13.46 67.32 13 66.76 13C66.2 13 65.74 13.46 65.74 14.02V18.15H63C62.65 18.15 62.29 18.18 61.93 18.23C61.37 18.31 60.99 18.83 61.08 19.39C61.16 19.95 61.68 20.33 62.24 20.24C62.49 20.2 62.75 20.18 63 20.18H70.52C72.47 20.18 74.27 21.31 75.12 23.07L76.55 26.04H56.98L58.41 23.07C58.64 22.58 58.95 22.14 59.33 21.75C59.72 21.34 59.71 20.7 59.3 20.31C58.89 19.92 58.25 19.93 57.86 20.34C57.34 20.89 56.9 21.51 56.57 22.19L54.44 26.62C54.29 26.94 54.31 27.31 54.5 27.6C54.69 27.9 55.01 28.08 55.36 28.08H55.34ZM68.58 28.08V29.04C68.58 30.05 67.76 30.87 66.75 30.87C65.74 30.87 64.92 30.05 64.92 29.04V28.08H68.59H68.58Z" fill="black"/>
<path d="M14.08 82.54C13.49 82.54 13 82.06 13 81.46C13 80.86 13.48 80.38 14.08 80.38H17.55C16.52 79.21 15.95 77.72 15.95 76.16V64.1C15.95 63.51 16.43 63.02 17.03 63.02C17.63 63.02 18.11 63.5 18.11 64.1V76.16C18.11 78.49 20 80.38 22.33 80.38H23.97C22.9 79.19 22.32 77.66 22.32 76.06V65.31C21.42 64.88 20.85 63.93 20.85 62.88V58.64C20.85 57.59 21.43 56.64 22.36 56.16L22.33 48.76C20.02 48.82 18.12 50.71 18.12 53.04V60.17C18.12 60.76 17.64 61.25 17.04 61.25C16.44 61.25 15.96 60.77 15.96 60.17V53.04C15.96 51.1 16.83 49.28 18.35 48.06L18.33 43.02C18.33 40.7 20.07 38.77 22.37 38.54L22.32 34.09C22.32 29.94 25.41 26.33 29.51 25.71C29.83 23.78 31.56 22.35 33.58 22.35H38.47C40.48 22.35 42.22 23.78 42.59 25.76C46.64 26.34 49.73 29.94 49.73 34.09V38.6C51.98 38.78 53.72 40.7 53.72 43.02V48.11C55.22 49.28 56.09 51.1 56.09 53.04V76.17C56.09 77.73 55.52 79.22 54.49 80.39H67.63C67.13 79.69 66.81 78.87 66.7 78.01C66.24 74.29 66.8 69.77 67.34 65.41C67.43 64.64 67.53 63.87 67.62 63.11C67.68 62.57 68.14 62.16 68.69 62.16H70.31C69.62 58.79 66.72 57.04 66.6 56.96C66.09 56.66 65.92 56 66.22 55.49C66.41 55.16 66.77 54.96 67.15 54.96C67.34 54.96 67.53 55.01 67.69 55.11C67.8 55.18 70.4 56.71 71.74 59.77C71.75 55.95 72.54 50.83 76.12 47.54C76.32 47.36 76.58 47.26 76.85 47.26C77.15 47.26 77.44 47.39 77.64 47.61C78.04 48.05 78.01 48.73 77.58 49.13C73.61 52.77 73.77 59.5 74.01 62.22L74.17 62.17C74.77 57.55 78.69 55.21 78.86 55.11C79.02 55.01 79.21 54.96 79.4 54.96C79.78 54.96 80.14 55.17 80.33 55.5C80.63 56.01 80.45 56.67 79.94 56.97C79.82 57.04 76.91 58.78 76.28 62.24L77.85 62.17C78.4 62.17 78.86 62.58 78.92 63.12L79.2 65.41C79.4 67.02 79.61 68.69 79.76 70.29C79.79 70.58 79.7 70.86 79.52 71.08C79.34 71.3 79.08 71.44 78.79 71.47H78.69C78.13 71.47 77.67 71.05 77.62 70.5C77.47 68.9 77.26 67.19 77.07 65.68L76.9 64.27L69.6 64.32L69.49 65.68C68.97 69.92 68.43 74.3 68.85 77.76C69.03 79.26 70.31 80.4 71.82 80.4H74.75C76.26 80.4 77.54 79.27 77.72 77.76C77.84 76.76 77.89 75.64 77.87 74.35C77.86 73.76 78.33 73.26 78.93 73.25C79.53 73.25 80.02 73.72 80.03 74.31C80.06 75.7 80 76.92 79.87 78.02C79.76 78.88 79.45 79.7 78.94 80.4H81.54C82.13 80.4 82.62 80.88 82.62 81.48C82.62 82.08 82.14 82.56 81.54 82.56H14.08V82.54ZM49.71 80.39C52.04 80.39 53.93 78.5 53.93 76.17V53.04C53.93 50.72 52.05 48.83 49.72 48.82V56.21C50.62 56.64 51.19 57.59 51.19 58.64V62.88C51.19 63.93 50.61 64.88 49.68 65.36L49.71 76.06C49.71 77.66 49.12 79.19 48.06 80.38H49.7L49.71 80.39ZM24.47 76.07C24.47 78.45 26.41 80.39 28.79 80.39H43.25C45.63 80.39 47.57 78.45 47.57 76.07V65.62L45.42 65.68L45.48 73.5C45.48 75.27 44.04 76.7 42.28 76.7H41.47C39.7 76.7 38.27 75.26 38.27 73.5V65.62L33.72 65.68L33.78 73.5C33.78 75.27 32.34 76.7 30.58 76.7H29.77C28 76.7 26.57 75.26 26.57 73.5V65.62L24.48 65.68V76.07H24.47ZM40.42 73.5C40.42 74.08 40.89 74.55 41.47 74.55H42.28C42.86 74.55 43.33 74.08 43.33 73.5V65.62L40.42 65.68V73.5ZM28.71 73.5C28.71 74.08 29.18 74.55 29.76 74.55H30.57C31.15 74.55 31.62 74.08 31.62 73.5V65.62L28.71 65.68V73.5ZM23.63 58C23.28 58 22.99 58.29 22.99 58.64V62.88C22.99 63.23 23.28 63.52 23.63 63.52H48.4C48.75 63.52 49.04 63.23 49.04 62.88V58.64C49.04 58.29 48.75 58 48.4 58H23.63ZM46.9 43.35C45.16 44.06 44.03 45.74 44.03 47.63V55.9L47.63 55.84L47.57 43.07L46.9 43.34V43.35ZM29.38 27.92C26.53 28.57 24.46 31.15 24.46 34.09V40.79L25.94 41.36C28.5 42.41 30.15 44.87 30.15 47.63V55.9L41.93 55.84L41.87 47.63C41.87 44.87 43.52 42.4 46.08 41.36L47.6 40.74L47.56 34.09C47.56 31.13 45.46 28.53 42.57 27.91L42.64 29.85C42.64 32.16 40.76 34.04 38.45 34.04H33.56C31.25 34.04 29.37 32.16 29.37 29.85V27.93L29.38 27.92ZM24.46 55.9L28.06 55.84L28 47.63C28 45.75 26.87 44.07 25.13 43.35L24.46 43.08V55.91V55.9ZM22.31 40.72C21.24 40.96 20.48 41.91 20.48 43.01V47.01C21.02 46.76 21.67 46.66 22.33 46.66V40.72H22.31ZM50.1 46.7C50.62 46.7 51.13 46.8 51.64 46.95L51.56 43.01C51.56 41.91 50.79 40.96 49.73 40.72V46.72C49.86 46.71 49.98 46.7 50.11 46.7H50.1ZM33.57 24.49C32.45 24.49 31.53 25.4 31.53 26.53V29.84C31.53 30.96 32.44 31.88 33.57 31.88H38.46C39.58 31.88 40.5 30.97 40.5 29.84V26.53C40.5 25.41 39.59 24.49 38.46 24.49H33.57Z" fill="black"/>
<path d="M81.52 80.44H78.8C79.32 79.75 79.67 78.91 79.78 78C79.92 76.89 79.97 75.68 79.94 74.3C79.93 73.74 79.46 73.29 78.9 73.3C78.34 73.31 77.89 73.77 77.9 74.34C77.92 75.63 77.88 76.75 77.75 77.76C77.56 79.29 76.26 80.45 74.72 80.45H71.79C70.25 80.45 68.95 79.29 68.76 77.76C68.33 74.29 68.88 69.91 69.4 65.67C69.46 65.2 69.52 64.73 69.57 64.26H76.93C76.99 64.73 77.04 65.2 77.1 65.66C77.3 67.26 77.5 68.9 77.65 70.48C77.7 71.04 78.2 71.45 78.76 71.4C79.32 71.35 79.73 70.85 79.68 70.29C79.53 68.69 79.32 67.02 79.12 65.41C79.03 64.64 78.93 63.88 78.84 63.12C78.78 62.61 78.35 62.22 77.83 62.22H76.21C76.84 58.76 79.75 57 79.89 56.91C80.37 56.63 80.54 56.01 80.26 55.52C79.98 55.03 79.35 54.87 78.87 55.15C78.69 55.25 74.8 57.56 74.15 62.22H73.93C73.71 59.79 73.47 52.79 77.51 49.08C77.92 48.7 77.95 48.06 77.57 47.64C77.19 47.23 76.55 47.2 76.13 47.58C72.38 51.02 71.74 56.53 71.77 60.06C70.48 56.85 67.77 55.24 67.63 55.15C67.15 54.87 66.53 55.03 66.24 55.52C65.96 56 66.12 56.63 66.6 56.91C66.74 56.99 69.65 58.75 70.28 62.22H68.66C68.14 62.22 67.71 62.61 67.65 63.12C67.56 63.88 67.47 64.65 67.37 65.42C66.83 69.78 66.27 74.29 66.73 78.01C66.84 78.92 67.19 79.76 67.71 80.45H54.31C55.35 79.32 55.98 77.82 55.98 76.17V53.04C55.98 51.05 55.05 49.27 53.61 48.11V43.02C53.61 40.72 51.86 38.83 49.62 38.6V34.09C49.62 29.91 46.54 26.39 42.48 25.77C42.12 23.86 40.44 22.41 38.42 22.41H33.53C31.51 22.41 29.83 23.86 29.47 25.77C25.41 26.39 22.33 29.92 22.33 34.09V38.6C20.09 38.83 18.34 40.73 18.34 43.02V48.11C16.9 49.27 15.97 51.05 15.97 53.04V60.17C15.97 60.73 16.43 61.19 16.99 61.19C17.55 61.19 18.01 60.73 18.01 60.17V53.04C18.01 50.68 19.93 48.76 22.29 48.76H22.34V56.21C21.46 56.67 20.86 57.58 20.86 58.64V62.88C20.86 63.93 21.46 64.85 22.34 65.31V76.07C22.34 77.76 23 79.3 24.07 80.45H22.29C19.93 80.45 18.01 78.53 18.01 76.17V64.11C18.01 63.55 17.55 63.09 16.99 63.09C16.43 63.09 15.97 63.55 15.97 64.11V76.17C15.97 77.82 16.61 79.32 17.64 80.45H14.08C13.52 80.45 13.06 80.91 13.06 81.47C13.06 82.03 13.52 82.49 14.08 82.49H81.52C82.08 82.49 82.54 82.03 82.54 81.47C82.54 80.91 82.08 80.45 81.52 80.45V80.44ZM51.61 43.01V47.01C51.01 46.82 50.37 46.72 49.7 46.72H49.65V40.65C50.76 40.86 51.6 41.84 51.6 43.02L51.61 43.01ZM43.38 65.61V73.48C43.38 74.09 42.88 74.59 42.27 74.59H41.46C40.85 74.59 40.35 74.09 40.35 73.48V65.61H43.38ZM23.63 63.57C23.24 63.57 22.93 63.26 22.93 62.87V58.63C22.93 58.24 23.24 57.93 23.63 57.93H48.4C48.79 57.93 49.1 58.24 49.1 58.63V62.87C49.1 63.26 48.79 63.57 48.4 63.57H23.63ZM31.67 65.61V73.48C31.67 74.09 31.17 74.59 30.56 74.59H29.75C29.14 74.59 28.64 74.09 28.64 73.48V65.61H31.67ZM24.4 42.98L25.15 43.29C26.92 44.01 28.06 45.71 28.06 47.62V55.89H24.4V42.98ZM47.62 55.89H43.96V47.62C43.96 45.71 45.1 44.01 46.87 43.29L47.62 42.98V55.89ZM31.47 26.53C31.47 25.37 32.41 24.43 33.57 24.43H38.46C39.62 24.43 40.56 25.37 40.56 26.53V29.84C40.56 31 39.62 31.94 38.46 31.94H33.57C32.41 31.94 31.47 31 31.47 29.84V26.53ZM29.43 27.84V29.84C29.43 32.12 31.28 33.97 33.56 33.97H38.45C40.73 33.97 42.58 32.12 42.58 29.84V27.84C45.47 28.46 47.61 31.04 47.61 34.08V40.78L46.09 41.4C43.56 42.44 41.92 44.88 41.92 47.62V55.89H30.09V47.62C30.09 44.88 28.45 42.44 25.92 41.4L24.4 40.78V34.08C24.4 31.04 26.55 28.46 29.43 27.84ZM22.31 46.72C21.65 46.72 21.01 46.82 20.4 47.01V43.01C20.4 41.84 21.24 40.86 22.35 40.64V46.71H22.3L22.31 46.72ZM28.77 80.44C26.36 80.44 24.39 78.48 24.39 76.06V65.61H26.6V73.49C26.6 75.22 28.01 76.63 29.74 76.63H30.55C32.28 76.63 33.69 75.22 33.69 73.49V65.61H38.3V73.49C38.3 75.22 39.71 76.63 41.44 76.63H42.25C43.98 76.63 45.39 75.22 45.39 73.49V65.61H47.6V76.06C47.6 78.47 45.64 80.44 43.22 80.44H28.76H28.77ZM47.91 80.44C48.98 79.29 49.64 77.75 49.64 76.06V65.3C50.52 64.84 51.12 63.93 51.12 62.87V58.63C51.12 57.58 50.52 56.66 49.64 56.2V48.75H49.69C52.05 48.75 53.97 50.67 53.97 53.03V76.16C53.97 78.52 52.05 80.44 49.69 80.44H47.91Z" fill="black"/>
<path d="M34.4 30.49H37.63C38.19 30.49 38.65 30.03 38.65 29.47C38.65 28.91 38.19 28.45 37.63 28.45H34.4C33.84 28.45 33.38 28.91 33.38 29.47C33.38 30.03 33.84 30.49 34.4 30.49Z" fill="black"/>
</g>
<defs>
<clipPath id="clip0_81_266">
<rect width="69.6" height="69.54" fill="white" transform="translate(13 13)"/>
</clipPath>
</defs>
</svg>
