<svg width="96" height="96" viewBox="0 0 96 96" fill="none" xmlns="http://www.w3.org/2000/svg">
<g clip-path="url(#clip0_81_139)">
<mask id="mask0_81_139" style="mask-type:luminance" maskUnits="userSpaceOnUse" x="19" y="19" width="58" height="58">
<path d="M76.78 19H19V76.78H76.78V19Z" fill="white"/>
</mask>
<g mask="url(#mask0_81_139)">
<path d="M51.12 67.07H22.39C20.52 67.07 19 65.55 19 63.68V26.9C19 25.03 20.52 23.51 22.39 23.51H24.65C25.27 23.51 25.78 24.02 25.78 24.64C25.78 25.26 25.27 25.77 24.65 25.77H22.39C21.77 25.77 21.26 26.28 21.26 26.9V63.69C21.26 64.31 21.77 64.82 22.39 64.82H51.13C51.75 64.82 52.26 65.33 52.26 65.95C52.26 66.57 51.75 67.08 51.13 67.08L51.12 67.07Z" fill="black"/>
<path d="M40.78 25.77H29.16C28.54 25.77 28.03 25.26 28.03 24.64C28.03 24.02 28.54 23.51 29.16 23.51H40.78C41.4 23.51 41.91 24.02 41.91 24.64C41.91 25.26 41.4 25.77 40.78 25.77Z" fill="black"/>
<path d="M56.92 25.77H45.3C44.68 25.77 44.17 25.26 44.17 24.64C44.17 24.02 44.68 23.51 45.3 23.51H56.92C57.54 23.51 58.05 24.02 58.05 24.64C58.05 25.26 57.54 25.77 56.92 25.77Z" fill="black"/>
<path d="M68.2 52.99C67.58 52.99 67.07 52.48 67.07 51.86V26.9C67.07 26.28 66.56 25.77 65.94 25.77H61.43C60.81 25.77 60.3 25.26 60.3 24.64C60.3 24.02 60.81 23.51 61.43 23.51H65.94C67.81 23.51 69.33 25.03 69.33 26.9V51.86C69.33 52.48 68.82 52.99 68.2 52.99Z" fill="black"/>
<path d="M68.2 35.14H20.13C19.51 35.14 19 34.63 19 34.01C19 33.39 19.51 32.88 20.13 32.88H68.2C68.82 32.88 69.33 33.39 69.33 34.01C69.33 34.63 68.82 35.14 68.2 35.14Z" fill="black"/>
<path d="M59.18 30.29C57.31 30.29 55.79 28.77 55.79 26.9V22.39C55.79 20.52 57.31 19 59.18 19C60.08 19 60.93 19.35 61.57 19.99C62.21 20.63 62.56 21.48 62.56 22.38V26.89C62.56 28.76 61.04 30.28 59.17 30.28L59.18 30.29ZM59.18 21.26C58.56 21.26 58.05 21.77 58.05 22.39V26.9C58.05 27.52 58.56 28.03 59.18 28.03C59.8 28.03 60.31 27.52 60.31 26.9V22.39C60.31 22.09 60.19 21.81 59.98 21.59C59.77 21.38 59.48 21.26 59.18 21.26Z" fill="black"/>
<path d="M26.9 30.29C25.03 30.29 23.51 28.77 23.51 26.9V22.39C23.51 20.52 25.03 19 26.9 19C27.8 19 28.65 19.35 29.29 19.99C29.93 20.63 30.28 21.48 30.28 22.38V26.89C30.28 28.76 28.76 30.28 26.89 30.28L26.9 30.29ZM26.9 21.26C26.28 21.26 25.77 21.77 25.77 22.39V26.9C25.77 27.52 26.28 28.03 26.9 28.03C27.52 28.03 28.03 27.52 28.03 26.9V22.39C28.03 22.09 27.91 21.81 27.7 21.59C27.49 21.38 27.2 21.26 26.9 21.26Z" fill="black"/>
<path d="M43.04 30.29C41.17 30.29 39.65 28.77 39.65 26.9V22.39C39.65 20.52 41.17 19 43.04 19C43.94 19 44.79 19.35 45.43 19.99C46.07 20.63 46.42 21.48 46.42 22.38V26.89C46.42 28.76 44.9 30.28 43.03 30.28L43.04 30.29ZM43.04 21.26C42.42 21.26 41.91 21.77 41.91 22.39V26.9C41.91 27.52 42.42 28.03 43.04 28.03C43.66 28.03 44.17 27.52 44.17 26.9V22.39C44.17 22.09 44.05 21.81 43.84 21.59C43.63 21.37 43.34 21.26 43.04 21.26Z" fill="black"/>
<path d="M70.01 64.37H63.24C62.62 64.37 62.11 63.86 62.11 63.24V56.47C62.11 55.85 62.62 55.34 63.24 55.34C63.86 55.34 64.37 55.85 64.37 56.47V62.11H70.01C70.63 62.11 71.14 62.62 71.14 63.24C71.14 63.86 70.63 64.37 70.01 64.37Z" fill="black"/>
<path d="M34.01 42.25H26.9C26.28 42.25 25.77 41.74 25.77 41.12C25.77 40.5 26.28 39.99 26.9 39.99H34.01C34.63 39.99 35.14 40.5 35.14 41.12C35.14 41.74 34.63 42.25 34.01 42.25Z" fill="black"/>
<path d="M47.89 42.25H40.78C40.16 42.25 39.65 41.74 39.65 41.12C39.65 40.5 40.16 39.99 40.78 39.99H47.89C48.51 39.99 49.02 40.5 49.02 41.12C49.02 41.74 48.51 42.25 47.89 42.25Z" fill="black"/>
<path d="M34.01 49.02H26.9C26.28 49.02 25.77 48.51 25.77 47.89C25.77 47.27 26.28 46.76 26.9 46.76H34.01C34.63 46.76 35.14 47.27 35.14 47.89C35.14 48.51 34.63 49.02 34.01 49.02Z" fill="black"/>
<path d="M36.27 62.5601H26.9C26.28 62.5601 25.77 62.05 25.77 61.43C25.77 60.81 26.28 60.3 26.9 60.3H36.27C36.89 60.3 37.4 60.81 37.4 61.43C37.4 62.05 36.89 62.5601 36.27 62.5601Z" fill="black"/>
<path d="M47.89 49.02H40.78C40.16 49.02 39.65 48.51 39.65 47.89C39.65 47.27 40.16 46.76 40.78 46.76H47.89C48.51 46.76 49.02 47.27 49.02 47.89C49.02 48.51 48.51 49.02 47.89 49.02Z" fill="black"/>
<path d="M34.01 55.79H26.9C26.28 55.79 25.77 55.28 25.77 54.66C25.77 54.04 26.28 53.53 26.9 53.53H34.01C34.63 53.53 35.14 54.04 35.14 54.66C35.14 55.28 34.63 55.79 34.01 55.79Z" fill="black"/>
<path d="M47.89 55.79H40.78C40.16 55.79 39.65 55.28 39.65 54.66C39.65 54.04 40.16 53.53 40.78 53.53H47.89C48.51 53.53 49.02 54.04 49.02 54.66C49.02 55.28 48.51 55.79 47.89 55.79Z" fill="black"/>
<path d="M61.43 42.25H54.66C54.04 42.25 53.53 41.74 53.53 41.12C53.53 40.5 54.04 39.99 54.66 39.99H61.43C62.05 39.99 62.56 40.5 62.56 41.12C62.56 41.74 62.05 42.25 61.43 42.25Z" fill="black"/>
<path d="M63.24 76.7799C60.14 76.7799 57.11 75.7099 54.71 73.7599C52.34 71.8399 50.68 69.1499 50.02 66.1899C49.81 65.2199 49.7 64.23 49.7 63.24C49.7 55.77 55.77 49.7 63.24 49.7C65.12 49.7 66.95 50.08 68.66 50.83C73.6 52.99 76.78 57.86 76.78 63.24C76.78 70.71 70.71 76.7799 63.24 76.7799ZM63.24 51.95C57.02 51.95 51.95 57.01 51.95 63.24C51.95 64.07 52.04 64.9 52.22 65.7C52.77 68.16 54.16 70.4 56.13 72C58.13 73.62 60.65 74.52 63.24 74.52C69.46 74.52 74.53 69.4599 74.53 63.2299C74.53 58.74 71.87 54.68 67.76 52.88C66.33 52.26 64.82 51.9399 63.25 51.9399L63.24 51.95Z" fill="black"/>
</g>
</g>
<defs>
<clipPath id="clip0_81_139">
<rect width="57.78" height="57.78" fill="white" transform="translate(19 19)"/>
</clipPath>
</defs>
</svg>
