<svg width="96" height="96" viewBox="0 0 96 96" fill="none" xmlns="http://www.w3.org/2000/svg">
<g clip-path="url(#clip0_263_190)">
<path d="M64.43 76H30.17C27.87 76 26.01 74.13 26 71.83V45.75C26 43.45 27.87 41.59 30.17 41.58H64.44C66.74 41.58 68.6 43.45 68.61 45.75V71.83C68.61 74.13 66.74 75.99 64.44 76H64.43ZM30.17 43.4C28.87 43.4 27.83 44.45 27.82 45.75V71.83C27.82 73.13 28.87 74.17 30.17 74.18H64.44C65.74 74.18 66.78 73.13 66.79 71.83V45.75C66.79 44.45 65.74 43.41 64.44 43.4H30.17Z" fill="black"/>
<path d="M51.89 61.82C51.65 61.82 51.42 61.72 51.25 61.55C49.07 59.37 45.53 59.37 43.35 61.55C42.99 61.91 42.42 61.91 42.06 61.55C41.7 61.19 41.7 60.62 42.06 60.26C44.95 57.37 49.64 57.37 52.54 60.26C52.9 60.62 52.9 61.19 52.54 61.55C52.37 61.72 52.14 61.82 51.9 61.82H51.89Z" fill="black"/>
<path d="M55.19 58.52C54.95 58.52 54.72 58.42 54.55 58.25C50.55 54.25 44.06 54.25 40.06 58.25C39.7 58.61 39.13 58.61 38.77 58.25C38.41 57.89 38.41 57.32 38.77 56.96C43.48 52.25 51.12 52.25 55.84 56.96C56.2 57.32 56.2 57.89 55.84 58.25C55.67 58.42 55.44 58.52 55.2 58.52H55.19Z" fill="black"/>
<path d="M58.49 55.22C58.25 55.22 58.02 55.12 57.85 54.95C52.03 49.13 42.59 49.13 36.76 54.95C36.41 55.31 35.83 55.31 35.47 54.96C35.11 54.61 35.11 54.0299 35.46 53.6699C35.46 53.6699 35.46 53.67 35.47 53.66C42 47.13 52.6 47.13 59.13 53.66C59.49 54.02 59.49 54.59 59.13 54.95C58.96 55.12 58.73 55.22 58.49 55.22Z" fill="black"/>
<path d="M51.89 61.82C51.65 61.82 51.42 61.72 51.25 61.55C49.07 59.37 45.53 59.37 43.35 61.55C42.99 61.91 42.42 61.91 42.06 61.55C41.7 61.19 41.7 60.62 42.06 60.26C44.95 57.37 49.64 57.37 52.54 60.26C52.9 60.62 52.9 61.19 52.54 61.55C52.37 61.72 52.14 61.82 51.9 61.82H51.89Z" fill="black"/>
<path d="M47.3 68.8099C45.47 68.8099 43.99 67.3299 43.99 65.4999C43.99 63.6699 45.47 62.1899 47.3 62.1899C49.13 62.1899 50.61 63.6699 50.61 65.4999C50.61 67.3299 49.13 68.8099 47.3 68.8099ZM47.3 64.0099C46.48 64.0099 45.81 64.6799 45.81 65.4999C45.81 66.3199 46.48 66.9899 47.3 66.9899C48.12 66.9899 48.79 66.3199 48.79 65.4999C48.79 64.6799 48.12 64.0099 47.3 64.0099Z" fill="black"/>
<path d="M60.99 43.4H55.89C55.39 43.4 54.98 42.99 54.98 42.49V33.6C54.98 29.35 51.54 25.91 47.29 25.92C43.05 25.92 39.61 29.36 39.61 33.6V42.49C39.61 42.99 39.2 43.4 38.7 43.4H33.6C33.1 43.4 32.69 42.99 32.69 42.49V33.6C32.69 25.53 39.23 19 47.29 19C55.35 19 61.89 25.54 61.89 33.6V42.49C61.89 42.99 61.48 43.4 60.98 43.4H60.99ZM56.8 41.58H60.08V33.6C60.08 26.54 54.36 20.82 47.3 20.82C40.24 20.82 34.52 26.54 34.52 33.6V41.58H37.8V33.6C37.8 28.35 42.06 24.09 47.31 24.09C52.56 24.09 56.82 28.35 56.82 33.6V41.58H56.8Z" fill="black"/>
</g>
<defs>
<clipPath id="clip0_263_190">
<rect width="42.6" height="57" fill="white" transform="translate(26 19)"/>
</clipPath>
</defs>
</svg>
