<?xml version="1.0" encoding="utf-8"?>
<!-- Generator: Adobe Illustrator 27.6.1, SVG Export Plug-In . SVG Version: 6.00 Build 0)  -->
<svg version="1.1" id="Layer_1" xmlns="http://www.w3.org/2000/svg" xmlns:xlink="http://www.w3.org/1999/xlink" x="0px" y="0px"
	 viewBox="0 0 500 500" style="enable-background:new 0 0 500 500;" xml:space="preserve">
<style type="text/css">
	.st0{fill:#232644;}
	.st1{fill:#FCD297;}
</style>
<g>
	<g>
		<g>
			<path class="st0" d="M66.37,310.49c-4.35-1.85-5.37-3.59-5.37-6.79c0-3.99,2.06-5.4,5.14-5.4c1.79,0,3.68,0.42,5.33,1.07
				c1.02,0.42,2.02,0.98,3.17,1.69l1.15-2.53c-1.87-0.79-5.28-1.99-9.56-1.99c-6.16,0-13.56,2.56-13.56,9.99
				c0,6.32,4.32,8.65,8.76,10.75c4.74,2.2,7.27,3.25,7.27,7.73c0,3.41-1.66,5.56-5.44,5.81c-0.17-2.04-0.82-5.44-3.15-7.58
				c-3.51-3.23-9.52-2.38-9.52-2.38s-0.24,4.61,2.02,7.93c0.32,0.5,0.71,0.96,1.16,1.38c0.86,0.78,1.85,1.33,2.88,1.7
				c0.03,0.01,0.07,0.03,0.09,0.03c1.95,0.7,3.98,0.78,5.25,0.74c0.21,0.01,0.44,0.01,0.66,0.01c8.73,0,14.38-4.49,14.38-10.67
				C77.04,315.68,71.87,312.82,66.37,310.49z"/>
			<path class="st0" d="M97.66,304.22c-3.66,0-6.4,1.77-8.31,4.75h-0.28l0.43-4.5l-8.42,0.43l0.25,2.84v33.74l-0.25,2.92l8.98-0.51
				l-0.25-2.5v-9.17c1.29,0.33,2.38,0.44,3.67,0.44c9.64,0,14.91-5.72,14.91-15.24C108.38,308.64,104.25,304.22,97.66,304.22z
				 M93.28,330.89c-1.3,0-2.36-0.19-3.48-0.54v-20.3c1.23-1.37,3.08-2.6,4.94-2.6c3.11,0,4.74,2.21,4.74,10.68
				C99.48,328.71,96.56,330.89,93.28,330.89z"/>
			<path class="st0" d="M156.38,305.77c1.46,0,2.41,0.25,3.51,0.84c0.82,0.47,1.74,1.11,2.7,1.9l1.37-2.41
				c-2.05-1.23-4.43-1.97-8.19-1.97c-9.71,0-14.79,7.19-14.79,14.94c0,7.77,5.14,13.55,12.8,13.55c5.45,0,8.52-2.53,10.11-3.9
				l-0.56-1.15c-1.33,0.82-3.31,1.46-5.14,1.46c-5.36,0-7.35-4.75-7.35-11.59C150.82,309.51,153.33,305.77,156.38,305.77z"/>
			<path class="st0" d="M179.68,304.14c-8.45,0-13.67,6.01-13.67,14.63c0,7.18,3.59,13.86,13.29,13.86c5.48,0,9.01-2.13,11.23-3.95
				l-0.56-1.1c-1.79,0.98-3.82,1.62-6.25,1.62c-6.52,0-8.46-4.04-8.6-11.22h16.36l0.17-0.12c0.13-0.44,0.28-0.95,0.28-2.3
				C191.94,309.31,188.38,304.14,179.68,304.14z M184.02,316.43l-8.86,0.32c0.31-7.08,1.69-11.06,5.09-11.06
				c2.69,0,3.79,1.87,3.79,5.69C184.03,311.81,184.03,314.92,184.02,316.43z"/>
			<polygon class="st0" points="244.36,299.94 244.46,297.12 235.74,297.12 226.56,322.03 226.16,322.03 217.07,297.12 
				207.75,297.12 207.86,299.94 206.24,328.89 205.81,332.01 208.93,332.01 208.82,328.89 210.06,303.32 210.47,303.32 
				220.7,330.98 225.75,330.98 236.04,303.52 236.42,303.52 236.36,307.57 237.52,328.89 237.42,332.01 246.41,332.01 
				245.94,328.87 			"/>
			<path class="st0" d="M265.19,304.14c-10.35,0-14.98,7.22-14.98,14.79c0,8.17,5.5,13.7,14.18,13.7c9.76,0,14.98-6.79,14.98-14.62
				C279.37,310.28,273.87,304.14,265.19,304.14z M264.88,330.92c-3.76,0-5.53-4.32-5.53-12.75c0-9.06,2.12-12.42,5.25-12.42
				c3.57,0,5.62,4.43,5.62,12.83C270.22,326.51,268.43,330.92,264.88,330.92z"/>
			<path class="st0" d="M307.3,316.43c0-6.36,0-12.29-11.01-12.29c-5.96,0-9.69,1.74-11.97,2.95l0.68,1.43
				c1.26-0.59,2.16-0.92,3.17-1.18c1.23-0.28,2.44-0.42,3.71-0.42c4.85,0,6.56,1.97,6.56,6.45v2.41c-5.89,0-15.95,1.02-15.95,9.16
				c0,3.28,1.61,7.69,7.06,7.69c4.94,0,7.66-2.38,9.51-4.97h0.31l-0.39,4.66l8.58-0.48l-0.27-2.95V316.43z M298.45,323.65
				c-0.24,0.82-0.62,1.61-1.16,2.3c-1.12,1.39-2.81,2.16-4.39,2.56c-2.2,0.58-4.19,0.48-4.19,0.48s-1.55-5.7,1.14-9.04
				c1.41-1.75,3.71-2.5,5.57-2.81c0.04-0.01,0.08-0.03,0.11-0.03c0.36-0.07,0.74-0.12,1.14-0.15c0.12-0.01,0.23-0.01,0.35-0.03
				c0.43-0.03,0.78-0.04,1.03-0.04c0.13-0.01,0.27-0.01,0.42-0.01C298.45,316.89,299.3,320.83,298.45,323.65z"/>
			<path class="st0" d="M136.28,316.43c0-6.36,0-12.29-11.01-12.29c-5.96,0-9.69,1.74-11.97,2.95l0.68,1.43
				c1.26-0.59,2.16-0.92,3.17-1.18c1.23-0.28,2.44-0.42,3.71-0.42c4.85,0,6.56,1.97,6.56,6.45v2.41c-5.89,0-15.95,1.02-15.95,9.16
				c0,3.28,1.61,7.69,7.06,7.69c4.94,0,7.66-2.38,9.51-4.97h0.31l-0.39,4.66l8.58-0.48l-0.27-2.95V316.43z M127.43,323.65
				c-0.24,0.82-0.62,1.61-1.16,2.3c-1.12,1.39-2.81,2.16-4.39,2.56c-2.2,0.58-4.19,0.48-4.19,0.48s-1.55-5.7,1.14-9.04
				c1.41-1.75,3.71-2.5,5.57-2.81c0.04-0.01,0.08-0.03,0.11-0.03c0.36-0.07,0.74-0.12,1.14-0.15c0.12-0.01,0.23-0.01,0.35-0.03
				c0.43-0.03,0.78-0.04,1.03-0.04c0.13-0.01,0.27-0.01,0.42-0.01C127.43,316.89,128.29,320.83,127.43,323.65z"/>
			<path class="st0" d="M337.68,316.43c0-6.36,0-12.29-11.01-12.29c-5.96,0-9.69,1.74-11.97,2.95l0.68,1.43
				c1.26-0.59,2.16-0.92,3.17-1.18c1.23-0.28,2.44-0.42,3.71-0.42c4.85,0,6.56,1.97,6.56,6.45v2.41c-5.89,0-15.95,1.02-15.95,9.16
				c0,3.28,1.61,7.69,7.06,7.69c4.94,0,7.66-2.38,9.51-4.97h0.31l-0.39,4.66l8.58-0.48l-0.27-2.95V316.43z M328.83,323.65
				c-0.24,0.82-0.62,1.61-1.16,2.3c-1.12,1.39-2.81,2.16-4.39,2.56c-2.2,0.58-4.19,0.48-4.19,0.48s-1.55-5.7,1.14-9.04
				c1.41-1.75,3.71-2.5,5.57-2.81c0.04-0.01,0.08-0.03,0.11-0.03c0.36-0.07,0.74-0.12,1.14-0.15c0.12-0.01,0.23-0.01,0.35-0.03
				c0.43-0.03,0.78-0.04,1.03-0.04c0.13-0.01,0.27-0.01,0.42-0.01C328.83,316.89,329.68,320.83,328.83,323.65z"/>
			<path class="st0" d="M359.85,304.22c-3.51,0-6.12,1.55-8.29,4.73h-0.31l0.7-4.19v-13.24l-8.69,0.47l0.25,2.66v34.22l-0.25,2.38
				c2.82,0.66,6.43,1.38,12.4,1.38c9.8,0,14.94-5.76,14.94-15.21C370.6,308.54,366.43,304.22,359.85,304.22z M355.47,330.89
				c-1.07,0-2.12-0.13-3.48-0.47v-20.36c1.23-1.34,3.05-2.6,4.97-2.6c3.08,0,4.74,2.13,4.74,10.6
				C361.69,328.67,358.83,330.89,355.47,330.89z"/>
			<path class="st0" d="M388.86,304.14c-10.34,0-14.97,7.22-14.97,14.79c0,8.17,5.5,13.7,14.18,13.7c9.76,0,14.98-6.79,14.98-14.62
				C403.05,310.28,397.54,304.14,388.86,304.14z M388.55,330.92c-3.76,0-5.53-4.32-5.53-12.75c0-9.06,2.13-12.42,5.25-12.42
				c3.59,0,5.64,4.43,5.64,12.83C393.91,326.51,392.11,330.92,388.55,330.92z"/>
			<path class="st0" d="M441.3,332.01h9.16l-0.25-3.12v-16.36c0-5.42-1.71-8.39-7.58-8.39c-5.3,0-7.91,2.97-9.63,5.09h-0.35
				c-0.78-3.29-2.97-5.09-6.92-5.09c-5.22,0-7.81,3.04-9.41,5.09h-0.28l0.43-4.73l-8.47,0.43l0.27,2.64v21.33l-0.29,3.12h9.17
				l-0.25-3.12v-18.82c1.3-1.02,2.5-1.78,4.69-1.78c3.07,0,3.29,2.33,3.29,4.98v15.62l-0.25,3.12h9.14l-0.25-3.12v-18.82
				c1.43-1.04,2.61-1.78,4.78-1.78c3.08,0,3.28,2.5,3.28,5.37v15.24L441.3,332.01z"/>
		</g>
	</g>
	<path class="st1" d="M330.71,249.42l-12.47-101.09c-1.29-10.56-10.27-18.49-20.89-18.49c-6.25,0-12.19,2.79-16.19,7.57
		c-7.97,9.57-19.31,14.36-30.66,14.36c-11.34,0-22.69-4.79-30.66-14.36c-2-2.39-4.48-4.28-7.23-5.57c-2.76-1.29-5.8-2-8.92-2
		c-5.32,0-10.22,1.97-13.93,5.29c-3.74,3.29-6.31,7.94-6.95,13.2l-12.47,101.09c-1.52,12.27,8.08,23.11,20.44,23.11h58.33v-31.56
		c-1.69,0.14-13.37,0.87-20.24-5.77c-7.43-7.18-6.47-20.24-6.47-20.24s13.03-1.44,20.47,5.74c4.25,4.11,5.74,10.13,6.25,14.53
		v-15.74h-0.03c0,0-0.93-12.5,6.19-19.37c7.12-6.87,19.56-5.49,19.56-5.49s0.93,12.5-6.19,19.37c-5.01,4.81-12.61,5.57-16.72,5.6
		v28.09c0.87-1.94,2.06-3.77,3.69-5.35c7.12-6.87,19.59-5.49,19.59-5.49s0.9,12.5-6.19,19.37c-5.15,4.95-13.06,5.63-17.09,5.6v10.7
		h58.36C322.64,272.53,332.21,261.69,330.71,249.42z M247.95,207.75c0,0-12.47,1.35-19.59-5.52c-7.12-6.87-6.19-19.37-6.19-19.37
		s12.47-1.38,19.59,5.49C248.88,195.23,247.95,207.75,247.95,207.75z"/>
	<g>
		<path class="st0" d="M159.09,362.28c3.42-1.58,5.92-3.4,7.44-5.41l7.99,5.4l0.11,0.07l1.38-2.11l-8.28-5.53
			c0.37-0.95,0.56-1.97,0.56-3.03v-1.75h-2.55v1.75c0,3.19-2.48,5.87-7.82,8.41l-0.13,0.06l1.17,2.19L159.09,362.28z"/>
		<rect x="156.83" y="366.32" class="st0" width="20.16" height="2.34"/>
		<rect x="199.25" y="348.82" class="st0" width="2.48" height="21.43"/>
		<path class="st0" d="M193.57,363.93c-0.71,0.09-1.4,0.17-2.09,0.24v-11.43h1.66v-2.36H182.9v2.36h1.69v11.74h-1.86l0.13,2.36h2.68
			c2.73,0,5.83-0.23,8.28-0.62l0.12-0.02l-0.23-2.29L193.57,363.93z M189.19,352.74v11.63l-0.1,0.01c-0.78,0.04-1.52,0.07-2.21,0.08
			v-11.71H189.19z"/>
		<polygon class="st0" points="194.83,356.99 192.29,356.99 192.29,359.33 194.83,359.33 194.83,369.82 197.26,369.82 
			197.26,349.14 194.83,349.14 		"/>
		<rect x="225.04" y="348.82" class="st0" width="2.55" height="21.43"/>
		<path class="st0" d="M215.76,349.83c-3.67,0-5.77,2.63-5.77,7.23v3.22c0,4.59,2.1,7.23,5.77,7.23c3.64,0,5.72-2.63,5.72-7.23
			v-3.22C221.48,352.46,219.39,349.83,215.76,349.83z M218.95,357.08v3.17c0,3.21-1.11,4.91-3.2,4.91c-2.08,0-3.22-1.74-3.22-4.91
			v-3.17c0-3.21,1.11-4.91,3.22-4.91C217.85,352.17,218.95,353.87,218.95,357.08z"/>
		<rect x="235.37" y="366.32" class="st0" width="20.16" height="2.34"/>
		<path class="st0" d="M237.64,362.28c3.42-1.58,5.92-3.4,7.44-5.41l7.99,5.4l0.11,0.07l1.38-2.11l-8.28-5.53
			c0.37-0.95,0.56-1.97,0.56-3.03v-1.75h-2.55v1.75c0,3.19-2.48,5.87-7.82,8.41l-0.13,0.06l1.17,2.19L237.64,362.28z"/>
		<path class="st0" d="M283.05,361.64h6.39v-11.4h-15.3v11.4h6.39v4.69h-8.83v2.36h20.16v-2.36h-8.81V361.64z M286.9,352.58v6.74
			h-10.21v-6.74H286.9z"/>
		<polygon class="st0" points="315.1,348.82 312.55,348.82 312.55,370.26 315.1,370.26 315.1,359.13 318.38,359.13 318.38,356.78 
			315.1,356.78 		"/>
		<path class="st0" d="M303.7,349.83c-3.59,0-5.65,2.63-5.65,7.23v3.22c0,4.59,2.06,7.23,5.65,7.23c3.56,0,5.61-2.63,5.61-7.23
			v-3.22C309.3,352.46,307.26,349.83,303.7,349.83z M303.7,352.17c2.02,0,3.08,1.7,3.08,4.91v3.17c0,3.17-1.1,4.91-3.08,4.91
			c-2.03,0-3.11-1.7-3.11-4.91v-3.17C300.59,353.87,301.66,352.17,303.7,352.17z"/>
		<path class="st0" d="M326.51,370.26h15.3v-7.18h-15.3V370.26z M339.26,365.22v2.88h-10.21v-2.88H339.26z"/>
		<path class="st0" d="M335.42,359.2v-1.72h6.16v-8.32h-2.54v2.26h-9.77v-2.26h-2.55v8.32h6.18v1.72h-8.83v2.23h20.16v-2.23H335.42z
			 M329.26,355.37v-1.81h9.77v1.81H329.26z"/>
	</g>
</g>
</svg>
