<svg width="32" height="32" viewBox="0 0 32 32" fill="none" xmlns="http://www.w3.org/2000/svg">
<g clip-path="url(#clip0_225_226)">
<path d="M28.31 9H4.69C3.76 9 3 9.76 3 10.69V17.49C3 18.42 3.76 19.18 4.69 19.18C5.38 19.18 28.31 19.18 28.31 19.18C29.24 19.18 30 18.42 30 17.49V10.69C30 9.76 29.24 9 28.31 9ZM7.87 18.21L8.19 17.12C8.21 17.05 8.28 17 8.35 17H24.66C24.73 17 24.8 17.05 24.82 17.12L25.14 18.21H7.87ZM29.04 17.49C29.04 17.89 28.72 18.21 28.32 18.21H26.14L25.75 16.85C25.61 16.37 25.16 16.03 24.66 16.03H8.34C7.84 16.03 7.39 16.37 7.25 16.85L6.86 18.21H4.69C4.29 18.21 3.97 17.89 3.97 17.49V10.69C3.97 10.29 4.29 9.97 4.69 9.97H28.31C28.71 9.97 29.03 10.29 29.03 10.69V17.49H29.04Z" fill="black"/>
<path d="M10.9498 20.45C10.6798 20.45 10.4498 20.63 10.4398 20.9C10.4398 20.92 10.3198 22.46 9.68978 23.74C9.52978 24.05 9.76978 24.45 10.1198 24.44C10.2998 24.44 10.4698 24.34 10.5498 24.17C11.2698 22.72 11.3998 21.03 11.3998 20.96C11.4198 20.69 11.2198 20.46 10.9498 20.45Z" fill="black"/>
<path d="M13.7699 20.72C13.5099 20.75 13.3099 20.99 13.3399 21.25C13.4199 22 12.8899 23.52 12.6799 24.04C12.4499 24.63 13.3199 24.99 13.5699 24.4C13.5099 24.51 15.1299 20.64 13.7599 20.72H13.7699Z" fill="black"/>
<path d="M22.5598 20.9C22.4998 20.27 21.5698 20.34 21.5998 20.97C21.5998 21.04 21.7298 22.73 22.4498 24.18C22.7398 24.74 23.5898 24.31 23.3098 23.75C22.6698 22.47 22.5598 20.92 22.5598 20.91V20.9Z" fill="black"/>
<path d="M19.66 21.25C19.72 20.62 18.78 20.52 18.7 21.14C18.58 22.26 19.33 24.18 19.42 24.4C19.67 24.99 20.54 24.63 20.31 24.04C20.1 23.52 19.57 22 19.65 21.25H19.66Z" fill="black"/>
<path d="M16.5298 20.71C16.2598 20.71 16.0498 20.93 16.0498 21.19V24.21C16.0498 24.48 16.2698 24.69 16.5298 24.69C16.7898 24.69 17.0098 24.47 17.0098 24.21V21.19C17.0098 20.92 16.7898 20.71 16.5298 20.71Z" fill="black"/>
<path d="M7.8101 11.41H6.0101C5.3801 11.42 5.3801 12.36 6.0101 12.37H7.8101C8.4401 12.36 8.4401 11.42 7.8101 11.41Z" fill="black"/>
</g>
<defs>
<clipPath id="clip0_225_226">
<rect width="27" height="15.7" fill="white" transform="translate(3 9)"/>
</clipPath>
</defs>
</svg>
