<svg width="32" height="32" viewBox="0 0 32 32" fill="none" xmlns="http://www.w3.org/2000/svg">
<g clip-path="url(#clip0_225_425)">
<path d="M24.52 3H8.43C8.19 3 8 3.19 8 3.43V28.56C8 28.8 8.19 28.99 8.43 28.99H16.47H24.51C24.75 28.99 24.94 28.8 24.94 28.56V3.43C24.94 3.19 24.75 3 24.51 3H24.52ZM12.95 22.1H16.04V28.13H8.87V17.55H16.05V21.23H12.96C12.72 21.23 12.53 21.42 12.53 21.66C12.53 21.9 12.72 22.09 12.96 22.09L12.95 22.1ZM24.08 28.13H16.9V22.1H19.99C20.23 22.1 20.42 21.91 20.42 21.67C20.42 21.43 20.23 21.24 19.99 21.24H16.9V17.56H24.08V28.14V28.13ZM24.08 16.68H8.87V10.77H24.09V16.68H24.08ZM8.87 9.91V3.87H24.09V9.91H8.87Z" fill="black"/>
</g>
<defs>
<clipPath id="clip0_225_425">
<rect width="16.96" height="26" fill="white" transform="translate(8 3)"/>
</clipPath>
</defs>
</svg>
