<svg width="32" height="32" viewBox="0 0 32 32" fill="none" xmlns="http://www.w3.org/2000/svg">
<g clip-path="url(#clip0_225_199)">
<path d="M25.49 11.66H23.76C23.61 11.66 23.47 11.69 23.33 11.74V8.2C23.26 5.27 20.85 2.95 17.93 3H14.66C11.82 2.97 9.5 5.25 9.46 8.08C9.46 8.12 9.46 8.16 9.46 8.19V11.73C9.32 11.68 9.17 11.65 9.03 11.65H7.3C6.58 11.65 6 12.23 6 12.95C6 13.67 6.58 14.25 7.3 14.25H7.73V16.91C7.73 17.59 8.28 18.14 8.96 18.14H9.52C9.72 18.9 10.4 19.44 11.19 19.44H14.22V20.74C14.22 20.98 14.41 21.17 14.65 21.17H15.08V22.47C15.08 22.47 15.05 22.55 15.01 22.55L11.42 23.15C10.53 23.3 9.83 23.98 9.65 24.86L9.48 25.73C8.64 26.19 8.33 27.24 8.79 28.08C9.25 28.92 10.3 29.23 11.14 28.77C11.7 28.46 12.05 27.88 12.04 27.24C12.04 27.13 12.03 27.02 12.01 26.91L12.37 25.47L15.06 25.13V26.1C14.43 26.82 14.5 27.91 15.21 28.55C15.92 29.19 17.02 29.11 17.66 28.4C18.24 27.75 18.24 26.76 17.66 26.11V25.14L20.35 25.48L20.72 26.92C20.71 27.03 20.71 27.14 20.72 27.25C20.72 28.21 21.49 28.99 22.44 28.99C23.4 28.99 24.18 28.22 24.18 27.27C24.18 26.63 23.84 26.05 23.28 25.74L23.11 24.87C22.93 23.99 22.23 23.31 21.34 23.16L17.75 22.56C17.75 22.56 17.68 22.52 17.68 22.48V21.18H18.11C18.35 21.18 18.54 20.99 18.54 20.75V19.45H21.57C22.36 19.45 23.04 18.91 23.24 18.15H23.8C24.48 18.15 25.03 17.6 25.03 16.92V14.26H25.46C26.18 14.26 26.76 13.68 26.76 12.96C26.76 12.24 26.18 11.66 25.46 11.66H25.49ZM9.46 17.29H8.96C8.76 17.29 8.59 17.13 8.59 16.92V14.26H9.02C9.17 14.26 9.31 14.23 9.45 14.18V17.29H9.46ZM9.03 13.39H7.3C7.06 13.39 6.87 13.2 6.87 12.96C6.87 12.72 7.06 12.53 7.3 12.53H9.03C9.27 12.53 9.46 12.72 9.46 12.96C9.46 13.2 9.27 13.39 9.03 13.39ZM10.33 28.12C9.85 28.12 9.46 27.73 9.46 27.25C9.46 26.77 9.85 26.38 10.33 26.38C10.81 26.38 11.2 26.77 11.2 27.25C11.2 27.73 10.81 28.12 10.33 28.12ZM16.39 28.12C15.91 28.12 15.52 27.73 15.52 27.25C15.52 26.77 15.91 26.38 16.39 26.38C16.87 26.38 17.26 26.77 17.26 27.25C17.26 27.73 16.87 28.12 16.39 28.12ZM23.32 27.25C23.32 27.73 22.93 28.12 22.45 28.12C21.97 28.12 21.58 27.73 21.58 27.25C21.58 26.77 21.97 26.38 22.45 26.38C22.93 26.38 23.32 26.77 23.32 27.25ZM21.2 24.01C21.73 24.1 22.16 24.51 22.26 25.04L22.36 25.52C22 25.54 21.66 25.67 21.38 25.9L21.16 24.98C21.12 24.81 20.97 24.68 20.79 24.66L17.33 24.23C17.21 24.22 17.08 24.25 16.99 24.33C16.89 24.41 16.83 24.53 16.83 24.65V25.58C16.55 25.5 16.25 25.5 15.96 25.58V24.65C15.96 24.53 15.91 24.41 15.81 24.33C15.72 24.25 15.59 24.21 15.47 24.23L12.01 24.66C11.83 24.68 11.69 24.81 11.64 24.98L11.41 25.91C11.13 25.68 10.79 25.54 10.43 25.52L10.53 25.03C10.64 24.5 11.06 24.09 11.59 24L15.18 23.4C15.63 23.33 15.97 22.94 15.97 22.48V21.18H16.84V22.48C16.84 22.94 17.18 23.34 17.63 23.41L21.22 24.01H21.2ZM17.69 20.32H15.09V19.45H17.69V20.32ZM21.28 18.59H11.51C10.91 18.59 10.41 18.16 10.33 17.57C10.41 17.15 10.77 16.85 11.2 16.86H21.59C22.01 16.86 22.38 17.15 22.46 17.57C22.39 18.16 21.88 18.6 21.28 18.59ZM22.46 16.23C22.2 16.07 21.9 15.99 21.59 15.99H11.2C10.89 15.99 10.6 16.08 10.33 16.23V8.2C10.3 5.83 12.2 3.9 14.57 3.87C14.6 3.87 14.63 3.87 14.67 3.87H17.94C20.39 3.82 22.41 5.76 22.47 8.2V16.24L22.46 16.23ZM24.19 16.92C24.19 17.12 24.03 17.29 23.82 17.29H23.32V14.18C23.46 14.23 23.61 14.26 23.75 14.26H24.18V16.92H24.19ZM25.49 13.39H23.76C23.52 13.39 23.33 13.2 23.33 12.96C23.33 12.72 23.52 12.53 23.76 12.53H25.49C25.73 12.53 25.92 12.72 25.92 12.96C25.92 13.2 25.73 13.39 25.49 13.39Z" fill="black"/>
</g>
<defs>
<clipPath id="clip0_225_199">
<rect width="20.79" height="26" fill="white" transform="translate(6 3)"/>
</clipPath>
</defs>
</svg>
