<svg width="32" height="32" viewBox="0 0 32 32" fill="none" xmlns="http://www.w3.org/2000/svg">
<g clip-path="url(#clip0_225_192)">
<path d="M23.5102 16.99H20.9902C20.8411 16.99 20.7202 17.1109 20.7202 17.26V17.57C20.7202 17.7191 20.8411 17.84 20.9902 17.84H23.5102C23.6593 17.84 23.7802 17.7191 23.7802 17.57V17.26C23.7802 17.1109 23.6593 16.99 23.5102 16.99Z" fill="black"/>
<path d="M23.5202 23.1H20.9802C20.8366 23.1 20.7202 23.2164 20.7202 23.36V23.69C20.7202 23.8336 20.8366 23.95 20.9802 23.95H23.5202C23.6638 23.95 23.7802 23.8336 23.7802 23.69V23.36C23.7802 23.2164 23.6638 23.1 23.5202 23.1Z" fill="black"/>
<path d="M28.4 13.93H13.67V12.33H16.79C16.94 12.33 17.05 12.21 17.05 12.07V5.26C17.05 5.11 16.93 5 16.79 5H6.88C6.73 5 6.62 5.12 6.62 5.26V12.06C6.62 12.21 6.74 12.32 6.88 12.32H10V13.92H3.26C3.11 13.92 3 14.04 3 14.18V14.5C3 14.65 3.12 14.76 3.26 14.76H4.83V26.81C4.83 26.9 4.91 26.98 5 26.98H5.51C5.6 26.98 5.68 26.9 5.68 26.81V14.76H17.67V26.72C17.67 26.87 17.79 26.98 17.93 26.98H26.57C26.72 26.98 26.83 26.86 26.83 26.72V14.76H28.4C28.55 14.76 28.66 14.64 28.66 14.5V14.18C28.66 14.03 28.54 13.92 28.4 13.92V13.93ZM7.47 11.49V5.85H16.21V11.49H7.47ZM10.85 13.93V12.33H12.82V13.93H10.85ZM25.99 26.15H18.52V20.89H25.99V26.15ZM25.99 20.04H18.52V14.78H25.99V20.04Z" fill="black"/>
</g>
<defs>
<clipPath id="clip0_225_192">
<rect width="25.67" height="22" fill="white" transform="translate(3 5)"/>
</clipPath>
</defs>
</svg>
