<svg width="32" height="32" viewBox="0 0 32 32" fill="none" xmlns="http://www.w3.org/2000/svg">
<g clip-path="url(#clip0_225_901)">
<path d="M16.5399 11.57C16.3799 11.73 16.3799 11.99 16.5399 12.15C16.7099 12.3 16.9699 12.29 17.1199 12.12C17.2599 11.96 17.2599 11.72 17.1199 11.56C16.9599 11.4 16.6999 11.4 16.5299 11.56L16.5399 11.57Z" fill="black"/>
<path d="M18.1898 11.57C18.0298 11.73 18.0298 11.99 18.1898 12.16C18.3498 12.32 18.6098 12.32 18.7798 12.16C18.9398 12 18.9398 11.74 18.7798 11.58C18.6198 11.43 18.3598 11.43 18.1898 11.58V11.57Z" fill="black"/>
<path d="M14.8798 12.15C15.0398 12.31 15.2998 12.31 15.4598 12.15C15.6198 11.99 15.6198 11.73 15.4598 11.57C15.2998 11.42 15.0398 11.42 14.8798 11.57C14.7198 11.73 14.7198 11.99 14.8798 12.15Z" fill="black"/>
<path d="M16.5399 13.23C16.3799 13.39 16.3799 13.65 16.5399 13.82C16.6999 13.98 16.9599 13.98 17.1299 13.82C17.2899 13.66 17.2899 13.4 17.1299 13.24C16.9599 13.09 16.7099 13.09 16.5399 13.24V13.23Z" fill="black"/>
<path d="M18.1898 13.23C18.0298 13.39 18.0298 13.65 18.1898 13.82C18.3498 13.98 18.6098 13.98 18.7798 13.82C18.9398 13.66 18.9398 13.4 18.7798 13.24C18.6198 13.09 18.3598 13.09 18.1898 13.24V13.23Z" fill="black"/>
<path d="M15.1698 13.93C15.3962 13.93 15.5798 13.7464 15.5798 13.52C15.5798 13.2935 15.3962 13.11 15.1698 13.11C14.9433 13.11 14.7598 13.2935 14.7598 13.52C14.7598 13.7464 14.9433 13.93 15.1698 13.93Z" fill="black"/>
<path d="M16.5399 14.88C16.3799 15.04 16.3799 15.3 16.5399 15.47C16.6999 15.63 16.9599 15.63 17.1299 15.47C17.2899 15.31 17.2899 15.05 17.1299 14.89C16.9699 14.74 16.7099 14.74 16.5399 14.89V14.88Z" fill="black"/>
<path d="M18.1898 14.88C18.0298 15.04 18.0298 15.3 18.1898 15.47C18.3498 15.63 18.6098 15.63 18.7798 15.47C18.9398 15.31 18.9398 15.05 18.7798 14.89C18.6198 14.74 18.3598 14.74 18.1898 14.89V14.88Z" fill="black"/>
<path d="M14.8801 15.46C15.0401 15.62 15.3001 15.62 15.4601 15.46C15.6201 15.3 15.6201 15.04 15.4601 14.88C15.3001 14.72 15.0401 14.72 14.8801 14.88C14.7301 15.04 14.7301 15.3 14.8801 15.46Z" fill="black"/>
<path d="M16.8298 10.62C17.9698 10.62 18.8998 9.68998 18.8998 8.54998C18.8998 7.40998 17.9698 6.47998 16.8298 6.47998C15.6898 6.47998 14.7598 7.40998 14.7598 8.54998C14.7598 9.68998 15.6898 10.62 16.8298 10.62ZM16.8298 7.30998C17.5198 7.30998 18.0698 7.86998 18.0698 8.54998C18.0698 9.22998 17.5098 9.78998 16.8298 9.78998C16.1498 9.78998 15.5898 9.22998 15.5898 8.54998C15.5898 7.85998 16.1498 7.30998 16.8298 7.30998Z" fill="black"/>
<path d="M15.9998 24.69H17.6598C17.8898 24.69 18.0698 24.5 18.0698 24.28C18.0698 24.06 17.8798 23.87 17.6598 23.87H15.9998C15.7698 23.87 15.5898 24.06 15.5898 24.28C15.5898 24.5 15.7798 24.69 15.9998 24.69Z" fill="black"/>
<path d="M5.24 28H12.27C12.96 28 13.51 27.44 13.51 26.76V26.23C13.69 26.31 13.88 26.35 14.07 26.35H19.57C20.34 26.35 20.96 25.73 20.96 24.96V21.18H26.13C27.16 21.18 27.99 20.35 27.99 19.32C27.99 18.29 27.16 17.46 26.13 17.46H20.96V5.39C20.96 4.62 20.34 4 19.57 4H14.07C13.3 4 12.68 4.62 12.68 5.39V11.52C12.55 11.47 12.41 11.45 12.27 11.45H5.24C4.55 11.45 4 12.01 4 12.69V26.76C4 27.45 4.56 28 5.24 28ZM27.17 19.31C27.17 19.88 26.71 20.34 26.14 20.34H16.68C16.08 20.34 15.59 19.87 15.59 19.27C15.61 18.71 16.07 18.27 16.62 18.27H26.14C26.71 18.27 27.17 18.73 27.17 19.3V19.31ZM13.52 5.39C13.52 5.08 13.77 4.83 14.08 4.83H19.58C19.89 4.83 20.14 5.08 20.14 5.39V17.45H16.62C15.61 17.45 14.79 18.25 14.76 19.25C14.76 20.3 15.6 21.16 16.65 21.17C16.65 21.17 16.67 21.17 16.68 21.17H20.14V24.95C20.14 25.26 19.89 25.51 19.58 25.51H14.08C13.77 25.51 13.52 25.26 13.52 24.95V5.39ZM4.83 12.69C4.83 12.46 5.02 12.28 5.24 12.28H12.27C12.5 12.28 12.68 12.47 12.68 12.69V26.76C12.68 26.99 12.49 27.17 12.27 27.17H5.24C5.01 27.17 4.83 26.98 4.83 26.76V12.69Z" fill="black"/>
<path d="M7.30982 22.83H10.2098C10.8998 22.83 11.4498 22.27 11.4498 21.59V20.35C11.4498 19.74 11.0098 19.23 10.4198 19.13V18.28C10.4198 17.37 9.67982 16.62 8.75982 16.62C7.83982 16.62 7.09982 17.36 7.09982 18.28V19.13C6.49982 19.23 6.06982 19.75 6.06982 20.35V21.59C6.06982 22.28 6.62982 22.83 7.30982 22.83ZM7.92982 18.28C7.92982 17.82 8.29982 17.45 8.75982 17.45C9.21982 17.45 9.58982 17.82 9.58982 18.28V19.11H7.92982V18.28ZM6.89982 20.35C6.89982 20.12 7.08982 19.94 7.30982 19.94H10.2098C10.4398 19.94 10.6198 20.13 10.6198 20.35V21.59C10.6198 21.82 10.4298 22 10.2098 22H7.30982C7.07982 22 6.89982 21.81 6.89982 21.59V20.35Z" fill="black"/>
<path d="M11.2499 10.17C11.4799 10.15 11.6399 9.94001 11.6199 9.72001C11.2999 6.71001 8.91993 4.33001 5.89993 4.00001C5.66993 3.98001 5.46993 4.15001 5.44993 4.38001C5.42993 4.60001 5.58993 4.80001 5.80993 4.83001C8.42993 5.11001 10.5099 7.18001 10.7899 9.81001C10.8099 10.04 11.0199 10.2 11.2399 10.18L11.2499 10.17Z" fill="black"/>
<path d="M9.6001 10.17C9.8301 10.14 9.9801 9.93001 9.9501 9.70001C9.6401 7.61001 8.0101 5.98001 5.9201 5.67001C5.6901 5.64001 5.4801 5.79001 5.4501 6.02001C5.4201 6.25001 5.5701 6.46001 5.8001 6.49001C7.5201 6.74001 8.8801 8.09001 9.1301 9.82001C9.1601 10.05 9.3701 10.2 9.6001 10.17Z" fill="black"/>
<path d="M7.46022 9.86002C7.51022 10.08 7.73022 10.22 7.95022 10.17C8.17022 10.12 8.31022 9.90002 8.26022 9.68002C7.98022 8.54002 7.10022 7.65002 5.96022 7.38002C5.74022 7.32002 5.51022 7.46002 5.46022 7.68002C5.40022 7.90002 5.54022 8.13002 5.76022 8.18002C6.59022 8.38002 7.25022 9.03002 7.45022 9.87002L7.46022 9.86002Z" fill="black"/>
<path d="M6.1602 9.46998C5.9902 9.30998 5.7402 9.30998 5.5702 9.46998C5.4102 9.62998 5.4102 9.88998 5.5702 10.06C5.7302 10.23 5.9902 10.22 6.1602 10.06C6.3202 9.89998 6.3202 9.63998 6.1602 9.47998V9.46998Z" fill="black"/>
</g>
<defs>
<clipPath id="clip0_225_901">
<rect width="24" height="24" fill="white" transform="translate(4 4)"/>
</clipPath>
</defs>
</svg>
