<svg width="32" height="32" viewBox="0 0 32 32" fill="none" xmlns="http://www.w3.org/2000/svg">
<g clip-path="url(#clip0_225_874)">
<path d="M23.97 5H6.37C6.17 5 6 5.16 6 5.37V24.44C6 24.64 6.16 24.81 6.37 24.81H6.79L7.11 26.7C7.14 26.88 7.29 27.01 7.47 27.01H8.94C9.12 27.01 9.27 26.88 9.3 26.7L9.62 24.81H20.73L21.05 26.7C21.08 26.88 21.23 27.01 21.41 27.01H22.88C23.06 27.01 23.21 26.88 23.24 26.7L23.56 24.81H23.98C24.18 24.81 24.35 24.65 24.35 24.44V5.37C24.35 5.17 24.19 5 23.98 5H23.97ZM8.62 26.27H7.77L7.53 24.8H8.86L8.62 26.27ZM22.55 26.27H21.7L21.46 24.8H22.79L22.55 26.27ZM23.59 24.07H6.73V5.73H23.6V24.06L23.59 24.07Z" fill="black"/>
<path d="M13.3301 14.53H17.0001V15.26H13.3301V14.53Z" fill="black"/>
<path d="M13.3301 8.17999H17.0001V8.90999H13.3301V8.17999Z" fill="black"/>
<path d="M13.3301 20.89H17.0001V21.62H13.3301V20.89Z" fill="black"/>
<path d="M22.8702 11.36H7.47021V12.09H22.8702V11.36Z" fill="black"/>
<path d="M22.8702 17.71H7.47021V18.44H22.8702V17.71Z" fill="black"/>
</g>
<defs>
<clipPath id="clip0_225_874">
<rect width="18.33" height="22" fill="white" transform="translate(6 5)"/>
</clipPath>
</defs>
</svg>
