<svg width="32" height="32" viewBox="0 0 32 32" fill="none" xmlns="http://www.w3.org/2000/svg">
<g clip-path="url(#clip0_263_234)">
<path d="M19.5398 21.81C18.8398 21.81 18.2798 22.38 18.2798 23.07C18.2798 23.76 18.8498 24.33 19.5398 24.33C20.2298 24.33 20.7998 23.76 20.7998 23.07C20.7998 22.37 20.2298 21.81 19.5398 21.81ZM19.5398 23.57C19.2598 23.57 19.0398 23.35 19.0398 23.07C19.0398 22.79 19.2598 22.57 19.5398 22.57C19.8198 22.57 20.0398 22.79 20.0398 23.07C20.0398 23.35 19.8198 23.57 19.5398 23.57Z" fill="black"/>
<path d="M10.4198 4.54999C12.6698 3.19999 15.9798 3.60999 17.6498 5.66999C17.6898 5.71999 17.7398 5.75999 17.8098 5.78999C17.8598 5.80999 19.0198 6.29999 19.0198 8.33999V10.74C18.8098 10.65 18.5798 10.6 18.3298 10.61V9.35999C18.3298 9.03999 18.0898 8.77999 17.7798 8.74999C17.1398 8.68999 16.7798 8.26999 16.5898 7.92999C16.3498 7.50999 15.7898 7.39999 15.4198 7.71999C13.7198 9.16999 11.7698 9.24999 10.4198 9.04999C9.39981 8.89999 8.45981 9.59999 8.29981 10.6C8.04981 10.59 7.80981 10.63 7.58981 10.73C7.60981 9.53999 7.40981 8.25999 8.34981 6.61999C8.34981 6.61999 9.38981 5.04999 10.4198 4.53999V4.54999ZM25.1298 22.84V26.55C25.1298 26.67 25.0298 26.78 24.8998 26.78H14.1798C14.0598 26.78 13.9498 26.68 13.9498 26.55V19.61C13.9498 19.49 14.0498 19.38 14.1798 19.38H24.8998C25.0198 19.38 25.1298 19.48 25.1298 19.61V22.83V22.84ZM16.3998 29.01H25.7098C26.4298 29.01 27.0198 28.42 27.0198 27.7C27.0198 27.2 26.6098 26.79 26.1098 26.79H25.8698C25.9198 26.57 25.8898 26.73 25.8998 22.85V19.63C25.8998 19.08 25.4598 18.64 24.9098 18.64H16.8298L15.9798 18.35C15.9198 18.33 15.8698 18.27 15.8698 18.2V17.27C17.2498 16.45 18.1398 15.03 18.2998 13.49C19.4698 13.54 20.2598 12.43 19.7798 11.47V8.35999C19.7798 6.10999 18.5598 5.32999 18.1898 5.14999C16.0298 2.54999 11.5898 2.17999 8.86981 4.75999C8.26981 5.25999 7.68981 6.24999 7.68981 6.24999C7.11981 7.24999 6.83981 8.39999 6.82981 9.21999C6.82981 9.46999 6.82981 9.37999 6.82981 11.43C6.34981 12.4 7.14981 13.51 8.30981 13.45C8.47981 15.04 9.41981 16.5 10.8898 17.31V18.16C10.8898 18.23 10.8498 18.29 10.7798 18.31C9.26981 18.84 11.0498 18.2 7.08981 19.6C6.73981 19.7 6.81981 19.68 6.67981 19.73C5.82981 20.09 5.30981 20.77 5.13981 21.61C3.94981 27.6 3.99981 27.26 3.99981 27.58C4.03981 28.52 4.63981 29 5.56981 29C5.58981 29 13.3798 29 13.3698 29H16.3998V29.01ZM14.6198 28.25H13.3698C12.8398 28.25 12.6598 27.55 12.9698 27.55H26.0998C26.4098 27.55 26.2298 28.25 25.6998 28.25H14.6198ZM18.3198 11.38C18.7598 11.36 19.1498 11.65 19.1498 12.05C19.1498 12.45 18.7498 12.74 18.3198 12.72V11.39V11.38ZM8.26981 12.71C7.82981 12.73 7.43981 12.44 7.43981 12.04C7.43981 11.64 7.83981 11.35 8.26981 11.37V12.7V12.71ZM9.03981 13.15C9.03981 12.97 9.03981 13.04 9.03981 11.07C9.04981 11.01 8.95981 10.48 9.41981 10.08C9.65981 9.86999 9.98981 9.76999 10.3098 9.81999C11.8098 10.04 13.9898 9.94999 15.9098 8.30999C16.2798 8.96999 16.8598 9.38999 17.5598 9.49999C17.5598 12.94 17.5998 13.28 17.4298 13.96C17.3198 14.38 17.1398 14.81 16.9198 15.16C14.6798 18.69 9.24981 17.3 9.03981 13.14V13.15ZM7.47981 28.25H5.55981C4.90981 28.25 4.78981 27.94 4.75981 27.67C4.72981 27.39 4.78981 27.26 5.04981 25.9H7.46981V28.24L7.47981 28.25ZM12.9698 26.78C12.3498 26.78 11.8698 27.38 12.1298 28.13C12.1398 28.16 12.1598 28.21 12.1798 28.25H8.24981V24.66C8.24981 24.45 8.07981 24.28 7.86981 24.28C7.65981 24.28 7.48981 24.45 7.48981 24.66V25.14H5.21981C5.93981 21.53 5.89981 21.68 5.97981 21.48C6.13981 21.07 6.36981 20.83 6.70981 20.61C7.00981 20.44 7.03981 20.45 7.31981 20.36C7.33981 20.36 7.20981 20.4 9.51981 19.58L10.8998 19.11C10.8998 19.77 11.3298 20.35 11.9598 20.56C12.3598 20.69 12.7798 20.77 13.1998 20.78C13.2198 26.58 13.1698 26.52 13.2298 26.78H12.9898H12.9698ZM13.1898 19.62C13.1898 19.62 13.1898 20.03 13.1898 20.02C12.8398 20.01 12.5098 19.95 12.1898 19.84C11.8698 19.73 11.6498 19.43 11.6498 19.09C11.6498 18.17 11.6498 18.73 11.6498 17.68C13.2598 18.24 14.5298 17.8 14.6098 17.79C14.7398 17.75 14.7898 17.75 15.0998 17.63V18.63H14.1798C13.6298 18.63 13.1898 19.07 13.1898 19.62Z" fill="black"/>
</g>
<defs>
<clipPath id="clip0_263_234">
<rect width="23.02" height="26" fill="white" transform="translate(4 3)"/>
</clipPath>
</defs>
</svg>
