<svg width="32" height="32" viewBox="0 0 32 32" fill="none" xmlns="http://www.w3.org/2000/svg">
<g clip-path="url(#clip0_263_201)">
<path d="M7.90039 11.81V9.60999C7.90039 9.40564 7.73697 9.23999 7.53539 9.23999C7.33381 9.23999 7.17039 9.40564 7.17039 9.60999V11.81C7.17039 12.0143 7.33381 12.18 7.53539 12.18C7.73697 12.18 7.90039 12.0143 7.90039 11.81Z" fill="black"/>
<path d="M12.3101 11.8V9.59998C12.3101 9.39564 12.1466 9.22998 11.9451 9.22998C11.7435 9.22998 11.5801 9.39564 11.5801 9.59998V11.8C11.5801 12.0043 11.7435 12.17 11.9451 12.17C12.1466 12.17 12.3101 12.0043 12.3101 11.8Z" fill="black"/>
<path d="M16.7202 11.8V9.59998C16.7202 9.39563 16.5568 9.22998 16.3552 9.22998C16.1536 9.22998 15.9902 9.39563 15.9902 9.59998V11.8C15.9902 12.0043 16.1536 12.17 16.3552 12.17C16.5568 12.17 16.7202 12.0043 16.7202 11.8Z" fill="black"/>
<path d="M21.1304 11.8V9.59998C21.1304 9.39563 20.967 9.22998 20.7654 9.22998C20.5638 9.22998 20.4004 9.39563 20.4004 9.59998V11.8C20.4004 12.0043 20.5638 12.17 20.7654 12.17C20.967 12.17 21.1304 12.0043 21.1304 11.8Z" fill="black"/>
<path d="M25.54 11.81V9.60999C25.54 9.40565 25.3766 9.23999 25.175 9.23999C24.9735 9.23999 24.81 9.40565 24.81 9.60999V11.81C24.81 12.0143 24.9735 12.18 25.175 12.18C25.3766 12.18 25.54 12.0143 25.54 11.81Z" fill="black"/>
<path d="M7.89014 18.87V16.67C7.89014 16.4656 7.72672 16.3 7.52514 16.3C7.32355 16.3 7.16014 16.4656 7.16014 16.67V18.87C7.16014 19.0743 7.32355 19.24 7.52514 19.24C7.72672 19.24 7.89014 19.0743 7.89014 18.87Z" fill="black"/>
<path d="M10.3701 15.34V13.14C10.3701 12.9356 10.2067 12.77 10.0051 12.77C9.80353 12.77 9.64012 12.9356 9.64012 13.14V15.34C9.64012 15.5443 9.80353 15.71 10.0051 15.71C10.2067 15.71 10.3701 15.5443 10.3701 15.34Z" fill="black"/>
<path d="M14.6001 15.33V13.13C14.6001 12.9257 14.4367 12.76 14.2351 12.76C14.0335 12.76 13.8701 12.9257 13.8701 13.13V15.33C13.8701 15.5344 14.0335 15.7 14.2351 15.7C14.4367 15.7 14.6001 15.5344 14.6001 15.33Z" fill="black"/>
<path d="M18.8403 15.33V13.13C18.8403 12.9257 18.6769 12.76 18.4753 12.76C18.2737 12.76 18.1103 12.9257 18.1103 13.13V15.33C18.1103 15.5344 18.2737 15.7 18.4753 15.7C18.6769 15.7 18.8403 15.5344 18.8403 15.33Z" fill="black"/>
<path d="M23.0703 15.34V13.14C23.0703 12.9356 22.9069 12.77 22.7053 12.77C22.5037 12.77 22.3403 12.9356 22.3403 13.14V15.34C22.3403 15.5443 22.5037 15.71 22.7053 15.71C22.9069 15.71 23.0703 15.5443 23.0703 15.34Z" fill="black"/>
<path d="M10.3604 22.39V20.19C10.3604 19.9857 10.1969 19.82 9.99535 19.82C9.79377 19.82 9.63035 19.9857 9.63035 20.19V22.39C9.63035 22.5944 9.79377 22.76 9.99535 22.76C10.1969 22.76 10.3604 22.5944 10.3604 22.39Z" fill="black"/>
<path d="M14.6001 22.39V20.19C14.6001 19.9857 14.4367 19.82 14.2351 19.82C14.0335 19.82 13.8701 19.9857 13.8701 20.19V22.39C13.8701 22.5944 14.0335 22.76 14.2351 22.76C14.4367 22.76 14.6001 22.5944 14.6001 22.39Z" fill="black"/>
<path d="M18.8301 22.39V20.19C18.8301 19.9857 18.6667 19.82 18.4651 19.82C18.2635 19.82 18.1001 19.9857 18.1001 20.19V22.39C18.1001 22.5944 18.2635 22.76 18.4651 22.76C18.6667 22.76 18.8301 22.5944 18.8301 22.39Z" fill="black"/>
<path d="M23.0703 22.4V20.2C23.0703 19.9956 22.9069 19.83 22.7053 19.83C22.5037 19.83 22.3403 19.9956 22.3403 20.2V22.4C22.3403 22.6043 22.5037 22.77 22.7053 22.77C22.9069 22.77 23.0703 22.6043 23.0703 22.4Z" fill="black"/>
<path d="M12.3101 18.86V16.66C12.3101 16.4556 12.1466 16.29 11.9451 16.29C11.7435 16.29 11.5801 16.4556 11.5801 16.66V18.86C11.5801 19.0643 11.7435 19.23 11.9451 19.23C12.1466 19.23 12.3101 19.0643 12.3101 18.86Z" fill="black"/>
<path d="M16.7202 18.86V16.66C16.7202 16.4556 16.5568 16.29 16.3552 16.29C16.1536 16.29 15.9902 16.4556 15.9902 16.66V18.86C15.9902 19.0643 16.1536 19.23 16.3552 19.23C16.5568 19.23 16.7202 19.0643 16.7202 18.86Z" fill="black"/>
<path d="M21.1304 18.86V16.66C21.1304 16.4556 20.967 16.29 20.7654 16.29C20.5638 16.29 20.4004 16.4556 20.4004 16.66V18.86C20.4004 19.0643 20.5638 19.23 20.7654 19.23C20.967 19.23 21.1304 19.0643 21.1304 18.86Z" fill="black"/>
<path d="M25.54 18.87V16.67C25.54 16.4656 25.3766 16.3 25.175 16.3C24.9735 16.3 24.81 16.4656 24.81 16.67V18.87C24.81 19.0743 24.9735 19.24 25.175 19.24C25.3766 19.24 25.54 19.0743 25.54 18.87Z" fill="black"/>
<path d="M28.34 6H4.37C4.17 6 4 6.16 4 6.37V25.64C4 25.84 4.16 26.01 4.37 26.01H28.34C28.54 26.01 28.71 25.85 28.71 25.64V6.37C28.71 6.17 28.55 6 28.34 6ZM27.97 6.83V25.16C27.97 25.22 27.93 25.26 27.87 25.26H4.83C4.77 25.26 4.73 25.22 4.73 25.16V6.83C4.73 6.77 4.77 6.73 4.83 6.73H27.87C27.93 6.73 27.97 6.77 27.97 6.83Z" fill="black"/>
</g>
<defs>
<clipPath id="clip0_263_201">
<rect width="24.71" height="20" fill="white" transform="translate(4 6)"/>
</clipPath>
</defs>
</svg>
