<?xml version="1.0" encoding="utf-8"?>
<!-- Generator: Adobe Illustrator 27.7.0, SVG Export Plug-In . SVG Version: 6.00 Build 0)  -->
<svg version="1.1" id="Layer_1" xmlns="http://www.w3.org/2000/svg" xmlns:xlink="http://www.w3.org/1999/xlink" x="0px" y="0px"
	 viewBox="0 0 180.27 222.2" style="enable-background:new 0 0 180.27 222.2;" xml:space="preserve">
<style type="text/css">
	.st0{fill:#FCD297;}
	.st1{fill:#FFFFFF;}
</style>
<g>
	<path class="st0" d="M176.61,94.82c0,37.41-53.05,92.63-76.05,114.82c-5.82,5.61-15.04,5.61-20.86,0
		c-23-22.19-76.05-77.41-76.05-114.82c0-47.76,38.72-86.48,86.48-86.48S176.61,47.06,176.61,94.82z"/>
	<path class="st1" d="M134.91,117.3l-6.96-56.45c-0.72-5.89-5.74-10.33-11.66-10.33c-3.49,0-6.81,1.56-9.04,4.23
		c-4.45,5.34-10.78,8.02-17.12,8.02c-6.33,0-12.67-2.67-17.12-8.02c-1.12-1.34-2.5-2.39-4.04-3.11c-1.54-0.72-3.24-1.12-4.98-1.12
		c-2.97,0-5.71,1.1-7.78,2.96c-2.09,1.84-3.52,4.43-3.88,7.37l-6.96,56.45c-0.85,6.85,4.51,12.91,11.41,12.91h32.57v-17.62
		c-0.94,0.08-7.47,0.49-11.3-3.22c-4.15-4.01-3.62-11.3-3.62-11.3s7.28-0.8,11.43,3.21c2.37,2.3,3.21,5.66,3.49,8.11v-8.79h-0.02
		c0,0-0.52-6.98,3.46-10.81c3.98-3.84,10.92-3.07,10.92-3.07s0.52,6.98-3.46,10.81c-2.8,2.69-7.04,3.11-9.34,3.13v15.69
		c0.49-1.08,1.15-2.11,2.06-2.99c3.98-3.84,10.94-3.07,10.94-3.07s0.5,6.98-3.46,10.81c-2.88,2.77-7.29,3.14-9.54,3.13v5.97h32.59
		C130.4,130.2,135.75,124.15,134.91,117.3z M88.7,94.03c0,0-6.96,0.75-10.94-3.08c-3.98-3.84-3.46-10.81-3.46-10.81
		s6.96-0.77,10.94,3.07C89.22,87.04,88.7,94.03,88.7,94.03z"/>
</g>
</svg>
