<svg width="32" height="32" viewBox="0 0 32 32" fill="none" xmlns="http://www.w3.org/2000/svg">
<g clip-path="url(#clip0_225_885)">
<path d="M9.6 24H8.8C8.36 24 8 24.36 8 24.8V25.6C8 26.04 8.36 26.4 8.8 26.4H9.6C10.04 26.4 10.4 26.04 10.4 25.6V24.8C10.4 24.36 10.04 24 9.6 24ZM8.8 25.6V24.8H9.6V25.6H8.8Z" fill="black"/>
<path d="M12.8002 24H12.0002C11.5602 24 11.2002 24.36 11.2002 24.8V25.6C11.2002 26.04 11.5602 26.4 12.0002 26.4H12.8002C13.2402 26.4 13.6002 26.04 13.6002 25.6V24.8C13.6002 24.36 13.2402 24 12.8002 24ZM12.0002 25.6V24.8H12.8002V25.6H12.0002Z" fill="black"/>
<path d="M15.9999 24H15.1999C14.7599 24 14.3999 24.36 14.3999 24.8V25.6C14.3999 26.04 14.7599 26.4 15.1999 26.4H15.9999C16.4399 26.4 16.7999 26.04 16.7999 25.6V24.8C16.7999 24.36 16.4399 24 15.9999 24ZM15.1999 25.6V24.8H15.9999V25.6H15.1999Z" fill="black"/>
<path d="M19.2001 24H18.4001C17.9601 24 17.6001 24.36 17.6001 24.8V25.6C17.6001 26.04 17.9601 26.4 18.4001 26.4H19.2001C19.6401 26.4 20.0001 26.04 20.0001 25.6V24.8C20.0001 24.36 19.6401 24 19.2001 24ZM18.4001 25.6V24.8H19.2001V25.6H18.4001Z" fill="black"/>
<path d="M12.7999 16H15.1999C15.4199 16 15.5999 15.82 15.5999 15.6C15.5999 15.38 15.4199 15.2 15.1999 15.2H12.7999C12.5799 15.2 12.3999 15.38 12.3999 15.6C12.3999 15.82 12.5799 16 12.7999 16Z" fill="black"/>
<path d="M14.8002 16.8C14.8002 16.58 14.6202 16.4 14.4002 16.4H13.6002C13.3802 16.4 13.2002 16.58 13.2002 16.8C13.2002 17.02 13.3802 17.2 13.6002 17.2H14.4002C14.6202 17.2 14.8002 17.02 14.8002 16.8Z" fill="black"/>
<path d="M26.42 4H26.38C25.73 4 25.19 4.51 25.17 5.17L24.89 15.6H24C24 14.5 23.1 13.6 22 13.6H6C4.9 13.6 4 14.5 4 15.6V26C4 27.1 4.9 28 6 28H22C23.1 28 24 27.1 24 26V18.8H24.8C24.8 19.01 24.88 19.22 25.04 19.37C25.2 19.52 25.39 19.6 25.61 19.6H27.2C27.42 19.6 27.63 19.51 27.78 19.36C27.93 19.21 28.01 19 28.01 18.78L27.64 5.17C27.61 4.51 27.08 4 26.42 4ZM23.2 26C23.2 26.66 22.66 27.2 22 27.2H6C5.34 27.2 4.8 26.66 4.8 26V15.6C4.8 14.94 5.34 14.4 6 14.4H22C22.66 14.4 23.2 14.94 23.2 15.6V26ZM24 16.4H24.86L24.82 18H24V16.4ZM25.6 18.8L25.97 5.19C25.97 4.97 26.16 4.8 26.38 4.8H26.42C26.64 4.8 26.82 4.97 26.83 5.19L27.2 18.8H25.6Z" fill="black"/>
<path d="M8.31021 8.87003C9.67021 7.14003 11.7502 6.14003 13.9502 6.14003C16.1502 6.14003 18.2302 7.15003 19.5902 8.87003C19.7302 9.04003 19.9802 9.06003 20.1502 8.93003C20.3202 8.80003 20.3502 8.55003 20.2202 8.38003C18.7002 6.46003 16.3902 5.34003 13.9502 5.34003C11.5102 5.34003 9.20021 6.46003 7.68021 8.38003C7.54021 8.55003 7.57021 8.80003 7.75021 8.94003C7.93021 9.08003 8.17021 9.05003 8.31021 8.87003Z" fill="black"/>
<path d="M17.7201 10.36C17.8101 10.47 17.9501 10.53 18.0901 10.51C18.2301 10.49 18.3501 10.39 18.4001 10.26C18.4501 10.13 18.4301 9.97999 18.3401 9.85999C17.2801 8.51999 15.6601 7.73999 13.9501 7.73999C12.2401 7.73999 10.6201 8.51999 9.56009 9.85999C9.42009 10.03 9.45009 10.28 9.63009 10.42C9.80009 10.56 10.0501 10.53 10.1901 10.36C11.1001 9.20999 12.4901 8.53999 13.9501 8.53999C15.4101 8.53999 16.8001 9.20999 17.7101 10.36H17.7201Z" fill="black"/>
<path d="M13.9602 10.14C12.9802 10.14 12.0602 10.59 11.4502 11.36C11.3102 11.53 11.3402 11.79 11.5202 11.92C11.7002 12.05 11.9502 12.03 12.0802 11.85C12.5302 11.27 13.2202 10.94 13.9602 10.94C14.7002 10.94 15.3802 11.28 15.8402 11.85C15.9302 11.96 16.0702 12.02 16.2102 12C16.3502 11.98 16.4702 11.89 16.5202 11.75C16.5702 11.61 16.5502 11.47 16.4602 11.35C15.8602 10.58 14.9302 10.13 13.9502 10.13L13.9602 10.14Z" fill="black"/>
</g>
<defs>
<clipPath id="clip0_225_885">
<rect width="24" height="24" fill="white" transform="translate(4 4)"/>
</clipPath>
</defs>
</svg>
